%TF.GenerationSoftware,KiCad,Pcbnew,9.0.1*%
%TF.CreationDate,2025-05-14T21:44:34-03:00*%
%TF.ProjectId,queremate_pd_safe,71756572-656d-4617-9465-5f70645f7361,rev?*%
%TF.SameCoordinates,Original*%
%TF.FileFunction,Legend,Bot*%
%TF.FilePolarity,Positive*%
%FSLAX46Y46*%
G04 Gerber Fmt 4.6, Leading zero omitted, Abs format (unit mm)*
G04 Created by KiCad (PCBNEW 9.0.1) date 2025-05-14 21:44:34*
%MOMM*%
%LPD*%
G01*
G04 APERTURE LIST*
%ADD10C,0.150000*%
G04 APERTURE END LIST*
D10*
X98298000Y-77622400D02*
X98298000Y-77592400D01*
X98298000Y-76992400D02*
X98298000Y-76962400D01*
X98298000Y-76362400D02*
X98298000Y-76332400D01*
X98298000Y-75732400D02*
X98298000Y-75702400D01*
X98298000Y-75102400D02*
X98298000Y-75072400D01*
X98298000Y-74472400D02*
X98298000Y-74442400D01*
X98298000Y-73842400D02*
X98298000Y-73812400D01*
X98298000Y-73212400D02*
X98298000Y-73182400D01*
X98298000Y-72582400D02*
X98298000Y-72552400D01*
X98298000Y-71952400D02*
X98298000Y-71922400D01*
X98298000Y-71322400D02*
X98298000Y-71292400D01*
X98298000Y-70692400D02*
X98298000Y-70662400D01*
X98298000Y-70062400D02*
X98298000Y-70032400D01*
X98298000Y-69432400D02*
X98298000Y-69402400D01*
X98298000Y-68802400D02*
X98298000Y-68772400D01*
X98298000Y-68172400D02*
X98298000Y-68142400D01*
X98298000Y-67542400D02*
X98298000Y-67512400D01*
X98298000Y-66912400D02*
X98298000Y-66882400D01*
X98298000Y-66282400D02*
X98298000Y-66252400D01*
X98298000Y-65652400D02*
X98298000Y-65622400D01*
X98298000Y-65022400D02*
X98298000Y-64992400D01*
X98298000Y-64392400D02*
X98298000Y-64362400D01*
X98298000Y-63762400D02*
X98298000Y-63732400D01*
X98298000Y-63132400D02*
X98298000Y-63102400D01*
X98298000Y-62502400D02*
X98298000Y-62472400D01*
M02*
