M48
; DRILL file {KiCad 9.0.1} date 2025-05-14T21:44:32-0300
; FORMAT={-:-/ absolute / metric / decimal}
; #@! TF.CreationDate,2025-05-14T21:44:32-03:00
; #@! TF.GenerationSoftware,Kicad,Pcbnew,9.0.1
; #@! TF.FileFunction,Plated,1,4,PTH
FMAT,2
METRIC
; #@! TA.AperFunction,Plated,PTH,ViaDrill
T1C0.300
; #@! TA.AperFunction,Plated,PTH,ViaDrill
T2C0.500
; #@! TA.AperFunction,Plated,PTH,ComponentDrill
T3C0.900
; #@! TA.AperFunction,Plated,PTH,ComponentDrill
T4C1.000
; #@! TA.AperFunction,Plated,PTH,ComponentDrill
T5C1.100
%
G90
G05
T1
X30.988Y-86.208
X32.918Y-87.376
X34.646Y-87.376
X36.322Y-86.106
X69.901Y-30.48
X71.272Y-29.058
X73.0Y-49.022
X73.508Y-60.249
X73.609Y-63.398
X73.66Y-29.058
X74.524Y-48.412
X74.625Y-30.48
X74.676Y-64.16
X79.045Y-48.412
X80.569Y-55.677
X80.67Y-48.717
X81.585Y-60.909
X83.363Y-49.835
X86.004Y-60.909
X87.274Y-60.35
X87.884Y-56.337
X90.78Y-65.38
X91.338Y-77.47
X91.491Y-51.105
X91.796Y-60.655
X92.354Y-52.172
X93.015Y-60.096
X93.878Y-65.329
X93.878Y-78.486
X94.031Y-60.858
X94.132Y-48.412
X96.164Y-66.497
X96.52Y-74.778
X96.622Y-73.457
X96.672Y-67.767
X96.672Y-71.831
X97.485Y-65.684
X98.196Y-74.524
X98.349Y-63.195
X98.755Y-60.858
X98.955Y-65.885
X99.1Y-67.25
X99.314Y-71.476
X100.127Y-71.526
X100.16Y-65.15
X100.381Y-72.136
X100.43Y-69.32
X101.397Y-49.073
X103.226Y-46.076
X103.53Y-83.769
X103.53Y-88.087
X103.683Y-80.924
X104.496Y-82.906
X105.969Y-87.325
X107.747Y-87.884
X108.052Y-75.235
X108.204Y-52.629
X108.255Y-54.0
X108.255Y-58.014
X108.255Y-59.842
X108.458Y-51.41
X109.118Y-87.884
X110.439Y-87.376
X110.795Y-68.834
X110.871Y-72.161
X111.506Y-73.05
X111.811Y-71.73
X112.319Y-60.401
X113.03Y-75.235
X113.589Y-48.209
X114.3Y-60.554
X115.849Y-74.397
X116.84Y-74.27
T2
X111.354Y-69.748
X112.443Y-66.52
T3
X69.0Y-68.5
X73.0Y-68.5
X105.953Y-83.882
X105.993Y-44.771
X108.453Y-78.882
X110.953Y-83.882
X110.993Y-42.271
X110.993Y-47.271
T4
X115.234Y-76.835
X117.774Y-76.835
T5
X30.481Y-89.749
X30.481Y-94.249
X36.981Y-89.749
X36.981Y-94.249
X69.038Y-21.778
X69.038Y-26.278
X75.538Y-21.778
X75.538Y-26.278
X104.852Y-89.8
X104.852Y-94.3
X111.352Y-89.8
X111.352Y-94.3
M30
