%TF.GenerationSoftware,KiCad,Pcbnew,9.0.1*%
%TF.CreationDate,2025-07-27T01:52:17-03:00*%
%TF.ProjectId,board,626f6172-642e-46b6-9963-61645f706362,rev?*%
%TF.SameCoordinates,Original*%
%TF.FileFunction,Copper,L4,Bot*%
%TF.FilePolarity,Positive*%
%FSLAX46Y46*%
G04 Gerber Fmt 4.6, Leading zero omitted, Abs format (unit mm)*
G04 Created by KiCad (PCBNEW 9.0.1) date 2025-07-27 01:52:17*
%MOMM*%
%LPD*%
G01*
G04 APERTURE LIST*
%TA.AperFunction,ComponentPad*%
%ADD10C,1.620000*%
%TD*%
%TA.AperFunction,ComponentPad*%
%ADD11R,1.700000X1.700000*%
%TD*%
%TA.AperFunction,ComponentPad*%
%ADD12C,1.700000*%
%TD*%
%TA.AperFunction,ComponentPad*%
%ADD13R,1.600000X1.600000*%
%TD*%
%TA.AperFunction,ComponentPad*%
%ADD14C,1.600000*%
%TD*%
%TA.AperFunction,ComponentPad*%
%ADD15C,2.000000*%
%TD*%
%TA.AperFunction,ViaPad*%
%ADD16C,0.600000*%
%TD*%
%TA.AperFunction,ViaPad*%
%ADD17C,0.700000*%
%TD*%
%TA.AperFunction,Conductor*%
%ADD18C,0.300000*%
%TD*%
%TA.AperFunction,Conductor*%
%ADD19C,0.200000*%
%TD*%
G04 APERTURE END LIST*
D10*
%TO.P,RV1,1,1*%
%TO.N,5V*%
X110993000Y-42271000D03*
%TO.P,RV1,2,2*%
X105993000Y-44771000D03*
%TO.P,RV1,3,3*%
%TO.N,Net-(U2-DIS)*%
X110993000Y-47271000D03*
%TD*%
D11*
%TO.P,J1,1,Pin_1*%
%TO.N,Net-(J1-Pin_1)*%
X115234400Y-76835400D03*
D12*
%TO.P,J1,2,Pin_2*%
%TO.N,Net-(J1-Pin_2)*%
X117774400Y-76835400D03*
%TD*%
D13*
%TO.P,BZ1,1,+*%
%TO.N,5V*%
X69000000Y-68500000D03*
D14*
%TO.P,BZ1,2,-*%
%TO.N,Net-(BZ1--)*%
X73000000Y-68500000D03*
%TD*%
D15*
%TO.P,SW1,1,A*%
%TO.N,5V*%
X69038400Y-21778400D03*
X75538400Y-21778400D03*
%TO.P,SW1,2,B*%
%TO.N,Net-(SW1-B)*%
X69038400Y-26278400D03*
X75538400Y-26278400D03*
%TD*%
%TO.P,SW4,1,A*%
%TO.N,RESET*%
X111352400Y-94299600D03*
X104852400Y-94299600D03*
%TO.P,SW4,2,B*%
%TO.N,GND*%
X111352400Y-89799600D03*
X104852400Y-89799600D03*
%TD*%
D10*
%TO.P,RV2,1,1*%
%TO.N,5V*%
X110953000Y-83881600D03*
%TO.P,RV2,2,2*%
X108453000Y-78881600D03*
%TO.P,RV2,3,3*%
%TO.N,Net-(U5-DIS)*%
X105953000Y-83881600D03*
%TD*%
D15*
%TO.P,SW2,1,A*%
%TO.N,5V*%
X30481200Y-89748800D03*
X36981200Y-89748800D03*
%TO.P,SW2,2,B*%
%TO.N,Net-(SW1-B)*%
X30481200Y-94248800D03*
X36981200Y-94248800D03*
%TD*%
D16*
%TO.N,Net-(BZ1--)*%
X97020000Y-66710000D03*
%TO.N,GND*%
X112594649Y-63019698D03*
%TO.N,DT+*%
X99532778Y-63856419D03*
%TO.N,Net-(SW1-B)*%
X114300000Y-60553600D03*
X69900800Y-30480000D03*
X74625200Y-30480000D03*
X32918400Y-87376000D03*
X34645600Y-87376000D03*
%TO.N,5V*%
X36322000Y-86106000D03*
X96621600Y-73456800D03*
X108204000Y-52628800D03*
X110871000Y-72161400D03*
X98910006Y-64274341D03*
X99070000Y-67410000D03*
X103682800Y-80924400D03*
X110605393Y-63434607D03*
X73609200Y-63398400D03*
X94030800Y-60858400D03*
X108254800Y-54000400D03*
D17*
X111353600Y-69748400D03*
D16*
X30988000Y-86207600D03*
X96672400Y-71831200D03*
X71272400Y-29057600D03*
X79044800Y-48412400D03*
X81584800Y-60909200D03*
X80670400Y-48717200D03*
X108051600Y-75234800D03*
X93014800Y-60096400D03*
X91795600Y-60655200D03*
X83362800Y-49834800D03*
X73660000Y-29057600D03*
X103530400Y-88087200D03*
X111514254Y-62151436D03*
X103225600Y-46075600D03*
%TO.N,GND*%
X93878400Y-65328800D03*
D17*
X112442800Y-66520000D03*
D16*
X86004400Y-60909200D03*
X96672400Y-67767200D03*
X108254800Y-59842400D03*
X108458000Y-51409600D03*
X100380800Y-72136000D03*
X101396800Y-49072800D03*
X74523600Y-48412400D03*
X100126800Y-71526400D03*
X87274400Y-60350400D03*
X100448520Y-66458480D03*
X110439200Y-87376000D03*
X96164400Y-66497200D03*
X91338400Y-77470000D03*
X96520000Y-74777600D03*
X111224999Y-64565223D03*
X113588800Y-48209200D03*
X100430000Y-69320000D03*
X94132400Y-48412400D03*
X98755200Y-60858400D03*
X110794800Y-68834000D03*
X99756734Y-63140635D03*
X105968800Y-87325200D03*
X113030000Y-75234800D03*
X73507600Y-60248800D03*
X99724449Y-65443502D03*
X108254800Y-58013600D03*
X87884000Y-56337200D03*
X99314000Y-71475600D03*
%TO.N,CLOCK*%
X112318800Y-60401200D03*
X91490800Y-51104800D03*
%TO.N,Net-(U5-DIS)*%
X93878400Y-78486000D03*
X104495600Y-82905600D03*
%TO.N,ALARM*%
X72999600Y-49022000D03*
X90779600Y-65379600D03*
X99216092Y-66458465D03*
%TO.N,DT+*%
X111761207Y-62964075D03*
%TO.N,Net-(J1-Pin_2)*%
X111810800Y-71729600D03*
X116840000Y-74269600D03*
%TO.N,DT-*%
X111575000Y-63840000D03*
X99532778Y-64706419D03*
%TO.N,Net-(J1-Pin_1)*%
X111506000Y-73050400D03*
X115849400Y-74396600D03*
%TO.N,Net-(BZ1--)*%
X74676000Y-64160400D03*
%TO.N,RESET*%
X80568800Y-55676800D03*
X109118400Y-87884000D03*
X98196400Y-74523600D03*
X97907000Y-65213000D03*
X107746800Y-87884000D03*
X103530400Y-83769200D03*
X92354400Y-52171600D03*
%TD*%
D18*
%TO.N,Net-(SW1-B)*%
X114300000Y-60553600D02*
X115214400Y-59639200D01*
X31038800Y-87376000D02*
X32918400Y-87376000D01*
X69900800Y-30480000D02*
X55372000Y-30480000D01*
X28905200Y-85242400D02*
X31038800Y-87376000D01*
X34645600Y-87376000D02*
X32918400Y-87376000D01*
X107091200Y-47960000D02*
X97794800Y-47960000D01*
X74625200Y-30480000D02*
X69900800Y-30480000D01*
X115214400Y-56083200D02*
X107091200Y-47960000D01*
X28905200Y-56946800D02*
X28905200Y-85242400D01*
X55372000Y-30480000D02*
X28905200Y-56946800D01*
X80314800Y-30480000D02*
X74625200Y-30480000D01*
X97794800Y-47960000D02*
X80314800Y-30480000D01*
X115214400Y-59639200D02*
X115214400Y-56083200D01*
%TO.N,CLOCK*%
X110236000Y-57556000D02*
X105512000Y-52832000D01*
X91287600Y-51104800D02*
X91490800Y-51104800D01*
X98044000Y-52832000D02*
X95148400Y-49936400D01*
X91338400Y-49936400D02*
X90728800Y-50546000D01*
X111556800Y-61163200D02*
X110998000Y-61163200D01*
X95148400Y-49936400D02*
X91338400Y-49936400D01*
X112318800Y-60401200D02*
X111556800Y-61163200D01*
X110998000Y-61163200D02*
X110236000Y-60401200D01*
X105512000Y-52832000D02*
X98044000Y-52832000D01*
X110236000Y-60401200D02*
X110236000Y-57556000D01*
X90728800Y-50546000D02*
X91287600Y-51104800D01*
%TO.N,Net-(U5-DIS)*%
X103987600Y-82499200D02*
X104394000Y-82905600D01*
X97891600Y-82499200D02*
X103987600Y-82499200D01*
X104394000Y-82905600D02*
X104495600Y-82905600D01*
X93878400Y-78486000D02*
X97891600Y-82499200D01*
%TO.N,ALARM*%
X97938465Y-66458465D02*
X93557600Y-62077600D01*
X93557600Y-62077600D02*
X89662000Y-62077600D01*
X90779600Y-65379600D02*
X90779600Y-63195200D01*
X90779600Y-63195200D02*
X89662000Y-62077600D01*
X99216092Y-66458465D02*
X97938465Y-66458465D01*
X73740000Y-47400000D02*
X72999600Y-48140400D01*
X75230000Y-47400000D02*
X73740000Y-47400000D01*
X72999600Y-48140400D02*
X72999600Y-49022000D01*
X79502000Y-62077600D02*
X77216000Y-59791600D01*
X77216000Y-59791600D02*
X77216000Y-49386000D01*
X77216000Y-49386000D02*
X75230000Y-47400000D01*
X89662000Y-62077600D02*
X79502000Y-62077600D01*
%TO.N,Net-(J1-Pin_2)*%
X111810800Y-71729600D02*
X113131600Y-73050400D01*
X115620800Y-73050400D02*
X116840000Y-74269600D01*
X113131600Y-73050400D02*
X115620800Y-73050400D01*
D19*
%TO.N,DT-*%
X99732777Y-64506420D02*
X100181778Y-64506420D01*
X102223198Y-62465000D02*
X110413604Y-62465000D01*
X99532778Y-64706419D02*
X99732777Y-64506420D01*
X100181778Y-64506420D02*
X102223198Y-62465000D01*
X110413604Y-62465000D02*
X111575000Y-63626397D01*
X111575000Y-63626397D02*
X111575000Y-63840000D01*
D18*
%TO.N,Net-(J1-Pin_1)*%
X115519200Y-74066400D02*
X115849400Y-74396600D01*
X112522000Y-74066400D02*
X113741200Y-74066400D01*
X111506000Y-73050400D02*
X112522000Y-74066400D01*
X113741200Y-74066400D02*
X115519200Y-74066400D01*
%TO.N,RESET*%
X92659200Y-77317600D02*
X92659200Y-79349600D01*
X87274400Y-52171600D02*
X91135200Y-52171600D01*
X109118400Y-87884000D02*
X107746800Y-87884000D01*
X98196400Y-74523600D02*
X98196400Y-75113600D01*
X97078800Y-83769200D02*
X103530400Y-83769200D01*
X91135200Y-52171600D02*
X92354400Y-52171600D01*
X91135200Y-54762400D02*
X91135200Y-52171600D01*
X94990000Y-62296000D02*
X94990000Y-58617200D01*
X103632000Y-83769200D02*
X103530400Y-83769200D01*
X98196400Y-75113600D02*
X97380000Y-75930000D01*
X94990000Y-58617200D02*
X91135200Y-54762400D01*
X107746800Y-87884000D02*
X103632000Y-83769200D01*
X94046800Y-75930000D02*
X92659200Y-77317600D01*
X92659200Y-79349600D02*
X97078800Y-83769200D01*
X97380000Y-75930000D02*
X94046800Y-75930000D01*
X80568800Y-55676800D02*
X83769200Y-55676800D01*
X83769200Y-55676800D02*
X87274400Y-52171600D01*
X97907000Y-65213000D02*
X94990000Y-62296000D01*
D19*
%TO.N,DT+*%
X111549075Y-62964075D02*
X111761207Y-62964075D01*
X102036802Y-62015000D02*
X110600000Y-62015000D01*
X99995384Y-64056418D02*
X102036802Y-62015000D01*
X99732777Y-64056418D02*
X99995384Y-64056418D01*
X99532778Y-63856419D02*
X99732777Y-64056418D01*
X110600000Y-62015000D02*
X111549075Y-62964075D01*
D18*
%TO.N,Net-(BZ1--)*%
X84683600Y-64160400D02*
X74676000Y-64160400D01*
X89703200Y-69180000D02*
X84683600Y-64160400D01*
X97470000Y-69040000D02*
X97330000Y-69180000D01*
X97020000Y-66710000D02*
X97470000Y-67160000D01*
X97470000Y-67160000D02*
X97470000Y-69040000D01*
X97330000Y-69180000D02*
X89703200Y-69180000D01*
%TD*%
M02*
