%TF.GenerationSoftware,KiCad,Pcbnew,9.0.1*%
%TF.CreationDate,2025-07-27T01:52:17-03:00*%
%TF.ProjectId,board,626f6172-642e-46b6-9963-61645f706362,rev?*%
%TF.SameCoordinates,Original*%
%TF.FileFunction,Legend,Top*%
%TF.FilePolarity,Positive*%
%FSLAX46Y46*%
G04 Gerber Fmt 4.6, Leading zero omitted, Abs format (unit mm)*
G04 Created by KiCad (PCBNEW 9.0.1) date 2025-07-27 01:52:17*
%MOMM*%
%LPD*%
G01*
G04 APERTURE LIST*
%ADD10C,0.150000*%
%ADD11C,0.200000*%
%ADD12C,0.120000*%
G04 APERTURE END LIST*
D10*
X120650000Y-61912500D02*
X120620000Y-61912343D01*
X120020009Y-61909193D02*
X119990009Y-61909035D01*
X119390017Y-61905886D02*
X119360018Y-61905728D01*
X118760026Y-61902579D02*
X118730026Y-61902421D01*
X118130035Y-61899272D02*
X118100035Y-61899114D01*
X117500043Y-61895965D02*
X117470044Y-61895807D01*
X116870052Y-61892658D02*
X116840052Y-61892500D01*
X116240061Y-61889351D02*
X116210061Y-61889193D01*
X115610069Y-61886044D02*
X115580070Y-61885886D01*
X114980078Y-61882737D02*
X114950079Y-61882579D01*
X114350087Y-61879430D02*
X114320087Y-61879272D01*
X113720095Y-61876123D02*
X113690096Y-61875965D01*
X113090104Y-61872816D02*
X113060105Y-61872658D01*
X112460113Y-61869508D02*
X112430113Y-61869351D01*
X111830122Y-61866201D02*
X111800122Y-61866044D01*
X111200130Y-61862894D02*
X111170131Y-61862737D01*
X110570139Y-61859587D02*
X110540139Y-61859430D01*
X109940148Y-61856280D02*
X109910148Y-61856123D01*
X109310156Y-61852973D02*
X109280157Y-61852816D01*
X108680165Y-61849666D02*
X108650165Y-61849509D01*
X108050174Y-61846359D02*
X108020174Y-61846202D01*
X107420182Y-61843052D02*
X107390183Y-61842895D01*
X106790191Y-61839745D02*
X106760191Y-61839588D01*
X106160200Y-61836438D02*
X106130200Y-61836281D01*
X105530208Y-61833131D02*
X105500209Y-61832974D01*
X104900217Y-61829824D02*
X104870217Y-61829666D01*
X104270226Y-61826517D02*
X104240226Y-61826359D01*
X103640234Y-61823210D02*
X103610235Y-61823052D01*
X103010243Y-61819903D02*
X102980243Y-61819745D01*
X102380252Y-61816596D02*
X102350252Y-61816438D01*
X101750260Y-61813289D02*
X101720261Y-61813131D01*
X101120269Y-61809982D02*
X101090269Y-61809824D01*
X100490278Y-61806675D02*
X100460278Y-61806517D01*
X99860286Y-61803368D02*
X99830287Y-61803210D01*
X99230295Y-61800061D02*
X99200296Y-61799903D01*
X98600304Y-61796754D02*
X98570304Y-61796596D01*
X97970312Y-61793447D02*
X97940313Y-61793289D01*
X97340321Y-61790139D02*
X97310322Y-61789982D01*
X96710330Y-61786832D02*
X96680330Y-61786675D01*
X96080339Y-61783525D02*
X96050339Y-61783368D01*
X95450347Y-61780218D02*
X95420348Y-61780061D01*
X94820356Y-61776911D02*
X94790356Y-61776754D01*
X94190365Y-61773604D02*
X94160365Y-61773447D01*
X93560373Y-61770297D02*
X93530374Y-61770140D01*
X92930382Y-61766990D02*
X92900382Y-61766833D01*
X92300391Y-61763683D02*
X92270391Y-61763526D01*
X91670399Y-61760376D02*
X91640400Y-61760219D01*
X91040408Y-61757069D02*
X91010408Y-61756912D01*
X90410417Y-61753762D02*
X90380417Y-61753605D01*
X89780425Y-61750455D02*
X89750426Y-61750298D01*
X89150434Y-61747148D02*
X89120434Y-61746990D01*
X88520443Y-61743841D02*
X88490443Y-61743683D01*
X87890451Y-61740534D02*
X87860452Y-61740376D01*
X87260460Y-61737227D02*
X87230460Y-61737069D01*
X86630469Y-61733920D02*
X86600469Y-61733762D01*
X86000477Y-61730613D02*
X85970478Y-61730455D01*
X85370486Y-61727306D02*
X85340486Y-61727148D01*
X84740495Y-61723999D02*
X84710495Y-61723841D01*
X84110503Y-61720692D02*
X84080504Y-61720534D01*
X83480512Y-61717385D02*
X83450513Y-61717227D01*
X82850521Y-61714078D02*
X82820521Y-61713920D01*
X82220529Y-61710770D02*
X82190530Y-61710613D01*
X81590538Y-61707463D02*
X81560539Y-61707306D01*
X80960547Y-61704156D02*
X80930547Y-61703999D01*
X80330556Y-61700849D02*
X80300556Y-61700692D01*
X79700564Y-61697542D02*
X79670565Y-61697385D01*
X79070573Y-61694235D02*
X79040573Y-61694078D01*
X78440582Y-61690928D02*
X78410582Y-61690771D01*
X77810590Y-61687621D02*
X77780591Y-61687464D01*
X77180599Y-61684314D02*
X77150599Y-61684157D01*
X76550608Y-61681007D02*
X76520608Y-61680850D01*
X75920616Y-61677700D02*
X75890617Y-61677543D01*
X75290625Y-61674393D02*
X75260625Y-61674236D01*
X74660634Y-61671086D02*
X74630634Y-61670929D01*
X74030642Y-61667779D02*
X74000643Y-61667621D01*
X73400651Y-61664472D02*
X73370651Y-61664314D01*
X72770660Y-61661165D02*
X72740660Y-61661007D01*
X120650000Y-62166500D02*
X119000005Y-62162386D01*
X118400007Y-62160890D02*
X116750012Y-62156777D01*
X116150014Y-62155281D02*
X114500019Y-62151167D01*
X113900021Y-62149671D02*
X112250026Y-62145557D01*
X111650028Y-62144061D02*
X110000033Y-62139948D01*
X109400035Y-62138452D02*
X107750040Y-62134338D01*
X107150042Y-62132842D02*
X105500047Y-62128728D01*
X104900049Y-62127232D02*
X103250054Y-62123118D01*
X102650056Y-62121623D02*
X101000061Y-62117509D01*
X100400063Y-62116013D02*
X98750068Y-62111899D01*
X98150070Y-62110403D02*
X96500075Y-62106289D01*
X95900077Y-62104794D02*
X94250082Y-62100680D01*
X93650084Y-62099184D02*
X92000089Y-62095070D01*
X91400091Y-62093574D02*
X89750096Y-62089460D01*
X89150098Y-62087964D02*
X87500103Y-62083851D01*
X86900105Y-62082355D02*
X85250110Y-62078241D01*
X84650112Y-62076745D02*
X83000117Y-62072631D01*
X82400119Y-62071135D02*
X80750124Y-62067022D01*
X80150126Y-62065526D02*
X78500131Y-62061412D01*
X77900133Y-62059916D02*
X76250138Y-62055802D01*
X75650140Y-62054306D02*
X74000145Y-62050193D01*
X73400147Y-62048697D02*
X71983214Y-62045165D01*
X98602307Y-77990376D02*
X96952309Y-77987749D01*
X96352310Y-77986793D02*
X94702312Y-77984166D01*
X94102313Y-77983210D02*
X92452315Y-77980583D01*
X91852316Y-77979628D02*
X90202318Y-77977000D01*
X89602318Y-77976045D02*
X88544387Y-77974360D01*
X116205000Y-47371000D02*
X114555007Y-47366259D01*
X113955009Y-47364535D02*
X112305016Y-47359793D01*
X111705019Y-47358069D02*
X110055025Y-47353328D01*
X109455028Y-47351604D02*
X107805035Y-47346862D01*
X107205037Y-47345138D02*
X105555044Y-47340397D01*
X104955046Y-47338673D02*
X103305053Y-47333931D01*
X102705056Y-47332207D02*
X101055063Y-47327466D01*
X100455065Y-47325742D02*
X98805072Y-47321000D01*
X98205074Y-47319276D02*
X96555081Y-47314535D01*
X95955084Y-47312811D02*
X94305090Y-47308069D01*
X93705093Y-47306345D02*
X92055100Y-47301604D01*
X91455102Y-47299880D02*
X89805109Y-47295138D01*
X89205111Y-47293414D02*
X87555118Y-47288673D01*
X86955121Y-47286949D02*
X85305128Y-47282207D01*
X84705130Y-47280483D02*
X83055137Y-47275742D01*
X82455139Y-47274018D02*
X80805146Y-47269276D01*
X80205149Y-47267552D02*
X78555155Y-47262811D01*
X77955158Y-47261087D02*
X76305165Y-47256345D01*
X75705167Y-47254621D02*
X74055174Y-47249880D01*
X73455177Y-47248156D02*
X72009084Y-47244000D01*
X72263000Y-61658500D02*
X72263000Y-61628500D01*
X72263000Y-61028500D02*
X72263000Y-60998500D01*
X72263000Y-60398500D02*
X72263000Y-60368500D01*
X72263000Y-59768500D02*
X72263000Y-59738500D01*
X72263000Y-59138500D02*
X72263000Y-59108500D01*
X72263000Y-58508500D02*
X72263000Y-58478500D01*
X72263000Y-57878500D02*
X72263000Y-57848500D01*
X72263000Y-57248500D02*
X72263000Y-57218500D01*
X72263000Y-56618500D02*
X72263000Y-56588500D01*
X72263000Y-55988500D02*
X72263000Y-55958500D01*
X72263000Y-55358500D02*
X72263000Y-55328500D01*
X72263000Y-54728500D02*
X72263000Y-54698500D01*
X72263000Y-54098500D02*
X72263000Y-54068500D01*
X72263000Y-53468500D02*
X72263000Y-53438500D01*
X72263000Y-52838500D02*
X72263000Y-52808500D01*
X72263000Y-52208500D02*
X72263000Y-52178500D01*
X72263000Y-51578500D02*
X72263000Y-51548500D01*
X72263000Y-50948500D02*
X72263000Y-50918500D01*
X72263000Y-50318500D02*
X72263000Y-50288500D01*
X72263000Y-49688500D02*
X72263000Y-49658500D01*
X72263000Y-49058500D02*
X72263000Y-49028500D01*
X72263000Y-48428500D02*
X72263000Y-48398500D01*
X72263000Y-47798500D02*
X72263000Y-47768500D01*
X88950800Y-77622400D02*
X88950800Y-77592400D01*
X88950800Y-76992400D02*
X88950800Y-76962400D01*
X88950800Y-76362400D02*
X88950800Y-76332400D01*
X88950800Y-75732400D02*
X88950800Y-75702400D01*
X88950800Y-75102400D02*
X88950800Y-75072400D01*
X88950800Y-74472400D02*
X88950800Y-74442400D01*
X88950800Y-73842400D02*
X88950800Y-73812400D01*
X88950800Y-73212400D02*
X88950800Y-73182400D01*
X88950800Y-72582400D02*
X88950800Y-72552400D01*
X88950800Y-71952400D02*
X88950800Y-71922400D01*
X88950800Y-71322400D02*
X88950800Y-71292400D01*
X88950800Y-70692400D02*
X88950800Y-70662400D01*
X88950800Y-70062400D02*
X88950800Y-70032400D01*
X88950800Y-69432400D02*
X88950800Y-69402400D01*
X88950800Y-68802400D02*
X88950800Y-68772400D01*
X88950800Y-68172400D02*
X88950800Y-68142400D01*
X88950800Y-67542400D02*
X88950800Y-67512400D01*
X88950800Y-66912400D02*
X88950800Y-66882400D01*
X88950800Y-66282400D02*
X88950800Y-66252400D01*
X88950800Y-65652400D02*
X88950800Y-65622400D01*
X88950800Y-65022400D02*
X88950800Y-64992400D01*
X88950800Y-64392400D02*
X88950800Y-64362400D01*
X88950800Y-63762400D02*
X88950800Y-63732400D01*
X88950800Y-63132400D02*
X88950800Y-63102400D01*
X88950800Y-62502400D02*
X88950800Y-62472400D01*
X116840000Y-61976000D02*
X116840000Y-60326000D01*
X116840000Y-59726000D02*
X116840000Y-58076000D01*
X116840000Y-57476000D02*
X116840000Y-55826000D01*
X116840000Y-55226000D02*
X116840000Y-53576000D01*
X116840000Y-52976000D02*
X116840000Y-51326000D01*
X116840000Y-50726000D02*
X116840000Y-49076000D01*
X116840000Y-48476000D02*
X116840000Y-48387000D01*
X113792000Y-76708000D02*
X112142001Y-76706225D01*
X111542001Y-76705580D02*
X109892002Y-76703805D01*
X109292003Y-76703159D02*
X107642004Y-76701384D01*
X107042004Y-76700739D02*
X105392005Y-76698964D01*
X104792005Y-76698318D02*
X103142006Y-76696543D01*
X102542007Y-76695898D02*
X100892007Y-76694123D01*
X100292008Y-76693477D02*
X98642009Y-76691702D01*
X98298000Y-77622400D02*
X98298000Y-77592400D01*
X98298000Y-76992400D02*
X98298000Y-76962400D01*
X98298000Y-76362400D02*
X98298000Y-76332400D01*
X98298000Y-75732400D02*
X98298000Y-75702400D01*
X98298000Y-75102400D02*
X98298000Y-75072400D01*
X98298000Y-74472400D02*
X98298000Y-74442400D01*
X98298000Y-73842400D02*
X98298000Y-73812400D01*
X98298000Y-73212400D02*
X98298000Y-73182400D01*
X98298000Y-72582400D02*
X98298000Y-72552400D01*
X98298000Y-71952400D02*
X98298000Y-71922400D01*
X98298000Y-71322400D02*
X98298000Y-71292400D01*
X98298000Y-70692400D02*
X98298000Y-70662400D01*
X98298000Y-70062400D02*
X98298000Y-70032400D01*
X98298000Y-69432400D02*
X98298000Y-69402400D01*
X98298000Y-68802400D02*
X98298000Y-68772400D01*
X98298000Y-68172400D02*
X98298000Y-68142400D01*
X98298000Y-67542400D02*
X98298000Y-67512400D01*
X98298000Y-66912400D02*
X98298000Y-66882400D01*
X98298000Y-66282400D02*
X98298000Y-66252400D01*
X98298000Y-65652400D02*
X98298000Y-65622400D01*
X98298000Y-65022400D02*
X98298000Y-64992400D01*
X98298000Y-64392400D02*
X98298000Y-64362400D01*
X98298000Y-63762400D02*
X98298000Y-63732400D01*
X98298000Y-63132400D02*
X98298000Y-63102400D01*
X98298000Y-62502400D02*
X98298000Y-62472400D01*
X88569800Y-62128400D02*
X88567139Y-63778398D01*
X88566171Y-64378397D02*
X88563510Y-66028395D01*
X88562542Y-66628394D02*
X88559881Y-68278392D01*
X88558913Y-68878391D02*
X88556252Y-70528389D01*
X88555284Y-71128388D02*
X88552623Y-72778386D01*
X88551655Y-73378385D02*
X88548994Y-75028383D01*
X88548026Y-75628382D02*
X88545365Y-77278380D01*
X113741200Y-76352400D02*
X113711200Y-76352400D01*
X113111200Y-76352400D02*
X113081200Y-76352400D01*
X112481200Y-76352400D02*
X112451200Y-76352400D01*
X111851200Y-76352400D02*
X111821200Y-76352400D01*
X111221200Y-76352400D02*
X111191200Y-76352400D01*
X110591200Y-76352400D02*
X110561200Y-76352400D01*
X109961200Y-76352400D02*
X109931200Y-76352400D01*
X109331200Y-76352400D02*
X109301200Y-76352400D01*
X108701200Y-76352400D02*
X108671200Y-76352400D01*
X108071200Y-76352400D02*
X108041200Y-76352400D01*
X107441200Y-76352400D02*
X107411200Y-76352400D01*
X106811200Y-76352400D02*
X106781200Y-76352400D01*
X106181200Y-76352400D02*
X106151200Y-76352400D01*
X105551200Y-76352400D02*
X105521200Y-76352400D01*
X104921200Y-76352400D02*
X104891200Y-76352400D01*
X104291200Y-76352400D02*
X104261200Y-76352400D01*
X103661200Y-76352400D02*
X103631200Y-76352400D01*
X103031200Y-76352400D02*
X103001200Y-76352400D01*
X102401200Y-76352400D02*
X102371200Y-76352400D01*
X101771200Y-76352400D02*
X101741200Y-76352400D01*
X101141200Y-76352400D02*
X101111200Y-76352400D01*
X100511200Y-76352400D02*
X100481200Y-76352400D01*
X99881200Y-76352400D02*
X99851200Y-76352400D01*
X99251200Y-76352400D02*
X99221200Y-76352400D01*
X98621200Y-76352400D02*
X98591200Y-76352400D01*
X88950800Y-77622400D02*
X88980800Y-77622560D01*
X89580791Y-77625769D02*
X89610791Y-77625929D01*
X90210782Y-77629138D02*
X90240782Y-77629298D01*
X90840773Y-77632507D02*
X90870773Y-77632667D01*
X91470764Y-77635876D02*
X91500764Y-77636036D01*
X92100755Y-77639245D02*
X92130755Y-77639405D01*
X92730746Y-77642614D02*
X92760746Y-77642774D01*
X93360737Y-77645983D02*
X93390737Y-77646143D01*
X93990728Y-77649351D02*
X94020728Y-77649512D01*
X94620719Y-77652720D02*
X94650719Y-77652881D01*
X95250710Y-77656089D02*
X95280709Y-77656250D01*
X95880701Y-77659458D02*
X95910700Y-77659619D01*
X96510692Y-77662827D02*
X96540691Y-77662988D01*
X97140683Y-77666196D02*
X97170682Y-77666357D01*
X97770674Y-77669565D02*
X97800673Y-77669726D01*
X116332000Y-47625000D02*
X116302000Y-47624914D01*
X115702003Y-47623184D02*
X115672003Y-47623098D01*
X115072005Y-47621369D02*
X115042005Y-47621282D01*
X114442008Y-47619553D02*
X114412008Y-47619467D01*
X113812010Y-47617738D02*
X113782011Y-47617651D01*
X113182013Y-47615922D02*
X113152013Y-47615836D01*
X112552016Y-47614107D02*
X112522016Y-47614020D01*
X111922018Y-47612291D02*
X111892018Y-47612205D01*
X111292021Y-47610476D02*
X111262021Y-47610389D01*
X110662024Y-47608660D02*
X110632024Y-47608574D01*
X110032026Y-47606844D02*
X110002026Y-47606758D01*
X109402029Y-47605029D02*
X109372029Y-47604942D01*
X108772031Y-47603213D02*
X108742032Y-47603127D01*
X108142034Y-47601398D02*
X108112034Y-47601311D01*
X107512037Y-47599582D02*
X107482037Y-47599496D01*
X106882039Y-47597767D02*
X106852039Y-47597680D01*
X106252042Y-47595951D02*
X106222042Y-47595865D01*
X105622044Y-47594136D02*
X105592045Y-47594049D01*
X104992047Y-47592320D02*
X104962047Y-47592234D01*
X104362050Y-47590504D02*
X104332050Y-47590418D01*
X103732052Y-47588689D02*
X103702052Y-47588602D01*
X103102055Y-47586873D02*
X103072055Y-47586787D01*
X102472058Y-47585058D02*
X102442058Y-47584971D01*
X101842060Y-47583242D02*
X101812060Y-47583156D01*
X101212063Y-47581427D02*
X101182063Y-47581340D01*
X100582065Y-47579611D02*
X100552066Y-47579525D01*
X99952068Y-47577796D02*
X99922068Y-47577709D01*
X99322071Y-47575980D02*
X99292071Y-47575894D01*
X98692073Y-47574164D02*
X98662073Y-47574078D01*
X98062076Y-47572349D02*
X98032076Y-47572262D01*
X97432078Y-47570533D02*
X97402079Y-47570447D01*
X96802081Y-47568718D02*
X96772081Y-47568631D01*
X96172084Y-47566902D02*
X96142084Y-47566816D01*
X95542086Y-47565087D02*
X95512086Y-47565000D01*
X94912089Y-47563271D02*
X94882089Y-47563185D01*
X94282092Y-47561456D02*
X94252092Y-47561369D01*
X93652094Y-47559640D02*
X93622094Y-47559554D01*
X93022097Y-47557824D02*
X92992097Y-47557738D01*
X92392099Y-47556009D02*
X92362100Y-47555922D01*
X91762102Y-47554193D02*
X91732102Y-47554107D01*
X91132105Y-47552378D02*
X91102105Y-47552291D01*
X90502107Y-47550562D02*
X90472107Y-47550476D01*
X89872110Y-47548747D02*
X89842110Y-47548660D01*
X89242112Y-47546931D02*
X89212113Y-47546845D01*
X88612115Y-47545116D02*
X88582115Y-47545029D01*
X87982118Y-47543300D02*
X87952118Y-47543214D01*
X87352120Y-47541484D02*
X87322120Y-47541398D01*
X86722123Y-47539669D02*
X86692123Y-47539582D01*
X86092126Y-47537853D02*
X86062126Y-47537767D01*
X85462128Y-47536038D02*
X85432128Y-47535951D01*
X84832131Y-47534222D02*
X84802131Y-47534136D01*
X84202133Y-47532407D02*
X84172134Y-47532320D01*
X83572136Y-47530591D02*
X83542136Y-47530505D01*
X82942139Y-47528776D02*
X82912139Y-47528689D01*
X82312141Y-47526960D02*
X82282141Y-47526874D01*
X81682144Y-47525145D02*
X81652144Y-47525058D01*
X81052146Y-47523329D02*
X81022147Y-47523242D01*
X80422149Y-47521513D02*
X80392149Y-47521427D01*
X79792152Y-47519698D02*
X79762152Y-47519611D01*
X79162154Y-47517882D02*
X79132154Y-47517796D01*
X78532157Y-47516067D02*
X78502157Y-47515980D01*
X77902160Y-47514251D02*
X77872160Y-47514165D01*
X77272162Y-47512436D02*
X77242162Y-47512349D01*
X76642165Y-47510620D02*
X76612165Y-47510534D01*
X76012167Y-47508805D02*
X75982168Y-47508718D01*
X75382170Y-47506989D02*
X75352170Y-47506903D01*
X74752173Y-47505173D02*
X74722173Y-47505087D01*
X74122175Y-47503358D02*
X74092175Y-47503271D01*
X73492178Y-47501542D02*
X73462178Y-47501456D01*
X72862181Y-47499727D02*
X72832181Y-47499640D01*
X120650000Y-62420500D02*
X120620000Y-62420464D01*
X120020000Y-62419744D02*
X119990000Y-62419708D01*
X119390001Y-62418988D02*
X119360001Y-62418952D01*
X118760001Y-62418232D02*
X118730001Y-62418196D01*
X118130002Y-62417476D02*
X118100002Y-62417440D01*
X117500002Y-62416720D02*
X117470002Y-62416684D01*
X116870003Y-62415964D02*
X116840003Y-62415928D01*
X116240003Y-62415208D02*
X116210003Y-62415172D01*
X115610004Y-62414452D02*
X115580004Y-62414416D01*
X114980004Y-62413696D02*
X114950004Y-62413660D01*
X114350005Y-62412940D02*
X114320005Y-62412904D01*
X113720005Y-62412184D02*
X113690005Y-62412148D01*
X113090005Y-62411428D02*
X113060005Y-62411392D01*
X112460006Y-62410672D02*
X112430006Y-62410636D01*
X111830006Y-62409916D02*
X111800006Y-62409880D01*
X111200007Y-62409160D02*
X111170007Y-62409124D01*
X110570007Y-62408404D02*
X110540007Y-62408368D01*
X109940008Y-62407648D02*
X109910008Y-62407612D01*
X109310008Y-62406892D02*
X109280008Y-62406856D01*
X108680009Y-62406136D02*
X108650009Y-62406100D01*
X108050009Y-62405380D02*
X108020009Y-62405344D01*
X107420010Y-62404624D02*
X107390010Y-62404588D01*
X106790010Y-62403868D02*
X106760010Y-62403832D01*
X106160010Y-62403112D02*
X106130010Y-62403076D01*
X105530011Y-62402356D02*
X105500011Y-62402320D01*
X104900011Y-62401600D02*
X104870011Y-62401564D01*
X104270012Y-62400844D02*
X104240012Y-62400808D01*
X103640012Y-62400088D02*
X103610012Y-62400052D01*
X103010013Y-62399332D02*
X102980013Y-62399296D01*
X102380013Y-62398576D02*
X102350013Y-62398540D01*
X101750014Y-62397820D02*
X101720014Y-62397784D01*
X101120014Y-62397064D02*
X101090014Y-62397028D01*
X100490015Y-62396308D02*
X100460015Y-62396272D01*
X99860015Y-62395552D02*
X99830015Y-62395516D01*
X99230015Y-62394796D02*
X99200015Y-62394760D01*
X98600016Y-62394040D02*
X98570016Y-62394004D01*
X97970016Y-62393284D02*
X97940016Y-62393248D01*
X97340017Y-62392528D02*
X97310017Y-62392492D01*
X96710017Y-62391772D02*
X96680017Y-62391736D01*
X96080018Y-62391016D02*
X96050018Y-62390980D01*
X95450018Y-62390260D02*
X95420018Y-62390224D01*
X94820019Y-62389504D02*
X94790019Y-62389468D01*
X94190019Y-62388748D02*
X94160019Y-62388712D01*
X93560020Y-62387992D02*
X93530020Y-62387956D01*
X92930020Y-62387236D02*
X92900020Y-62387200D01*
X92300020Y-62386480D02*
X92270020Y-62386444D01*
X91670021Y-62385724D02*
X91640021Y-62385688D01*
X91040021Y-62384968D02*
X91010021Y-62384932D01*
X90410022Y-62384212D02*
X90380022Y-62384176D01*
X89780022Y-62383456D02*
X89750022Y-62383420D01*
X89150023Y-62382700D02*
X89120023Y-62382664D01*
X106934000Y-61849000D02*
X106934000Y-61819000D01*
X106934000Y-61219000D02*
X106934000Y-61189000D01*
X106934000Y-60589000D02*
X106934000Y-60559000D01*
X106934000Y-59959000D02*
X106934000Y-59929000D01*
X106934000Y-59329000D02*
X106934000Y-59299000D01*
X106934000Y-58699000D02*
X106934000Y-58669000D01*
X106934000Y-58069000D02*
X106934000Y-58039000D01*
X106934000Y-57439000D02*
X106934000Y-57409000D01*
X106934000Y-56809000D02*
X106934000Y-56779000D01*
X106934000Y-56179000D02*
X106934000Y-56149000D01*
X106934000Y-55549000D02*
X106934000Y-55519000D01*
X106934000Y-54919000D02*
X106934000Y-54889000D01*
X106934000Y-54289000D02*
X106934000Y-54259000D01*
X106934000Y-53659000D02*
X106934000Y-53629000D01*
X106934000Y-53029000D02*
X106934000Y-52999000D01*
X106934000Y-52399000D02*
X106934000Y-52369000D01*
X106934000Y-51769000D02*
X106934000Y-51739000D01*
X106934000Y-51139000D02*
X106934000Y-51109000D01*
X106934000Y-50509000D02*
X106934000Y-50479000D01*
X106934000Y-49879000D02*
X106934000Y-49849000D01*
X106934000Y-49249000D02*
X106934000Y-49219000D01*
X106934000Y-48619000D02*
X106934000Y-48589000D01*
X98603292Y-77012123D02*
X98602307Y-77927876D01*
X71983600Y-61823600D02*
X71986475Y-60173603D01*
X71987520Y-59573603D02*
X71990394Y-57923606D01*
X71991440Y-57323607D02*
X71994314Y-55673609D01*
X71995360Y-55073610D02*
X71998234Y-53423613D01*
X71999279Y-52823614D02*
X72002154Y-51173616D01*
X72003199Y-50573617D02*
X72006074Y-48923620D01*
X72007119Y-48323620D02*
X72009000Y-47244000D01*
X116586000Y-61976000D02*
X116586000Y-61946000D01*
X116586000Y-61346000D02*
X116586000Y-61316000D01*
X116586000Y-60716000D02*
X116586000Y-60686000D01*
X116586000Y-60086000D02*
X116586000Y-60056000D01*
X116586000Y-59456000D02*
X116586000Y-59426000D01*
X116586000Y-58826000D02*
X116586000Y-58796000D01*
X116586000Y-58196000D02*
X116586000Y-58166000D01*
X116586000Y-57566000D02*
X116586000Y-57536000D01*
X116586000Y-56936000D02*
X116586000Y-56906000D01*
X116586000Y-56306000D02*
X116586000Y-56276000D01*
X116586000Y-55676000D02*
X116586000Y-55646000D01*
X116586000Y-55046000D02*
X116586000Y-55016000D01*
X116586000Y-54416000D02*
X116586000Y-54386000D01*
X116586000Y-53786000D02*
X116586000Y-53756000D01*
X116586000Y-53156000D02*
X116586000Y-53126000D01*
X116586000Y-52526000D02*
X116586000Y-52496000D01*
X116586000Y-51896000D02*
X116586000Y-51866000D01*
X116586000Y-51266000D02*
X116586000Y-51236000D01*
X116586000Y-50636000D02*
X116586000Y-50606000D01*
X116586000Y-50006000D02*
X116586000Y-49976000D01*
X116586000Y-49376000D02*
X116586000Y-49346000D01*
X116586000Y-48746000D02*
X116586000Y-48716000D01*
D11*
X75339292Y-61208219D02*
X74815482Y-61208219D01*
X74815482Y-61208219D02*
X74815482Y-60208219D01*
X75863101Y-61208219D02*
X75758339Y-61160600D01*
X75758339Y-61160600D02*
X75705958Y-61112980D01*
X75705958Y-61112980D02*
X75653577Y-61017742D01*
X75653577Y-61017742D02*
X75653577Y-60732028D01*
X75653577Y-60732028D02*
X75705958Y-60636790D01*
X75705958Y-60636790D02*
X75758339Y-60589171D01*
X75758339Y-60589171D02*
X75863101Y-60541552D01*
X75863101Y-60541552D02*
X76020244Y-60541552D01*
X76020244Y-60541552D02*
X76125006Y-60589171D01*
X76125006Y-60589171D02*
X76177387Y-60636790D01*
X76177387Y-60636790D02*
X76229768Y-60732028D01*
X76229768Y-60732028D02*
X76229768Y-61017742D01*
X76229768Y-61017742D02*
X76177387Y-61112980D01*
X76177387Y-61112980D02*
X76125006Y-61160600D01*
X76125006Y-61160600D02*
X76020244Y-61208219D01*
X76020244Y-61208219D02*
X75863101Y-61208219D01*
X77172625Y-60541552D02*
X77172625Y-61351076D01*
X77172625Y-61351076D02*
X77120244Y-61446314D01*
X77120244Y-61446314D02*
X77067863Y-61493933D01*
X77067863Y-61493933D02*
X76963101Y-61541552D01*
X76963101Y-61541552D02*
X76805958Y-61541552D01*
X76805958Y-61541552D02*
X76701196Y-61493933D01*
X77172625Y-61160600D02*
X77067863Y-61208219D01*
X77067863Y-61208219D02*
X76858339Y-61208219D01*
X76858339Y-61208219D02*
X76753577Y-61160600D01*
X76753577Y-61160600D02*
X76701196Y-61112980D01*
X76701196Y-61112980D02*
X76648815Y-61017742D01*
X76648815Y-61017742D02*
X76648815Y-60732028D01*
X76648815Y-60732028D02*
X76701196Y-60636790D01*
X76701196Y-60636790D02*
X76753577Y-60589171D01*
X76753577Y-60589171D02*
X76858339Y-60541552D01*
X76858339Y-60541552D02*
X77067863Y-60541552D01*
X77067863Y-60541552D02*
X77172625Y-60589171D01*
X77696434Y-61208219D02*
X77696434Y-60541552D01*
X77696434Y-60208219D02*
X77644053Y-60255838D01*
X77644053Y-60255838D02*
X77696434Y-60303457D01*
X77696434Y-60303457D02*
X77748815Y-60255838D01*
X77748815Y-60255838D02*
X77696434Y-60208219D01*
X77696434Y-60208219D02*
X77696434Y-60303457D01*
X78691673Y-61160600D02*
X78586911Y-61208219D01*
X78586911Y-61208219D02*
X78377387Y-61208219D01*
X78377387Y-61208219D02*
X78272625Y-61160600D01*
X78272625Y-61160600D02*
X78220244Y-61112980D01*
X78220244Y-61112980D02*
X78167863Y-61017742D01*
X78167863Y-61017742D02*
X78167863Y-60732028D01*
X78167863Y-60732028D02*
X78220244Y-60636790D01*
X78220244Y-60636790D02*
X78272625Y-60589171D01*
X78272625Y-60589171D02*
X78377387Y-60541552D01*
X78377387Y-60541552D02*
X78586911Y-60541552D01*
X78586911Y-60541552D02*
X78691673Y-60589171D01*
X102023482Y-75667219D02*
X102023482Y-74667219D01*
X102023482Y-74667219D02*
X102442530Y-74667219D01*
X102442530Y-74667219D02*
X102547292Y-74714838D01*
X102547292Y-74714838D02*
X102599673Y-74762457D01*
X102599673Y-74762457D02*
X102652054Y-74857695D01*
X102652054Y-74857695D02*
X102652054Y-75000552D01*
X102652054Y-75000552D02*
X102599673Y-75095790D01*
X102599673Y-75095790D02*
X102547292Y-75143409D01*
X102547292Y-75143409D02*
X102442530Y-75191028D01*
X102442530Y-75191028D02*
X102023482Y-75191028D01*
X103280625Y-75667219D02*
X103175863Y-75619600D01*
X103175863Y-75619600D02*
X103123482Y-75571980D01*
X103123482Y-75571980D02*
X103071101Y-75476742D01*
X103071101Y-75476742D02*
X103071101Y-75191028D01*
X103071101Y-75191028D02*
X103123482Y-75095790D01*
X103123482Y-75095790D02*
X103175863Y-75048171D01*
X103175863Y-75048171D02*
X103280625Y-75000552D01*
X103280625Y-75000552D02*
X103437768Y-75000552D01*
X103437768Y-75000552D02*
X103542530Y-75048171D01*
X103542530Y-75048171D02*
X103594911Y-75095790D01*
X103594911Y-75095790D02*
X103647292Y-75191028D01*
X103647292Y-75191028D02*
X103647292Y-75476742D01*
X103647292Y-75476742D02*
X103594911Y-75571980D01*
X103594911Y-75571980D02*
X103542530Y-75619600D01*
X103542530Y-75619600D02*
X103437768Y-75667219D01*
X103437768Y-75667219D02*
X103280625Y-75667219D01*
X104013958Y-75000552D02*
X104223482Y-75667219D01*
X104223482Y-75667219D02*
X104433006Y-75191028D01*
X104433006Y-75191028D02*
X104642530Y-75667219D01*
X104642530Y-75667219D02*
X104852054Y-75000552D01*
X105690149Y-75619600D02*
X105585387Y-75667219D01*
X105585387Y-75667219D02*
X105375863Y-75667219D01*
X105375863Y-75667219D02*
X105271101Y-75619600D01*
X105271101Y-75619600D02*
X105218720Y-75524361D01*
X105218720Y-75524361D02*
X105218720Y-75143409D01*
X105218720Y-75143409D02*
X105271101Y-75048171D01*
X105271101Y-75048171D02*
X105375863Y-75000552D01*
X105375863Y-75000552D02*
X105585387Y-75000552D01*
X105585387Y-75000552D02*
X105690149Y-75048171D01*
X105690149Y-75048171D02*
X105742530Y-75143409D01*
X105742530Y-75143409D02*
X105742530Y-75238647D01*
X105742530Y-75238647D02*
X105218720Y-75333885D01*
X106213958Y-75667219D02*
X106213958Y-75000552D01*
X106213958Y-75191028D02*
X106266339Y-75095790D01*
X106266339Y-75095790D02*
X106318720Y-75048171D01*
X106318720Y-75048171D02*
X106423482Y-75000552D01*
X106423482Y-75000552D02*
X106528244Y-75000552D01*
X89660149Y-63453009D02*
X89817292Y-63500628D01*
X89817292Y-63500628D02*
X89869673Y-63548247D01*
X89869673Y-63548247D02*
X89922054Y-63643485D01*
X89922054Y-63643485D02*
X89922054Y-63786342D01*
X89922054Y-63786342D02*
X89869673Y-63881580D01*
X89869673Y-63881580D02*
X89817292Y-63929200D01*
X89817292Y-63929200D02*
X89712530Y-63976819D01*
X89712530Y-63976819D02*
X89293482Y-63976819D01*
X89293482Y-63976819D02*
X89293482Y-62976819D01*
X89293482Y-62976819D02*
X89660149Y-62976819D01*
X89660149Y-62976819D02*
X89764911Y-63024438D01*
X89764911Y-63024438D02*
X89817292Y-63072057D01*
X89817292Y-63072057D02*
X89869673Y-63167295D01*
X89869673Y-63167295D02*
X89869673Y-63262533D01*
X89869673Y-63262533D02*
X89817292Y-63357771D01*
X89817292Y-63357771D02*
X89764911Y-63405390D01*
X89764911Y-63405390D02*
X89660149Y-63453009D01*
X89660149Y-63453009D02*
X89293482Y-63453009D01*
X90864911Y-63310152D02*
X90864911Y-63976819D01*
X90393482Y-63310152D02*
X90393482Y-63833961D01*
X90393482Y-63833961D02*
X90445863Y-63929200D01*
X90445863Y-63929200D02*
X90550625Y-63976819D01*
X90550625Y-63976819D02*
X90707768Y-63976819D01*
X90707768Y-63976819D02*
X90812530Y-63929200D01*
X90812530Y-63929200D02*
X90864911Y-63881580D01*
X91283958Y-63310152D02*
X91860149Y-63310152D01*
X91860149Y-63310152D02*
X91283958Y-63976819D01*
X91283958Y-63976819D02*
X91860149Y-63976819D01*
X92174434Y-63310152D02*
X92750625Y-63310152D01*
X92750625Y-63310152D02*
X92174434Y-63976819D01*
X92174434Y-63976819D02*
X92750625Y-63976819D01*
X93588720Y-63929200D02*
X93483958Y-63976819D01*
X93483958Y-63976819D02*
X93274434Y-63976819D01*
X93274434Y-63976819D02*
X93169672Y-63929200D01*
X93169672Y-63929200D02*
X93117291Y-63833961D01*
X93117291Y-63833961D02*
X93117291Y-63453009D01*
X93117291Y-63453009D02*
X93169672Y-63357771D01*
X93169672Y-63357771D02*
X93274434Y-63310152D01*
X93274434Y-63310152D02*
X93483958Y-63310152D01*
X93483958Y-63310152D02*
X93588720Y-63357771D01*
X93588720Y-63357771D02*
X93641101Y-63453009D01*
X93641101Y-63453009D02*
X93641101Y-63548247D01*
X93641101Y-63548247D02*
X93117291Y-63643485D01*
X94112529Y-63976819D02*
X94112529Y-63310152D01*
X94112529Y-63500628D02*
X94164910Y-63405390D01*
X94164910Y-63405390D02*
X94217291Y-63357771D01*
X94217291Y-63357771D02*
X94322053Y-63310152D01*
X94322053Y-63310152D02*
X94426815Y-63310152D01*
X110150054Y-61174980D02*
X110097673Y-61222600D01*
X110097673Y-61222600D02*
X109940530Y-61270219D01*
X109940530Y-61270219D02*
X109835768Y-61270219D01*
X109835768Y-61270219D02*
X109678625Y-61222600D01*
X109678625Y-61222600D02*
X109573863Y-61127361D01*
X109573863Y-61127361D02*
X109521482Y-61032123D01*
X109521482Y-61032123D02*
X109469101Y-60841647D01*
X109469101Y-60841647D02*
X109469101Y-60698790D01*
X109469101Y-60698790D02*
X109521482Y-60508314D01*
X109521482Y-60508314D02*
X109573863Y-60413076D01*
X109573863Y-60413076D02*
X109678625Y-60317838D01*
X109678625Y-60317838D02*
X109835768Y-60270219D01*
X109835768Y-60270219D02*
X109940530Y-60270219D01*
X109940530Y-60270219D02*
X110097673Y-60317838D01*
X110097673Y-60317838D02*
X110150054Y-60365457D01*
X110778625Y-61270219D02*
X110673863Y-61222600D01*
X110673863Y-61222600D02*
X110621482Y-61127361D01*
X110621482Y-61127361D02*
X110621482Y-60270219D01*
X111354815Y-61270219D02*
X111250053Y-61222600D01*
X111250053Y-61222600D02*
X111197672Y-61174980D01*
X111197672Y-61174980D02*
X111145291Y-61079742D01*
X111145291Y-61079742D02*
X111145291Y-60794028D01*
X111145291Y-60794028D02*
X111197672Y-60698790D01*
X111197672Y-60698790D02*
X111250053Y-60651171D01*
X111250053Y-60651171D02*
X111354815Y-60603552D01*
X111354815Y-60603552D02*
X111511958Y-60603552D01*
X111511958Y-60603552D02*
X111616720Y-60651171D01*
X111616720Y-60651171D02*
X111669101Y-60698790D01*
X111669101Y-60698790D02*
X111721482Y-60794028D01*
X111721482Y-60794028D02*
X111721482Y-61079742D01*
X111721482Y-61079742D02*
X111669101Y-61174980D01*
X111669101Y-61174980D02*
X111616720Y-61222600D01*
X111616720Y-61222600D02*
X111511958Y-61270219D01*
X111511958Y-61270219D02*
X111354815Y-61270219D01*
X112664339Y-61222600D02*
X112559577Y-61270219D01*
X112559577Y-61270219D02*
X112350053Y-61270219D01*
X112350053Y-61270219D02*
X112245291Y-61222600D01*
X112245291Y-61222600D02*
X112192910Y-61174980D01*
X112192910Y-61174980D02*
X112140529Y-61079742D01*
X112140529Y-61079742D02*
X112140529Y-60794028D01*
X112140529Y-60794028D02*
X112192910Y-60698790D01*
X112192910Y-60698790D02*
X112245291Y-60651171D01*
X112245291Y-60651171D02*
X112350053Y-60603552D01*
X112350053Y-60603552D02*
X112559577Y-60603552D01*
X112559577Y-60603552D02*
X112664339Y-60651171D01*
X113135767Y-61270219D02*
X113135767Y-60270219D01*
X113240529Y-60889266D02*
X113554815Y-61270219D01*
X113554815Y-60603552D02*
X113135767Y-60984504D01*
D10*
X108550002Y-66676389D02*
X108550002Y-66743733D01*
X108550002Y-66743733D02*
X108482658Y-66878420D01*
X108482658Y-66878420D02*
X108415315Y-66945763D01*
X108415315Y-66945763D02*
X108280628Y-67013107D01*
X108280628Y-67013107D02*
X108145941Y-67013107D01*
X108145941Y-67013107D02*
X108044926Y-66979435D01*
X108044926Y-66979435D02*
X107876567Y-66878420D01*
X107876567Y-66878420D02*
X107775552Y-66777405D01*
X107775552Y-66777405D02*
X107674536Y-66609046D01*
X107674536Y-66609046D02*
X107640865Y-66508031D01*
X107640865Y-66508031D02*
X107640865Y-66373344D01*
X107640865Y-66373344D02*
X107708208Y-66238657D01*
X107708208Y-66238657D02*
X107775552Y-66171313D01*
X107775552Y-66171313D02*
X107910239Y-66103970D01*
X107910239Y-66103970D02*
X107977582Y-66103970D01*
X109290780Y-66070298D02*
X108886719Y-66474359D01*
X109088750Y-66272328D02*
X108381643Y-65565222D01*
X108381643Y-65565222D02*
X108415315Y-65733580D01*
X108415315Y-65733580D02*
X108415315Y-65868267D01*
X108415315Y-65868267D02*
X108381643Y-65969283D01*
X108920391Y-65161160D02*
X108920391Y-65093817D01*
X108920391Y-65093817D02*
X108954063Y-64992802D01*
X108954063Y-64992802D02*
X109122422Y-64824443D01*
X109122422Y-64824443D02*
X109223437Y-64790771D01*
X109223437Y-64790771D02*
X109290781Y-64790771D01*
X109290781Y-64790771D02*
X109391796Y-64824443D01*
X109391796Y-64824443D02*
X109459139Y-64891786D01*
X109459139Y-64891786D02*
X109526483Y-65026473D01*
X109526483Y-65026473D02*
X109526483Y-65834595D01*
X109526483Y-65834595D02*
X109964216Y-65396863D01*
X112939580Y-64972856D02*
X112987200Y-65020475D01*
X112987200Y-65020475D02*
X113034819Y-65163332D01*
X113034819Y-65163332D02*
X113034819Y-65258570D01*
X113034819Y-65258570D02*
X112987200Y-65401427D01*
X112987200Y-65401427D02*
X112891961Y-65496665D01*
X112891961Y-65496665D02*
X112796723Y-65544284D01*
X112796723Y-65544284D02*
X112606247Y-65591903D01*
X112606247Y-65591903D02*
X112463390Y-65591903D01*
X112463390Y-65591903D02*
X112272914Y-65544284D01*
X112272914Y-65544284D02*
X112177676Y-65496665D01*
X112177676Y-65496665D02*
X112082438Y-65401427D01*
X112082438Y-65401427D02*
X112034819Y-65258570D01*
X112034819Y-65258570D02*
X112034819Y-65163332D01*
X112034819Y-65163332D02*
X112082438Y-65020475D01*
X112082438Y-65020475D02*
X112130057Y-64972856D01*
X113034819Y-64020475D02*
X113034819Y-64591903D01*
X113034819Y-64306189D02*
X112034819Y-64306189D01*
X112034819Y-64306189D02*
X112177676Y-64401427D01*
X112177676Y-64401427D02*
X112272914Y-64496665D01*
X112272914Y-64496665D02*
X112320533Y-64591903D01*
X112034819Y-63687141D02*
X112034819Y-63068094D01*
X112034819Y-63068094D02*
X112415771Y-63401427D01*
X112415771Y-63401427D02*
X112415771Y-63258570D01*
X112415771Y-63258570D02*
X112463390Y-63163332D01*
X112463390Y-63163332D02*
X112511009Y-63115713D01*
X112511009Y-63115713D02*
X112606247Y-63068094D01*
X112606247Y-63068094D02*
X112844342Y-63068094D01*
X112844342Y-63068094D02*
X112939580Y-63115713D01*
X112939580Y-63115713D02*
X112987200Y-63163332D01*
X112987200Y-63163332D02*
X113034819Y-63258570D01*
X113034819Y-63258570D02*
X113034819Y-63544284D01*
X113034819Y-63544284D02*
X112987200Y-63639522D01*
X112987200Y-63639522D02*
X112939580Y-63687141D01*
X97518915Y-66117216D02*
X97451571Y-66117216D01*
X97451571Y-66117216D02*
X97316884Y-66049872D01*
X97316884Y-66049872D02*
X97249541Y-65982529D01*
X97249541Y-65982529D02*
X97182197Y-65847842D01*
X97182197Y-65847842D02*
X97182197Y-65713155D01*
X97182197Y-65713155D02*
X97215869Y-65612140D01*
X97215869Y-65612140D02*
X97316884Y-65443781D01*
X97316884Y-65443781D02*
X97417899Y-65342766D01*
X97417899Y-65342766D02*
X97586258Y-65241750D01*
X97586258Y-65241750D02*
X97687273Y-65208079D01*
X97687273Y-65208079D02*
X97821960Y-65208079D01*
X97821960Y-65208079D02*
X97956647Y-65275422D01*
X97956647Y-65275422D02*
X98023991Y-65342766D01*
X98023991Y-65342766D02*
X98091334Y-65477453D01*
X98091334Y-65477453D02*
X98091334Y-65544796D01*
X98125006Y-66857994D02*
X97720945Y-66453933D01*
X97922976Y-66655964D02*
X98630082Y-65948857D01*
X98630082Y-65948857D02*
X98461724Y-65982529D01*
X98461724Y-65982529D02*
X98327037Y-65982529D01*
X98327037Y-65982529D02*
X98226021Y-65948857D01*
X99471876Y-66790651D02*
X99135159Y-66453933D01*
X99135159Y-66453933D02*
X98764770Y-66756979D01*
X98764770Y-66756979D02*
X98832113Y-66756979D01*
X98832113Y-66756979D02*
X98933128Y-66790651D01*
X98933128Y-66790651D02*
X99101487Y-66959010D01*
X99101487Y-66959010D02*
X99135159Y-67060025D01*
X99135159Y-67060025D02*
X99135159Y-67127369D01*
X99135159Y-67127369D02*
X99101487Y-67228384D01*
X99101487Y-67228384D02*
X98933128Y-67396743D01*
X98933128Y-67396743D02*
X98832113Y-67430414D01*
X98832113Y-67430414D02*
X98764770Y-67430414D01*
X98764770Y-67430414D02*
X98663754Y-67396743D01*
X98663754Y-67396743D02*
X98495396Y-67228384D01*
X98495396Y-67228384D02*
X98461724Y-67127369D01*
X98461724Y-67127369D02*
X98461724Y-67060025D01*
X69238095Y-91254819D02*
X69238095Y-90254819D01*
X69238095Y-90731009D02*
X69809523Y-90731009D01*
X69809523Y-91254819D02*
X69809523Y-90254819D01*
X70238095Y-90350057D02*
X70285714Y-90302438D01*
X70285714Y-90302438D02*
X70380952Y-90254819D01*
X70380952Y-90254819D02*
X70619047Y-90254819D01*
X70619047Y-90254819D02*
X70714285Y-90302438D01*
X70714285Y-90302438D02*
X70761904Y-90350057D01*
X70761904Y-90350057D02*
X70809523Y-90445295D01*
X70809523Y-90445295D02*
X70809523Y-90540533D01*
X70809523Y-90540533D02*
X70761904Y-90683390D01*
X70761904Y-90683390D02*
X70190476Y-91254819D01*
X70190476Y-91254819D02*
X70809523Y-91254819D01*
X49188095Y-51424819D02*
X49188095Y-50424819D01*
X49188095Y-50901009D02*
X49759523Y-50901009D01*
X49759523Y-51424819D02*
X49759523Y-50424819D01*
X50759523Y-51424819D02*
X50188095Y-51424819D01*
X50473809Y-51424819D02*
X50473809Y-50424819D01*
X50473809Y-50424819D02*
X50378571Y-50567676D01*
X50378571Y-50567676D02*
X50283333Y-50662914D01*
X50283333Y-50662914D02*
X50188095Y-50710533D01*
X92451333Y-60684580D02*
X92403714Y-60732200D01*
X92403714Y-60732200D02*
X92260857Y-60779819D01*
X92260857Y-60779819D02*
X92165619Y-60779819D01*
X92165619Y-60779819D02*
X92022762Y-60732200D01*
X92022762Y-60732200D02*
X91927524Y-60636961D01*
X91927524Y-60636961D02*
X91879905Y-60541723D01*
X91879905Y-60541723D02*
X91832286Y-60351247D01*
X91832286Y-60351247D02*
X91832286Y-60208390D01*
X91832286Y-60208390D02*
X91879905Y-60017914D01*
X91879905Y-60017914D02*
X91927524Y-59922676D01*
X91927524Y-59922676D02*
X92022762Y-59827438D01*
X92022762Y-59827438D02*
X92165619Y-59779819D01*
X92165619Y-59779819D02*
X92260857Y-59779819D01*
X92260857Y-59779819D02*
X92403714Y-59827438D01*
X92403714Y-59827438D02*
X92451333Y-59875057D01*
X92784667Y-59779819D02*
X93451333Y-59779819D01*
X93451333Y-59779819D02*
X93022762Y-60779819D01*
X96781580Y-75500666D02*
X96829200Y-75548285D01*
X96829200Y-75548285D02*
X96876819Y-75691142D01*
X96876819Y-75691142D02*
X96876819Y-75786380D01*
X96876819Y-75786380D02*
X96829200Y-75929237D01*
X96829200Y-75929237D02*
X96733961Y-76024475D01*
X96733961Y-76024475D02*
X96638723Y-76072094D01*
X96638723Y-76072094D02*
X96448247Y-76119713D01*
X96448247Y-76119713D02*
X96305390Y-76119713D01*
X96305390Y-76119713D02*
X96114914Y-76072094D01*
X96114914Y-76072094D02*
X96019676Y-76024475D01*
X96019676Y-76024475D02*
X95924438Y-75929237D01*
X95924438Y-75929237D02*
X95876819Y-75786380D01*
X95876819Y-75786380D02*
X95876819Y-75691142D01*
X95876819Y-75691142D02*
X95924438Y-75548285D01*
X95924438Y-75548285D02*
X95972057Y-75500666D01*
X96210152Y-74643523D02*
X96876819Y-74643523D01*
X95829200Y-74881618D02*
X96543485Y-75119713D01*
X96543485Y-75119713D02*
X96543485Y-74500666D01*
X105598933Y-86459219D02*
X105265600Y-85983028D01*
X105027505Y-86459219D02*
X105027505Y-85459219D01*
X105027505Y-85459219D02*
X105408457Y-85459219D01*
X105408457Y-85459219D02*
X105503695Y-85506838D01*
X105503695Y-85506838D02*
X105551314Y-85554457D01*
X105551314Y-85554457D02*
X105598933Y-85649695D01*
X105598933Y-85649695D02*
X105598933Y-85792552D01*
X105598933Y-85792552D02*
X105551314Y-85887790D01*
X105551314Y-85887790D02*
X105503695Y-85935409D01*
X105503695Y-85935409D02*
X105408457Y-85983028D01*
X105408457Y-85983028D02*
X105027505Y-85983028D01*
X105979886Y-85554457D02*
X106027505Y-85506838D01*
X106027505Y-85506838D02*
X106122743Y-85459219D01*
X106122743Y-85459219D02*
X106360838Y-85459219D01*
X106360838Y-85459219D02*
X106456076Y-85506838D01*
X106456076Y-85506838D02*
X106503695Y-85554457D01*
X106503695Y-85554457D02*
X106551314Y-85649695D01*
X106551314Y-85649695D02*
X106551314Y-85744933D01*
X106551314Y-85744933D02*
X106503695Y-85887790D01*
X106503695Y-85887790D02*
X105932267Y-86459219D01*
X105932267Y-86459219D02*
X106551314Y-86459219D01*
X104100333Y-53159819D02*
X103767000Y-52683628D01*
X103528905Y-53159819D02*
X103528905Y-52159819D01*
X103528905Y-52159819D02*
X103909857Y-52159819D01*
X103909857Y-52159819D02*
X104005095Y-52207438D01*
X104005095Y-52207438D02*
X104052714Y-52255057D01*
X104052714Y-52255057D02*
X104100333Y-52350295D01*
X104100333Y-52350295D02*
X104100333Y-52493152D01*
X104100333Y-52493152D02*
X104052714Y-52588390D01*
X104052714Y-52588390D02*
X104005095Y-52636009D01*
X104005095Y-52636009D02*
X103909857Y-52683628D01*
X103909857Y-52683628D02*
X103528905Y-52683628D01*
X105005095Y-52159819D02*
X104528905Y-52159819D01*
X104528905Y-52159819D02*
X104481286Y-52636009D01*
X104481286Y-52636009D02*
X104528905Y-52588390D01*
X104528905Y-52588390D02*
X104624143Y-52540771D01*
X104624143Y-52540771D02*
X104862238Y-52540771D01*
X104862238Y-52540771D02*
X104957476Y-52588390D01*
X104957476Y-52588390D02*
X105005095Y-52636009D01*
X105005095Y-52636009D02*
X105052714Y-52731247D01*
X105052714Y-52731247D02*
X105052714Y-52969342D01*
X105052714Y-52969342D02*
X105005095Y-53064580D01*
X105005095Y-53064580D02*
X104957476Y-53112200D01*
X104957476Y-53112200D02*
X104862238Y-53159819D01*
X104862238Y-53159819D02*
X104624143Y-53159819D01*
X104624143Y-53159819D02*
X104528905Y-53112200D01*
X104528905Y-53112200D02*
X104481286Y-53064580D01*
X114805819Y-56703904D02*
X115615342Y-56703904D01*
X115615342Y-56703904D02*
X115710580Y-56656285D01*
X115710580Y-56656285D02*
X115758200Y-56608666D01*
X115758200Y-56608666D02*
X115805819Y-56513428D01*
X115805819Y-56513428D02*
X115805819Y-56322952D01*
X115805819Y-56322952D02*
X115758200Y-56227714D01*
X115758200Y-56227714D02*
X115710580Y-56180095D01*
X115710580Y-56180095D02*
X115615342Y-56132476D01*
X115615342Y-56132476D02*
X114805819Y-56132476D01*
X114901057Y-55703904D02*
X114853438Y-55656285D01*
X114853438Y-55656285D02*
X114805819Y-55561047D01*
X114805819Y-55561047D02*
X114805819Y-55322952D01*
X114805819Y-55322952D02*
X114853438Y-55227714D01*
X114853438Y-55227714D02*
X114901057Y-55180095D01*
X114901057Y-55180095D02*
X114996295Y-55132476D01*
X114996295Y-55132476D02*
X115091533Y-55132476D01*
X115091533Y-55132476D02*
X115234390Y-55180095D01*
X115234390Y-55180095D02*
X115805819Y-55751523D01*
X115805819Y-55751523D02*
X115805819Y-55132476D01*
X113519819Y-46504238D02*
X113043628Y-46837571D01*
X113519819Y-47075666D02*
X112519819Y-47075666D01*
X112519819Y-47075666D02*
X112519819Y-46694714D01*
X112519819Y-46694714D02*
X112567438Y-46599476D01*
X112567438Y-46599476D02*
X112615057Y-46551857D01*
X112615057Y-46551857D02*
X112710295Y-46504238D01*
X112710295Y-46504238D02*
X112853152Y-46504238D01*
X112853152Y-46504238D02*
X112948390Y-46551857D01*
X112948390Y-46551857D02*
X112996009Y-46599476D01*
X112996009Y-46599476D02*
X113043628Y-46694714D01*
X113043628Y-46694714D02*
X113043628Y-47075666D01*
X112519819Y-46218523D02*
X113519819Y-45885190D01*
X113519819Y-45885190D02*
X112519819Y-45551857D01*
X113519819Y-44694714D02*
X113519819Y-45266142D01*
X113519819Y-44980428D02*
X112519819Y-44980428D01*
X112519819Y-44980428D02*
X112662676Y-45075666D01*
X112662676Y-45075666D02*
X112757914Y-45170904D01*
X112757914Y-45170904D02*
X112805533Y-45266142D01*
X98801333Y-61192580D02*
X98753714Y-61240200D01*
X98753714Y-61240200D02*
X98610857Y-61287819D01*
X98610857Y-61287819D02*
X98515619Y-61287819D01*
X98515619Y-61287819D02*
X98372762Y-61240200D01*
X98372762Y-61240200D02*
X98277524Y-61144961D01*
X98277524Y-61144961D02*
X98229905Y-61049723D01*
X98229905Y-61049723D02*
X98182286Y-60859247D01*
X98182286Y-60859247D02*
X98182286Y-60716390D01*
X98182286Y-60716390D02*
X98229905Y-60525914D01*
X98229905Y-60525914D02*
X98277524Y-60430676D01*
X98277524Y-60430676D02*
X98372762Y-60335438D01*
X98372762Y-60335438D02*
X98515619Y-60287819D01*
X98515619Y-60287819D02*
X98610857Y-60287819D01*
X98610857Y-60287819D02*
X98753714Y-60335438D01*
X98753714Y-60335438D02*
X98801333Y-60383057D01*
X99372762Y-60716390D02*
X99277524Y-60668771D01*
X99277524Y-60668771D02*
X99229905Y-60621152D01*
X99229905Y-60621152D02*
X99182286Y-60525914D01*
X99182286Y-60525914D02*
X99182286Y-60478295D01*
X99182286Y-60478295D02*
X99229905Y-60383057D01*
X99229905Y-60383057D02*
X99277524Y-60335438D01*
X99277524Y-60335438D02*
X99372762Y-60287819D01*
X99372762Y-60287819D02*
X99563238Y-60287819D01*
X99563238Y-60287819D02*
X99658476Y-60335438D01*
X99658476Y-60335438D02*
X99706095Y-60383057D01*
X99706095Y-60383057D02*
X99753714Y-60478295D01*
X99753714Y-60478295D02*
X99753714Y-60525914D01*
X99753714Y-60525914D02*
X99706095Y-60621152D01*
X99706095Y-60621152D02*
X99658476Y-60668771D01*
X99658476Y-60668771D02*
X99563238Y-60716390D01*
X99563238Y-60716390D02*
X99372762Y-60716390D01*
X99372762Y-60716390D02*
X99277524Y-60764009D01*
X99277524Y-60764009D02*
X99229905Y-60811628D01*
X99229905Y-60811628D02*
X99182286Y-60906866D01*
X99182286Y-60906866D02*
X99182286Y-61097342D01*
X99182286Y-61097342D02*
X99229905Y-61192580D01*
X99229905Y-61192580D02*
X99277524Y-61240200D01*
X99277524Y-61240200D02*
X99372762Y-61287819D01*
X99372762Y-61287819D02*
X99563238Y-61287819D01*
X99563238Y-61287819D02*
X99658476Y-61240200D01*
X99658476Y-61240200D02*
X99706095Y-61192580D01*
X99706095Y-61192580D02*
X99753714Y-61097342D01*
X99753714Y-61097342D02*
X99753714Y-60906866D01*
X99753714Y-60906866D02*
X99706095Y-60811628D01*
X99706095Y-60811628D02*
X99658476Y-60764009D01*
X99658476Y-60764009D02*
X99563238Y-60716390D01*
X87495142Y-48968819D02*
X87161809Y-48492628D01*
X86923714Y-48968819D02*
X86923714Y-47968819D01*
X86923714Y-47968819D02*
X87304666Y-47968819D01*
X87304666Y-47968819D02*
X87399904Y-48016438D01*
X87399904Y-48016438D02*
X87447523Y-48064057D01*
X87447523Y-48064057D02*
X87495142Y-48159295D01*
X87495142Y-48159295D02*
X87495142Y-48302152D01*
X87495142Y-48302152D02*
X87447523Y-48397390D01*
X87447523Y-48397390D02*
X87399904Y-48445009D01*
X87399904Y-48445009D02*
X87304666Y-48492628D01*
X87304666Y-48492628D02*
X86923714Y-48492628D01*
X88447523Y-48968819D02*
X87876095Y-48968819D01*
X88161809Y-48968819D02*
X88161809Y-47968819D01*
X88161809Y-47968819D02*
X88066571Y-48111676D01*
X88066571Y-48111676D02*
X87971333Y-48206914D01*
X87971333Y-48206914D02*
X87876095Y-48254533D01*
X89304666Y-48302152D02*
X89304666Y-48968819D01*
X89066571Y-47921200D02*
X88828476Y-48635485D01*
X88828476Y-48635485D02*
X89447523Y-48635485D01*
X118589466Y-73927619D02*
X118589466Y-74641904D01*
X118589466Y-74641904D02*
X118541847Y-74784761D01*
X118541847Y-74784761D02*
X118446609Y-74880000D01*
X118446609Y-74880000D02*
X118303752Y-74927619D01*
X118303752Y-74927619D02*
X118208514Y-74927619D01*
X119589466Y-74927619D02*
X119018038Y-74927619D01*
X119303752Y-74927619D02*
X119303752Y-73927619D01*
X119303752Y-73927619D02*
X119208514Y-74070476D01*
X119208514Y-74070476D02*
X119113276Y-74165714D01*
X119113276Y-74165714D02*
X119018038Y-74213333D01*
X111487819Y-50839666D02*
X111011628Y-51172999D01*
X111487819Y-51411094D02*
X110487819Y-51411094D01*
X110487819Y-51411094D02*
X110487819Y-51030142D01*
X110487819Y-51030142D02*
X110535438Y-50934904D01*
X110535438Y-50934904D02*
X110583057Y-50887285D01*
X110583057Y-50887285D02*
X110678295Y-50839666D01*
X110678295Y-50839666D02*
X110821152Y-50839666D01*
X110821152Y-50839666D02*
X110916390Y-50887285D01*
X110916390Y-50887285D02*
X110964009Y-50934904D01*
X110964009Y-50934904D02*
X111011628Y-51030142D01*
X111011628Y-51030142D02*
X111011628Y-51411094D01*
X111487819Y-49887285D02*
X111487819Y-50458713D01*
X111487819Y-50172999D02*
X110487819Y-50172999D01*
X110487819Y-50172999D02*
X110630676Y-50268237D01*
X110630676Y-50268237D02*
X110725914Y-50363475D01*
X110725914Y-50363475D02*
X110773533Y-50458713D01*
X104386142Y-60195619D02*
X104052809Y-59719428D01*
X103814714Y-60195619D02*
X103814714Y-59195619D01*
X103814714Y-59195619D02*
X104195666Y-59195619D01*
X104195666Y-59195619D02*
X104290904Y-59243238D01*
X104290904Y-59243238D02*
X104338523Y-59290857D01*
X104338523Y-59290857D02*
X104386142Y-59386095D01*
X104386142Y-59386095D02*
X104386142Y-59528952D01*
X104386142Y-59528952D02*
X104338523Y-59624190D01*
X104338523Y-59624190D02*
X104290904Y-59671809D01*
X104290904Y-59671809D02*
X104195666Y-59719428D01*
X104195666Y-59719428D02*
X103814714Y-59719428D01*
X105338523Y-60195619D02*
X104767095Y-60195619D01*
X105052809Y-60195619D02*
X105052809Y-59195619D01*
X105052809Y-59195619D02*
X104957571Y-59338476D01*
X104957571Y-59338476D02*
X104862333Y-59433714D01*
X104862333Y-59433714D02*
X104767095Y-59481333D01*
X106243285Y-59195619D02*
X105767095Y-59195619D01*
X105767095Y-59195619D02*
X105719476Y-59671809D01*
X105719476Y-59671809D02*
X105767095Y-59624190D01*
X105767095Y-59624190D02*
X105862333Y-59576571D01*
X105862333Y-59576571D02*
X106100428Y-59576571D01*
X106100428Y-59576571D02*
X106195666Y-59624190D01*
X106195666Y-59624190D02*
X106243285Y-59671809D01*
X106243285Y-59671809D02*
X106290904Y-59767047D01*
X106290904Y-59767047D02*
X106290904Y-60005142D01*
X106290904Y-60005142D02*
X106243285Y-60100380D01*
X106243285Y-60100380D02*
X106195666Y-60148000D01*
X106195666Y-60148000D02*
X106100428Y-60195619D01*
X106100428Y-60195619D02*
X105862333Y-60195619D01*
X105862333Y-60195619D02*
X105767095Y-60148000D01*
X105767095Y-60148000D02*
X105719476Y-60100380D01*
X104100333Y-55669819D02*
X103767000Y-55193628D01*
X103528905Y-55669819D02*
X103528905Y-54669819D01*
X103528905Y-54669819D02*
X103909857Y-54669819D01*
X103909857Y-54669819D02*
X104005095Y-54717438D01*
X104005095Y-54717438D02*
X104052714Y-54765057D01*
X104052714Y-54765057D02*
X104100333Y-54860295D01*
X104100333Y-54860295D02*
X104100333Y-55003152D01*
X104100333Y-55003152D02*
X104052714Y-55098390D01*
X104052714Y-55098390D02*
X104005095Y-55146009D01*
X104005095Y-55146009D02*
X103909857Y-55193628D01*
X103909857Y-55193628D02*
X103528905Y-55193628D01*
X104576524Y-55669819D02*
X104767000Y-55669819D01*
X104767000Y-55669819D02*
X104862238Y-55622200D01*
X104862238Y-55622200D02*
X104909857Y-55574580D01*
X104909857Y-55574580D02*
X105005095Y-55431723D01*
X105005095Y-55431723D02*
X105052714Y-55241247D01*
X105052714Y-55241247D02*
X105052714Y-54860295D01*
X105052714Y-54860295D02*
X105005095Y-54765057D01*
X105005095Y-54765057D02*
X104957476Y-54717438D01*
X104957476Y-54717438D02*
X104862238Y-54669819D01*
X104862238Y-54669819D02*
X104671762Y-54669819D01*
X104671762Y-54669819D02*
X104576524Y-54717438D01*
X104576524Y-54717438D02*
X104528905Y-54765057D01*
X104528905Y-54765057D02*
X104481286Y-54860295D01*
X104481286Y-54860295D02*
X104481286Y-55098390D01*
X104481286Y-55098390D02*
X104528905Y-55193628D01*
X104528905Y-55193628D02*
X104576524Y-55241247D01*
X104576524Y-55241247D02*
X104671762Y-55288866D01*
X104671762Y-55288866D02*
X104862238Y-55288866D01*
X104862238Y-55288866D02*
X104957476Y-55241247D01*
X104957476Y-55241247D02*
X105005095Y-55193628D01*
X105005095Y-55193628D02*
X105052714Y-55098390D01*
X104481333Y-58874819D02*
X104148000Y-58398628D01*
X103909905Y-58874819D02*
X103909905Y-57874819D01*
X103909905Y-57874819D02*
X104290857Y-57874819D01*
X104290857Y-57874819D02*
X104386095Y-57922438D01*
X104386095Y-57922438D02*
X104433714Y-57970057D01*
X104433714Y-57970057D02*
X104481333Y-58065295D01*
X104481333Y-58065295D02*
X104481333Y-58208152D01*
X104481333Y-58208152D02*
X104433714Y-58303390D01*
X104433714Y-58303390D02*
X104386095Y-58351009D01*
X104386095Y-58351009D02*
X104290857Y-58398628D01*
X104290857Y-58398628D02*
X103909905Y-58398628D01*
X105052762Y-58303390D02*
X104957524Y-58255771D01*
X104957524Y-58255771D02*
X104909905Y-58208152D01*
X104909905Y-58208152D02*
X104862286Y-58112914D01*
X104862286Y-58112914D02*
X104862286Y-58065295D01*
X104862286Y-58065295D02*
X104909905Y-57970057D01*
X104909905Y-57970057D02*
X104957524Y-57922438D01*
X104957524Y-57922438D02*
X105052762Y-57874819D01*
X105052762Y-57874819D02*
X105243238Y-57874819D01*
X105243238Y-57874819D02*
X105338476Y-57922438D01*
X105338476Y-57922438D02*
X105386095Y-57970057D01*
X105386095Y-57970057D02*
X105433714Y-58065295D01*
X105433714Y-58065295D02*
X105433714Y-58112914D01*
X105433714Y-58112914D02*
X105386095Y-58208152D01*
X105386095Y-58208152D02*
X105338476Y-58255771D01*
X105338476Y-58255771D02*
X105243238Y-58303390D01*
X105243238Y-58303390D02*
X105052762Y-58303390D01*
X105052762Y-58303390D02*
X104957524Y-58351009D01*
X104957524Y-58351009D02*
X104909905Y-58398628D01*
X104909905Y-58398628D02*
X104862286Y-58493866D01*
X104862286Y-58493866D02*
X104862286Y-58684342D01*
X104862286Y-58684342D02*
X104909905Y-58779580D01*
X104909905Y-58779580D02*
X104957524Y-58827200D01*
X104957524Y-58827200D02*
X105052762Y-58874819D01*
X105052762Y-58874819D02*
X105243238Y-58874819D01*
X105243238Y-58874819D02*
X105338476Y-58827200D01*
X105338476Y-58827200D02*
X105386095Y-58779580D01*
X105386095Y-58779580D02*
X105433714Y-58684342D01*
X105433714Y-58684342D02*
X105433714Y-58493866D01*
X105433714Y-58493866D02*
X105386095Y-58398628D01*
X105386095Y-58398628D02*
X105338476Y-58351009D01*
X105338476Y-58351009D02*
X105243238Y-58303390D01*
X90271580Y-75442666D02*
X90319200Y-75490285D01*
X90319200Y-75490285D02*
X90366819Y-75633142D01*
X90366819Y-75633142D02*
X90366819Y-75728380D01*
X90366819Y-75728380D02*
X90319200Y-75871237D01*
X90319200Y-75871237D02*
X90223961Y-75966475D01*
X90223961Y-75966475D02*
X90128723Y-76014094D01*
X90128723Y-76014094D02*
X89938247Y-76061713D01*
X89938247Y-76061713D02*
X89795390Y-76061713D01*
X89795390Y-76061713D02*
X89604914Y-76014094D01*
X89604914Y-76014094D02*
X89509676Y-75966475D01*
X89509676Y-75966475D02*
X89414438Y-75871237D01*
X89414438Y-75871237D02*
X89366819Y-75728380D01*
X89366819Y-75728380D02*
X89366819Y-75633142D01*
X89366819Y-75633142D02*
X89414438Y-75490285D01*
X89414438Y-75490285D02*
X89462057Y-75442666D01*
X89366819Y-74585523D02*
X89366819Y-74775999D01*
X89366819Y-74775999D02*
X89414438Y-74871237D01*
X89414438Y-74871237D02*
X89462057Y-74918856D01*
X89462057Y-74918856D02*
X89604914Y-75014094D01*
X89604914Y-75014094D02*
X89795390Y-75061713D01*
X89795390Y-75061713D02*
X90176342Y-75061713D01*
X90176342Y-75061713D02*
X90271580Y-75014094D01*
X90271580Y-75014094D02*
X90319200Y-74966475D01*
X90319200Y-74966475D02*
X90366819Y-74871237D01*
X90366819Y-74871237D02*
X90366819Y-74680761D01*
X90366819Y-74680761D02*
X90319200Y-74585523D01*
X90319200Y-74585523D02*
X90271580Y-74537904D01*
X90271580Y-74537904D02*
X90176342Y-74490285D01*
X90176342Y-74490285D02*
X89938247Y-74490285D01*
X89938247Y-74490285D02*
X89843009Y-74537904D01*
X89843009Y-74537904D02*
X89795390Y-74585523D01*
X89795390Y-74585523D02*
X89747771Y-74680761D01*
X89747771Y-74680761D02*
X89747771Y-74871237D01*
X89747771Y-74871237D02*
X89795390Y-74966475D01*
X89795390Y-74966475D02*
X89843009Y-75014094D01*
X89843009Y-75014094D02*
X89938247Y-75061713D01*
X82023819Y-60713857D02*
X81547628Y-61047190D01*
X82023819Y-61285285D02*
X81023819Y-61285285D01*
X81023819Y-61285285D02*
X81023819Y-60904333D01*
X81023819Y-60904333D02*
X81071438Y-60809095D01*
X81071438Y-60809095D02*
X81119057Y-60761476D01*
X81119057Y-60761476D02*
X81214295Y-60713857D01*
X81214295Y-60713857D02*
X81357152Y-60713857D01*
X81357152Y-60713857D02*
X81452390Y-60761476D01*
X81452390Y-60761476D02*
X81500009Y-60809095D01*
X81500009Y-60809095D02*
X81547628Y-60904333D01*
X81547628Y-60904333D02*
X81547628Y-61285285D01*
X82023819Y-59761476D02*
X82023819Y-60332904D01*
X82023819Y-60047190D02*
X81023819Y-60047190D01*
X81023819Y-60047190D02*
X81166676Y-60142428D01*
X81166676Y-60142428D02*
X81261914Y-60237666D01*
X81261914Y-60237666D02*
X81309533Y-60332904D01*
X81023819Y-58904333D02*
X81023819Y-59094809D01*
X81023819Y-59094809D02*
X81071438Y-59190047D01*
X81071438Y-59190047D02*
X81119057Y-59237666D01*
X81119057Y-59237666D02*
X81261914Y-59332904D01*
X81261914Y-59332904D02*
X81452390Y-59380523D01*
X81452390Y-59380523D02*
X81833342Y-59380523D01*
X81833342Y-59380523D02*
X81928580Y-59332904D01*
X81928580Y-59332904D02*
X81976200Y-59285285D01*
X81976200Y-59285285D02*
X82023819Y-59190047D01*
X82023819Y-59190047D02*
X82023819Y-58999571D01*
X82023819Y-58999571D02*
X81976200Y-58904333D01*
X81976200Y-58904333D02*
X81928580Y-58856714D01*
X81928580Y-58856714D02*
X81833342Y-58809095D01*
X81833342Y-58809095D02*
X81595247Y-58809095D01*
X81595247Y-58809095D02*
X81500009Y-58856714D01*
X81500009Y-58856714D02*
X81452390Y-58904333D01*
X81452390Y-58904333D02*
X81404771Y-58999571D01*
X81404771Y-58999571D02*
X81404771Y-59190047D01*
X81404771Y-59190047D02*
X81452390Y-59285285D01*
X81452390Y-59285285D02*
X81500009Y-59332904D01*
X81500009Y-59332904D02*
X81595247Y-59380523D01*
X88428533Y-50492819D02*
X88095200Y-50016628D01*
X87857105Y-50492819D02*
X87857105Y-49492819D01*
X87857105Y-49492819D02*
X88238057Y-49492819D01*
X88238057Y-49492819D02*
X88333295Y-49540438D01*
X88333295Y-49540438D02*
X88380914Y-49588057D01*
X88380914Y-49588057D02*
X88428533Y-49683295D01*
X88428533Y-49683295D02*
X88428533Y-49826152D01*
X88428533Y-49826152D02*
X88380914Y-49921390D01*
X88380914Y-49921390D02*
X88333295Y-49969009D01*
X88333295Y-49969009D02*
X88238057Y-50016628D01*
X88238057Y-50016628D02*
X87857105Y-50016628D01*
X88761867Y-49492819D02*
X89380914Y-49492819D01*
X89380914Y-49492819D02*
X89047581Y-49873771D01*
X89047581Y-49873771D02*
X89190438Y-49873771D01*
X89190438Y-49873771D02*
X89285676Y-49921390D01*
X89285676Y-49921390D02*
X89333295Y-49969009D01*
X89333295Y-49969009D02*
X89380914Y-50064247D01*
X89380914Y-50064247D02*
X89380914Y-50302342D01*
X89380914Y-50302342D02*
X89333295Y-50397580D01*
X89333295Y-50397580D02*
X89285676Y-50445200D01*
X89285676Y-50445200D02*
X89190438Y-50492819D01*
X89190438Y-50492819D02*
X88904724Y-50492819D01*
X88904724Y-50492819D02*
X88809486Y-50445200D01*
X88809486Y-50445200D02*
X88761867Y-50397580D01*
X99673580Y-73896457D02*
X99721200Y-73944076D01*
X99721200Y-73944076D02*
X99768819Y-74086933D01*
X99768819Y-74086933D02*
X99768819Y-74182171D01*
X99768819Y-74182171D02*
X99721200Y-74325028D01*
X99721200Y-74325028D02*
X99625961Y-74420266D01*
X99625961Y-74420266D02*
X99530723Y-74467885D01*
X99530723Y-74467885D02*
X99340247Y-74515504D01*
X99340247Y-74515504D02*
X99197390Y-74515504D01*
X99197390Y-74515504D02*
X99006914Y-74467885D01*
X99006914Y-74467885D02*
X98911676Y-74420266D01*
X98911676Y-74420266D02*
X98816438Y-74325028D01*
X98816438Y-74325028D02*
X98768819Y-74182171D01*
X98768819Y-74182171D02*
X98768819Y-74086933D01*
X98768819Y-74086933D02*
X98816438Y-73944076D01*
X98816438Y-73944076D02*
X98864057Y-73896457D01*
X99768819Y-72944076D02*
X99768819Y-73515504D01*
X99768819Y-73229790D02*
X98768819Y-73229790D01*
X98768819Y-73229790D02*
X98911676Y-73325028D01*
X98911676Y-73325028D02*
X99006914Y-73420266D01*
X99006914Y-73420266D02*
X99054533Y-73515504D01*
X99768819Y-71991695D02*
X99768819Y-72563123D01*
X99768819Y-72277409D02*
X98768819Y-72277409D01*
X98768819Y-72277409D02*
X98911676Y-72372647D01*
X98911676Y-72372647D02*
X99006914Y-72467885D01*
X99006914Y-72467885D02*
X99054533Y-72563123D01*
X108725580Y-50804666D02*
X108773200Y-50852285D01*
X108773200Y-50852285D02*
X108820819Y-50995142D01*
X108820819Y-50995142D02*
X108820819Y-51090380D01*
X108820819Y-51090380D02*
X108773200Y-51233237D01*
X108773200Y-51233237D02*
X108677961Y-51328475D01*
X108677961Y-51328475D02*
X108582723Y-51376094D01*
X108582723Y-51376094D02*
X108392247Y-51423713D01*
X108392247Y-51423713D02*
X108249390Y-51423713D01*
X108249390Y-51423713D02*
X108058914Y-51376094D01*
X108058914Y-51376094D02*
X107963676Y-51328475D01*
X107963676Y-51328475D02*
X107868438Y-51233237D01*
X107868438Y-51233237D02*
X107820819Y-51090380D01*
X107820819Y-51090380D02*
X107820819Y-50995142D01*
X107820819Y-50995142D02*
X107868438Y-50852285D01*
X107868438Y-50852285D02*
X107916057Y-50804666D01*
X108820819Y-49852285D02*
X108820819Y-50423713D01*
X108820819Y-50137999D02*
X107820819Y-50137999D01*
X107820819Y-50137999D02*
X107963676Y-50233237D01*
X107963676Y-50233237D02*
X108058914Y-50328475D01*
X108058914Y-50328475D02*
X108106533Y-50423713D01*
X104100333Y-54429819D02*
X103767000Y-53953628D01*
X103528905Y-54429819D02*
X103528905Y-53429819D01*
X103528905Y-53429819D02*
X103909857Y-53429819D01*
X103909857Y-53429819D02*
X104005095Y-53477438D01*
X104005095Y-53477438D02*
X104052714Y-53525057D01*
X104052714Y-53525057D02*
X104100333Y-53620295D01*
X104100333Y-53620295D02*
X104100333Y-53763152D01*
X104100333Y-53763152D02*
X104052714Y-53858390D01*
X104052714Y-53858390D02*
X104005095Y-53906009D01*
X104005095Y-53906009D02*
X103909857Y-53953628D01*
X103909857Y-53953628D02*
X103528905Y-53953628D01*
X104957476Y-53429819D02*
X104767000Y-53429819D01*
X104767000Y-53429819D02*
X104671762Y-53477438D01*
X104671762Y-53477438D02*
X104624143Y-53525057D01*
X104624143Y-53525057D02*
X104528905Y-53667914D01*
X104528905Y-53667914D02*
X104481286Y-53858390D01*
X104481286Y-53858390D02*
X104481286Y-54239342D01*
X104481286Y-54239342D02*
X104528905Y-54334580D01*
X104528905Y-54334580D02*
X104576524Y-54382200D01*
X104576524Y-54382200D02*
X104671762Y-54429819D01*
X104671762Y-54429819D02*
X104862238Y-54429819D01*
X104862238Y-54429819D02*
X104957476Y-54382200D01*
X104957476Y-54382200D02*
X105005095Y-54334580D01*
X105005095Y-54334580D02*
X105052714Y-54239342D01*
X105052714Y-54239342D02*
X105052714Y-54001247D01*
X105052714Y-54001247D02*
X105005095Y-53906009D01*
X105005095Y-53906009D02*
X104957476Y-53858390D01*
X104957476Y-53858390D02*
X104862238Y-53810771D01*
X104862238Y-53810771D02*
X104671762Y-53810771D01*
X104671762Y-53810771D02*
X104576524Y-53858390D01*
X104576524Y-53858390D02*
X104528905Y-53906009D01*
X104528905Y-53906009D02*
X104481286Y-54001247D01*
X87876142Y-58754819D02*
X87542809Y-58278628D01*
X87304714Y-58754819D02*
X87304714Y-57754819D01*
X87304714Y-57754819D02*
X87685666Y-57754819D01*
X87685666Y-57754819D02*
X87780904Y-57802438D01*
X87780904Y-57802438D02*
X87828523Y-57850057D01*
X87828523Y-57850057D02*
X87876142Y-57945295D01*
X87876142Y-57945295D02*
X87876142Y-58088152D01*
X87876142Y-58088152D02*
X87828523Y-58183390D01*
X87828523Y-58183390D02*
X87780904Y-58231009D01*
X87780904Y-58231009D02*
X87685666Y-58278628D01*
X87685666Y-58278628D02*
X87304714Y-58278628D01*
X88828523Y-58754819D02*
X88257095Y-58754819D01*
X88542809Y-58754819D02*
X88542809Y-57754819D01*
X88542809Y-57754819D02*
X88447571Y-57897676D01*
X88447571Y-57897676D02*
X88352333Y-57992914D01*
X88352333Y-57992914D02*
X88257095Y-58040533D01*
X89161857Y-57754819D02*
X89780904Y-57754819D01*
X89780904Y-57754819D02*
X89447571Y-58135771D01*
X89447571Y-58135771D02*
X89590428Y-58135771D01*
X89590428Y-58135771D02*
X89685666Y-58183390D01*
X89685666Y-58183390D02*
X89733285Y-58231009D01*
X89733285Y-58231009D02*
X89780904Y-58326247D01*
X89780904Y-58326247D02*
X89780904Y-58564342D01*
X89780904Y-58564342D02*
X89733285Y-58659580D01*
X89733285Y-58659580D02*
X89685666Y-58707200D01*
X89685666Y-58707200D02*
X89590428Y-58754819D01*
X89590428Y-58754819D02*
X89304714Y-58754819D01*
X89304714Y-58754819D02*
X89209476Y-58707200D01*
X89209476Y-58707200D02*
X89161857Y-58659580D01*
X99972485Y-64700790D02*
X99972485Y-64768134D01*
X99972485Y-64768134D02*
X99905141Y-64902821D01*
X99905141Y-64902821D02*
X99837798Y-64970164D01*
X99837798Y-64970164D02*
X99703111Y-65037508D01*
X99703111Y-65037508D02*
X99568424Y-65037508D01*
X99568424Y-65037508D02*
X99467409Y-65003836D01*
X99467409Y-65003836D02*
X99299050Y-64902821D01*
X99299050Y-64902821D02*
X99198035Y-64801806D01*
X99198035Y-64801806D02*
X99097019Y-64633447D01*
X99097019Y-64633447D02*
X99063348Y-64532432D01*
X99063348Y-64532432D02*
X99063348Y-64397745D01*
X99063348Y-64397745D02*
X99130691Y-64263058D01*
X99130691Y-64263058D02*
X99198035Y-64195714D01*
X99198035Y-64195714D02*
X99332722Y-64128371D01*
X99332722Y-64128371D02*
X99400065Y-64128371D01*
X100713263Y-64094699D02*
X100309202Y-64498760D01*
X100511233Y-64296729D02*
X99804126Y-63589623D01*
X99804126Y-63589623D02*
X99837798Y-63757981D01*
X99837798Y-63757981D02*
X99837798Y-63892668D01*
X99837798Y-63892668D02*
X99804126Y-63993684D01*
X100847951Y-63017203D02*
X101319355Y-63488607D01*
X100410218Y-62916187D02*
X100746935Y-63589622D01*
X100746935Y-63589622D02*
X101184668Y-63151890D01*
X73279095Y-47841819D02*
X73279095Y-48651342D01*
X73279095Y-48651342D02*
X73326714Y-48746580D01*
X73326714Y-48746580D02*
X73374333Y-48794200D01*
X73374333Y-48794200D02*
X73469571Y-48841819D01*
X73469571Y-48841819D02*
X73660047Y-48841819D01*
X73660047Y-48841819D02*
X73755285Y-48794200D01*
X73755285Y-48794200D02*
X73802904Y-48746580D01*
X73802904Y-48746580D02*
X73850523Y-48651342D01*
X73850523Y-48651342D02*
X73850523Y-47841819D01*
X74231476Y-47841819D02*
X74850523Y-47841819D01*
X74850523Y-47841819D02*
X74517190Y-48222771D01*
X74517190Y-48222771D02*
X74660047Y-48222771D01*
X74660047Y-48222771D02*
X74755285Y-48270390D01*
X74755285Y-48270390D02*
X74802904Y-48318009D01*
X74802904Y-48318009D02*
X74850523Y-48413247D01*
X74850523Y-48413247D02*
X74850523Y-48651342D01*
X74850523Y-48651342D02*
X74802904Y-48746580D01*
X74802904Y-48746580D02*
X74755285Y-48794200D01*
X74755285Y-48794200D02*
X74660047Y-48841819D01*
X74660047Y-48841819D02*
X74374333Y-48841819D01*
X74374333Y-48841819D02*
X74279095Y-48794200D01*
X74279095Y-48794200D02*
X74231476Y-48746580D01*
X115362580Y-50839666D02*
X115410200Y-50887285D01*
X115410200Y-50887285D02*
X115457819Y-51030142D01*
X115457819Y-51030142D02*
X115457819Y-51125380D01*
X115457819Y-51125380D02*
X115410200Y-51268237D01*
X115410200Y-51268237D02*
X115314961Y-51363475D01*
X115314961Y-51363475D02*
X115219723Y-51411094D01*
X115219723Y-51411094D02*
X115029247Y-51458713D01*
X115029247Y-51458713D02*
X114886390Y-51458713D01*
X114886390Y-51458713D02*
X114695914Y-51411094D01*
X114695914Y-51411094D02*
X114600676Y-51363475D01*
X114600676Y-51363475D02*
X114505438Y-51268237D01*
X114505438Y-51268237D02*
X114457819Y-51125380D01*
X114457819Y-51125380D02*
X114457819Y-51030142D01*
X114457819Y-51030142D02*
X114505438Y-50887285D01*
X114505438Y-50887285D02*
X114553057Y-50839666D01*
X114553057Y-50458713D02*
X114505438Y-50411094D01*
X114505438Y-50411094D02*
X114457819Y-50315856D01*
X114457819Y-50315856D02*
X114457819Y-50077761D01*
X114457819Y-50077761D02*
X114505438Y-49982523D01*
X114505438Y-49982523D02*
X114553057Y-49934904D01*
X114553057Y-49934904D02*
X114648295Y-49887285D01*
X114648295Y-49887285D02*
X114743533Y-49887285D01*
X114743533Y-49887285D02*
X114886390Y-49934904D01*
X114886390Y-49934904D02*
X115457819Y-50506332D01*
X115457819Y-50506332D02*
X115457819Y-49887285D01*
X104481333Y-57604819D02*
X104148000Y-57128628D01*
X103909905Y-57604819D02*
X103909905Y-56604819D01*
X103909905Y-56604819D02*
X104290857Y-56604819D01*
X104290857Y-56604819D02*
X104386095Y-56652438D01*
X104386095Y-56652438D02*
X104433714Y-56700057D01*
X104433714Y-56700057D02*
X104481333Y-56795295D01*
X104481333Y-56795295D02*
X104481333Y-56938152D01*
X104481333Y-56938152D02*
X104433714Y-57033390D01*
X104433714Y-57033390D02*
X104386095Y-57081009D01*
X104386095Y-57081009D02*
X104290857Y-57128628D01*
X104290857Y-57128628D02*
X103909905Y-57128628D01*
X104814667Y-56604819D02*
X105481333Y-56604819D01*
X105481333Y-56604819D02*
X105052762Y-57604819D01*
X70119047Y-73931009D02*
X70261904Y-73978628D01*
X70261904Y-73978628D02*
X70309523Y-74026247D01*
X70309523Y-74026247D02*
X70357142Y-74121485D01*
X70357142Y-74121485D02*
X70357142Y-74264342D01*
X70357142Y-74264342D02*
X70309523Y-74359580D01*
X70309523Y-74359580D02*
X70261904Y-74407200D01*
X70261904Y-74407200D02*
X70166666Y-74454819D01*
X70166666Y-74454819D02*
X69785714Y-74454819D01*
X69785714Y-74454819D02*
X69785714Y-73454819D01*
X69785714Y-73454819D02*
X70119047Y-73454819D01*
X70119047Y-73454819D02*
X70214285Y-73502438D01*
X70214285Y-73502438D02*
X70261904Y-73550057D01*
X70261904Y-73550057D02*
X70309523Y-73645295D01*
X70309523Y-73645295D02*
X70309523Y-73740533D01*
X70309523Y-73740533D02*
X70261904Y-73835771D01*
X70261904Y-73835771D02*
X70214285Y-73883390D01*
X70214285Y-73883390D02*
X70119047Y-73931009D01*
X70119047Y-73931009D02*
X69785714Y-73931009D01*
X70690476Y-73454819D02*
X71357142Y-73454819D01*
X71357142Y-73454819D02*
X70690476Y-74454819D01*
X70690476Y-74454819D02*
X71357142Y-74454819D01*
X72261904Y-74454819D02*
X71690476Y-74454819D01*
X71976190Y-74454819D02*
X71976190Y-73454819D01*
X71976190Y-73454819D02*
X71880952Y-73597676D01*
X71880952Y-73597676D02*
X71785714Y-73692914D01*
X71785714Y-73692914D02*
X71690476Y-73740533D01*
X67119048Y-68473866D02*
X67880953Y-68473866D01*
X67500000Y-68854819D02*
X67500000Y-68092914D01*
X87876142Y-54078819D02*
X87542809Y-53602628D01*
X87304714Y-54078819D02*
X87304714Y-53078819D01*
X87304714Y-53078819D02*
X87685666Y-53078819D01*
X87685666Y-53078819D02*
X87780904Y-53126438D01*
X87780904Y-53126438D02*
X87828523Y-53174057D01*
X87828523Y-53174057D02*
X87876142Y-53269295D01*
X87876142Y-53269295D02*
X87876142Y-53412152D01*
X87876142Y-53412152D02*
X87828523Y-53507390D01*
X87828523Y-53507390D02*
X87780904Y-53555009D01*
X87780904Y-53555009D02*
X87685666Y-53602628D01*
X87685666Y-53602628D02*
X87304714Y-53602628D01*
X88828523Y-54078819D02*
X88257095Y-54078819D01*
X88542809Y-54078819D02*
X88542809Y-53078819D01*
X88542809Y-53078819D02*
X88447571Y-53221676D01*
X88447571Y-53221676D02*
X88352333Y-53316914D01*
X88352333Y-53316914D02*
X88257095Y-53364533D01*
X89780904Y-54078819D02*
X89209476Y-54078819D01*
X89495190Y-54078819D02*
X89495190Y-53078819D01*
X89495190Y-53078819D02*
X89399952Y-53221676D01*
X89399952Y-53221676D02*
X89304714Y-53316914D01*
X89304714Y-53316914D02*
X89209476Y-53364533D01*
X70955067Y-29414000D02*
X71097924Y-29461619D01*
X71097924Y-29461619D02*
X71336019Y-29461619D01*
X71336019Y-29461619D02*
X71431257Y-29414000D01*
X71431257Y-29414000D02*
X71478876Y-29366380D01*
X71478876Y-29366380D02*
X71526495Y-29271142D01*
X71526495Y-29271142D02*
X71526495Y-29175904D01*
X71526495Y-29175904D02*
X71478876Y-29080666D01*
X71478876Y-29080666D02*
X71431257Y-29033047D01*
X71431257Y-29033047D02*
X71336019Y-28985428D01*
X71336019Y-28985428D02*
X71145543Y-28937809D01*
X71145543Y-28937809D02*
X71050305Y-28890190D01*
X71050305Y-28890190D02*
X71002686Y-28842571D01*
X71002686Y-28842571D02*
X70955067Y-28747333D01*
X70955067Y-28747333D02*
X70955067Y-28652095D01*
X70955067Y-28652095D02*
X71002686Y-28556857D01*
X71002686Y-28556857D02*
X71050305Y-28509238D01*
X71050305Y-28509238D02*
X71145543Y-28461619D01*
X71145543Y-28461619D02*
X71383638Y-28461619D01*
X71383638Y-28461619D02*
X71526495Y-28509238D01*
X71859829Y-28461619D02*
X72097924Y-29461619D01*
X72097924Y-29461619D02*
X72288400Y-28747333D01*
X72288400Y-28747333D02*
X72478876Y-29461619D01*
X72478876Y-29461619D02*
X72716972Y-28461619D01*
X73621733Y-29461619D02*
X73050305Y-29461619D01*
X73336019Y-29461619D02*
X73336019Y-28461619D01*
X73336019Y-28461619D02*
X73240781Y-28604476D01*
X73240781Y-28604476D02*
X73145543Y-28699714D01*
X73145543Y-28699714D02*
X73050305Y-28747333D01*
X104354333Y-51381819D02*
X104021000Y-50905628D01*
X103782905Y-51381819D02*
X103782905Y-50381819D01*
X103782905Y-50381819D02*
X104163857Y-50381819D01*
X104163857Y-50381819D02*
X104259095Y-50429438D01*
X104259095Y-50429438D02*
X104306714Y-50477057D01*
X104306714Y-50477057D02*
X104354333Y-50572295D01*
X104354333Y-50572295D02*
X104354333Y-50715152D01*
X104354333Y-50715152D02*
X104306714Y-50810390D01*
X104306714Y-50810390D02*
X104259095Y-50858009D01*
X104259095Y-50858009D02*
X104163857Y-50905628D01*
X104163857Y-50905628D02*
X103782905Y-50905628D01*
X105211476Y-50715152D02*
X105211476Y-51381819D01*
X104973381Y-50334200D02*
X104735286Y-51048485D01*
X104735286Y-51048485D02*
X105354333Y-51048485D01*
X107124667Y-87986400D02*
X107267524Y-88034019D01*
X107267524Y-88034019D02*
X107505619Y-88034019D01*
X107505619Y-88034019D02*
X107600857Y-87986400D01*
X107600857Y-87986400D02*
X107648476Y-87938780D01*
X107648476Y-87938780D02*
X107696095Y-87843542D01*
X107696095Y-87843542D02*
X107696095Y-87748304D01*
X107696095Y-87748304D02*
X107648476Y-87653066D01*
X107648476Y-87653066D02*
X107600857Y-87605447D01*
X107600857Y-87605447D02*
X107505619Y-87557828D01*
X107505619Y-87557828D02*
X107315143Y-87510209D01*
X107315143Y-87510209D02*
X107219905Y-87462590D01*
X107219905Y-87462590D02*
X107172286Y-87414971D01*
X107172286Y-87414971D02*
X107124667Y-87319733D01*
X107124667Y-87319733D02*
X107124667Y-87224495D01*
X107124667Y-87224495D02*
X107172286Y-87129257D01*
X107172286Y-87129257D02*
X107219905Y-87081638D01*
X107219905Y-87081638D02*
X107315143Y-87034019D01*
X107315143Y-87034019D02*
X107553238Y-87034019D01*
X107553238Y-87034019D02*
X107696095Y-87081638D01*
X108029429Y-87034019D02*
X108267524Y-88034019D01*
X108267524Y-88034019D02*
X108458000Y-87319733D01*
X108458000Y-87319733D02*
X108648476Y-88034019D01*
X108648476Y-88034019D02*
X108886572Y-87034019D01*
X109696095Y-87367352D02*
X109696095Y-88034019D01*
X109458000Y-86986400D02*
X109219905Y-87700685D01*
X109219905Y-87700685D02*
X109838952Y-87700685D01*
X89370819Y-70738904D02*
X90180342Y-70738904D01*
X90180342Y-70738904D02*
X90275580Y-70691285D01*
X90275580Y-70691285D02*
X90323200Y-70643666D01*
X90323200Y-70643666D02*
X90370819Y-70548428D01*
X90370819Y-70548428D02*
X90370819Y-70357952D01*
X90370819Y-70357952D02*
X90323200Y-70262714D01*
X90323200Y-70262714D02*
X90275580Y-70215095D01*
X90275580Y-70215095D02*
X90180342Y-70167476D01*
X90180342Y-70167476D02*
X89370819Y-70167476D01*
X89370819Y-69215095D02*
X89370819Y-69691285D01*
X89370819Y-69691285D02*
X89847009Y-69738904D01*
X89847009Y-69738904D02*
X89799390Y-69691285D01*
X89799390Y-69691285D02*
X89751771Y-69596047D01*
X89751771Y-69596047D02*
X89751771Y-69357952D01*
X89751771Y-69357952D02*
X89799390Y-69262714D01*
X89799390Y-69262714D02*
X89847009Y-69215095D01*
X89847009Y-69215095D02*
X89942247Y-69167476D01*
X89942247Y-69167476D02*
X90180342Y-69167476D01*
X90180342Y-69167476D02*
X90275580Y-69215095D01*
X90275580Y-69215095D02*
X90323200Y-69262714D01*
X90323200Y-69262714D02*
X90370819Y-69357952D01*
X90370819Y-69357952D02*
X90370819Y-69596047D01*
X90370819Y-69596047D02*
X90323200Y-69691285D01*
X90323200Y-69691285D02*
X90275580Y-69738904D01*
X87876142Y-55348819D02*
X87542809Y-54872628D01*
X87304714Y-55348819D02*
X87304714Y-54348819D01*
X87304714Y-54348819D02*
X87685666Y-54348819D01*
X87685666Y-54348819D02*
X87780904Y-54396438D01*
X87780904Y-54396438D02*
X87828523Y-54444057D01*
X87828523Y-54444057D02*
X87876142Y-54539295D01*
X87876142Y-54539295D02*
X87876142Y-54682152D01*
X87876142Y-54682152D02*
X87828523Y-54777390D01*
X87828523Y-54777390D02*
X87780904Y-54825009D01*
X87780904Y-54825009D02*
X87685666Y-54872628D01*
X87685666Y-54872628D02*
X87304714Y-54872628D01*
X88828523Y-55348819D02*
X88257095Y-55348819D01*
X88542809Y-55348819D02*
X88542809Y-54348819D01*
X88542809Y-54348819D02*
X88447571Y-54491676D01*
X88447571Y-54491676D02*
X88352333Y-54586914D01*
X88352333Y-54586914D02*
X88257095Y-54634533D01*
X89447571Y-54348819D02*
X89542809Y-54348819D01*
X89542809Y-54348819D02*
X89638047Y-54396438D01*
X89638047Y-54396438D02*
X89685666Y-54444057D01*
X89685666Y-54444057D02*
X89733285Y-54539295D01*
X89733285Y-54539295D02*
X89780904Y-54729771D01*
X89780904Y-54729771D02*
X89780904Y-54967866D01*
X89780904Y-54967866D02*
X89733285Y-55158342D01*
X89733285Y-55158342D02*
X89685666Y-55253580D01*
X89685666Y-55253580D02*
X89638047Y-55301200D01*
X89638047Y-55301200D02*
X89542809Y-55348819D01*
X89542809Y-55348819D02*
X89447571Y-55348819D01*
X89447571Y-55348819D02*
X89352333Y-55301200D01*
X89352333Y-55301200D02*
X89304714Y-55253580D01*
X89304714Y-55253580D02*
X89257095Y-55158342D01*
X89257095Y-55158342D02*
X89209476Y-54967866D01*
X89209476Y-54967866D02*
X89209476Y-54729771D01*
X89209476Y-54729771D02*
X89257095Y-54539295D01*
X89257095Y-54539295D02*
X89304714Y-54444057D01*
X89304714Y-54444057D02*
X89352333Y-54396438D01*
X89352333Y-54396438D02*
X89447571Y-54348819D01*
X96759733Y-72546380D02*
X96712114Y-72594000D01*
X96712114Y-72594000D02*
X96569257Y-72641619D01*
X96569257Y-72641619D02*
X96474019Y-72641619D01*
X96474019Y-72641619D02*
X96331162Y-72594000D01*
X96331162Y-72594000D02*
X96235924Y-72498761D01*
X96235924Y-72498761D02*
X96188305Y-72403523D01*
X96188305Y-72403523D02*
X96140686Y-72213047D01*
X96140686Y-72213047D02*
X96140686Y-72070190D01*
X96140686Y-72070190D02*
X96188305Y-71879714D01*
X96188305Y-71879714D02*
X96235924Y-71784476D01*
X96235924Y-71784476D02*
X96331162Y-71689238D01*
X96331162Y-71689238D02*
X96474019Y-71641619D01*
X96474019Y-71641619D02*
X96569257Y-71641619D01*
X96569257Y-71641619D02*
X96712114Y-71689238D01*
X96712114Y-71689238D02*
X96759733Y-71736857D01*
X97235924Y-72641619D02*
X97426400Y-72641619D01*
X97426400Y-72641619D02*
X97521638Y-72594000D01*
X97521638Y-72594000D02*
X97569257Y-72546380D01*
X97569257Y-72546380D02*
X97664495Y-72403523D01*
X97664495Y-72403523D02*
X97712114Y-72213047D01*
X97712114Y-72213047D02*
X97712114Y-71832095D01*
X97712114Y-71832095D02*
X97664495Y-71736857D01*
X97664495Y-71736857D02*
X97616876Y-71689238D01*
X97616876Y-71689238D02*
X97521638Y-71641619D01*
X97521638Y-71641619D02*
X97331162Y-71641619D01*
X97331162Y-71641619D02*
X97235924Y-71689238D01*
X97235924Y-71689238D02*
X97188305Y-71736857D01*
X97188305Y-71736857D02*
X97140686Y-71832095D01*
X97140686Y-71832095D02*
X97140686Y-72070190D01*
X97140686Y-72070190D02*
X97188305Y-72165428D01*
X97188305Y-72165428D02*
X97235924Y-72213047D01*
X97235924Y-72213047D02*
X97331162Y-72260666D01*
X97331162Y-72260666D02*
X97521638Y-72260666D01*
X97521638Y-72260666D02*
X97616876Y-72213047D01*
X97616876Y-72213047D02*
X97664495Y-72165428D01*
X97664495Y-72165428D02*
X97712114Y-72070190D01*
X95850095Y-47968819D02*
X95850095Y-48778342D01*
X95850095Y-48778342D02*
X95897714Y-48873580D01*
X95897714Y-48873580D02*
X95945333Y-48921200D01*
X95945333Y-48921200D02*
X96040571Y-48968819D01*
X96040571Y-48968819D02*
X96231047Y-48968819D01*
X96231047Y-48968819D02*
X96326285Y-48921200D01*
X96326285Y-48921200D02*
X96373904Y-48873580D01*
X96373904Y-48873580D02*
X96421523Y-48778342D01*
X96421523Y-48778342D02*
X96421523Y-47968819D01*
X97421523Y-48968819D02*
X96850095Y-48968819D01*
X97135809Y-48968819D02*
X97135809Y-47968819D01*
X97135809Y-47968819D02*
X97040571Y-48111676D01*
X97040571Y-48111676D02*
X96945333Y-48206914D01*
X96945333Y-48206914D02*
X96850095Y-48254533D01*
X87876142Y-57380819D02*
X87542809Y-56904628D01*
X87304714Y-57380819D02*
X87304714Y-56380819D01*
X87304714Y-56380819D02*
X87685666Y-56380819D01*
X87685666Y-56380819D02*
X87780904Y-56428438D01*
X87780904Y-56428438D02*
X87828523Y-56476057D01*
X87828523Y-56476057D02*
X87876142Y-56571295D01*
X87876142Y-56571295D02*
X87876142Y-56714152D01*
X87876142Y-56714152D02*
X87828523Y-56809390D01*
X87828523Y-56809390D02*
X87780904Y-56857009D01*
X87780904Y-56857009D02*
X87685666Y-56904628D01*
X87685666Y-56904628D02*
X87304714Y-56904628D01*
X88828523Y-57380819D02*
X88257095Y-57380819D01*
X88542809Y-57380819D02*
X88542809Y-56380819D01*
X88542809Y-56380819D02*
X88447571Y-56523676D01*
X88447571Y-56523676D02*
X88352333Y-56618914D01*
X88352333Y-56618914D02*
X88257095Y-56666533D01*
X89209476Y-56476057D02*
X89257095Y-56428438D01*
X89257095Y-56428438D02*
X89352333Y-56380819D01*
X89352333Y-56380819D02*
X89590428Y-56380819D01*
X89590428Y-56380819D02*
X89685666Y-56428438D01*
X89685666Y-56428438D02*
X89733285Y-56476057D01*
X89733285Y-56476057D02*
X89780904Y-56571295D01*
X89780904Y-56571295D02*
X89780904Y-56666533D01*
X89780904Y-56666533D02*
X89733285Y-56809390D01*
X89733285Y-56809390D02*
X89161857Y-57380819D01*
X89161857Y-57380819D02*
X89780904Y-57380819D01*
X94037161Y-65777257D02*
X93941923Y-65729638D01*
X93941923Y-65729638D02*
X93846685Y-65634400D01*
X93846685Y-65634400D02*
X93703828Y-65491542D01*
X93703828Y-65491542D02*
X93608590Y-65443923D01*
X93608590Y-65443923D02*
X93513352Y-65443923D01*
X93560971Y-65682019D02*
X93465733Y-65634400D01*
X93465733Y-65634400D02*
X93370495Y-65539161D01*
X93370495Y-65539161D02*
X93322876Y-65348685D01*
X93322876Y-65348685D02*
X93322876Y-65015352D01*
X93322876Y-65015352D02*
X93370495Y-64824876D01*
X93370495Y-64824876D02*
X93465733Y-64729638D01*
X93465733Y-64729638D02*
X93560971Y-64682019D01*
X93560971Y-64682019D02*
X93751447Y-64682019D01*
X93751447Y-64682019D02*
X93846685Y-64729638D01*
X93846685Y-64729638D02*
X93941923Y-64824876D01*
X93941923Y-64824876D02*
X93989542Y-65015352D01*
X93989542Y-65015352D02*
X93989542Y-65348685D01*
X93989542Y-65348685D02*
X93941923Y-65539161D01*
X93941923Y-65539161D02*
X93846685Y-65634400D01*
X93846685Y-65634400D02*
X93751447Y-65682019D01*
X93751447Y-65682019D02*
X93560971Y-65682019D01*
X94370495Y-64777257D02*
X94418114Y-64729638D01*
X94418114Y-64729638D02*
X94513352Y-64682019D01*
X94513352Y-64682019D02*
X94751447Y-64682019D01*
X94751447Y-64682019D02*
X94846685Y-64729638D01*
X94846685Y-64729638D02*
X94894304Y-64777257D01*
X94894304Y-64777257D02*
X94941923Y-64872495D01*
X94941923Y-64872495D02*
X94941923Y-64967733D01*
X94941923Y-64967733D02*
X94894304Y-65110590D01*
X94894304Y-65110590D02*
X94322876Y-65682019D01*
X94322876Y-65682019D02*
X94941923Y-65682019D01*
X89831942Y-65783619D02*
X89498609Y-65307428D01*
X89260514Y-65783619D02*
X89260514Y-64783619D01*
X89260514Y-64783619D02*
X89641466Y-64783619D01*
X89641466Y-64783619D02*
X89736704Y-64831238D01*
X89736704Y-64831238D02*
X89784323Y-64878857D01*
X89784323Y-64878857D02*
X89831942Y-64974095D01*
X89831942Y-64974095D02*
X89831942Y-65116952D01*
X89831942Y-65116952D02*
X89784323Y-65212190D01*
X89784323Y-65212190D02*
X89736704Y-65259809D01*
X89736704Y-65259809D02*
X89641466Y-65307428D01*
X89641466Y-65307428D02*
X89260514Y-65307428D01*
X90212895Y-64878857D02*
X90260514Y-64831238D01*
X90260514Y-64831238D02*
X90355752Y-64783619D01*
X90355752Y-64783619D02*
X90593847Y-64783619D01*
X90593847Y-64783619D02*
X90689085Y-64831238D01*
X90689085Y-64831238D02*
X90736704Y-64878857D01*
X90736704Y-64878857D02*
X90784323Y-64974095D01*
X90784323Y-64974095D02*
X90784323Y-65069333D01*
X90784323Y-65069333D02*
X90736704Y-65212190D01*
X90736704Y-65212190D02*
X90165276Y-65783619D01*
X90165276Y-65783619D02*
X90784323Y-65783619D01*
X91403371Y-64783619D02*
X91498609Y-64783619D01*
X91498609Y-64783619D02*
X91593847Y-64831238D01*
X91593847Y-64831238D02*
X91641466Y-64878857D01*
X91641466Y-64878857D02*
X91689085Y-64974095D01*
X91689085Y-64974095D02*
X91736704Y-65164571D01*
X91736704Y-65164571D02*
X91736704Y-65402666D01*
X91736704Y-65402666D02*
X91689085Y-65593142D01*
X91689085Y-65593142D02*
X91641466Y-65688380D01*
X91641466Y-65688380D02*
X91593847Y-65736000D01*
X91593847Y-65736000D02*
X91498609Y-65783619D01*
X91498609Y-65783619D02*
X91403371Y-65783619D01*
X91403371Y-65783619D02*
X91308133Y-65736000D01*
X91308133Y-65736000D02*
X91260514Y-65688380D01*
X91260514Y-65688380D02*
X91212895Y-65593142D01*
X91212895Y-65593142D02*
X91165276Y-65402666D01*
X91165276Y-65402666D02*
X91165276Y-65164571D01*
X91165276Y-65164571D02*
X91212895Y-64974095D01*
X91212895Y-64974095D02*
X91260514Y-64878857D01*
X91260514Y-64878857D02*
X91308133Y-64831238D01*
X91308133Y-64831238D02*
X91403371Y-64783619D01*
X94336819Y-75976857D02*
X93860628Y-76310190D01*
X94336819Y-76548285D02*
X93336819Y-76548285D01*
X93336819Y-76548285D02*
X93336819Y-76167333D01*
X93336819Y-76167333D02*
X93384438Y-76072095D01*
X93384438Y-76072095D02*
X93432057Y-76024476D01*
X93432057Y-76024476D02*
X93527295Y-75976857D01*
X93527295Y-75976857D02*
X93670152Y-75976857D01*
X93670152Y-75976857D02*
X93765390Y-76024476D01*
X93765390Y-76024476D02*
X93813009Y-76072095D01*
X93813009Y-76072095D02*
X93860628Y-76167333D01*
X93860628Y-76167333D02*
X93860628Y-76548285D01*
X94336819Y-75024476D02*
X94336819Y-75595904D01*
X94336819Y-75310190D02*
X93336819Y-75310190D01*
X93336819Y-75310190D02*
X93479676Y-75405428D01*
X93479676Y-75405428D02*
X93574914Y-75500666D01*
X93574914Y-75500666D02*
X93622533Y-75595904D01*
X94336819Y-74548285D02*
X94336819Y-74357809D01*
X94336819Y-74357809D02*
X94289200Y-74262571D01*
X94289200Y-74262571D02*
X94241580Y-74214952D01*
X94241580Y-74214952D02*
X94098723Y-74119714D01*
X94098723Y-74119714D02*
X93908247Y-74072095D01*
X93908247Y-74072095D02*
X93527295Y-74072095D01*
X93527295Y-74072095D02*
X93432057Y-74119714D01*
X93432057Y-74119714D02*
X93384438Y-74167333D01*
X93384438Y-74167333D02*
X93336819Y-74262571D01*
X93336819Y-74262571D02*
X93336819Y-74453047D01*
X93336819Y-74453047D02*
X93384438Y-74548285D01*
X93384438Y-74548285D02*
X93432057Y-74595904D01*
X93432057Y-74595904D02*
X93527295Y-74643523D01*
X93527295Y-74643523D02*
X93765390Y-74643523D01*
X93765390Y-74643523D02*
X93860628Y-74595904D01*
X93860628Y-74595904D02*
X93908247Y-74548285D01*
X93908247Y-74548285D02*
X93955866Y-74453047D01*
X93955866Y-74453047D02*
X93955866Y-74262571D01*
X93955866Y-74262571D02*
X93908247Y-74167333D01*
X93908247Y-74167333D02*
X93860628Y-74119714D01*
X93860628Y-74119714D02*
X93765390Y-74072095D01*
X108690580Y-53568666D02*
X108738200Y-53616285D01*
X108738200Y-53616285D02*
X108785819Y-53759142D01*
X108785819Y-53759142D02*
X108785819Y-53854380D01*
X108785819Y-53854380D02*
X108738200Y-53997237D01*
X108738200Y-53997237D02*
X108642961Y-54092475D01*
X108642961Y-54092475D02*
X108547723Y-54140094D01*
X108547723Y-54140094D02*
X108357247Y-54187713D01*
X108357247Y-54187713D02*
X108214390Y-54187713D01*
X108214390Y-54187713D02*
X108023914Y-54140094D01*
X108023914Y-54140094D02*
X107928676Y-54092475D01*
X107928676Y-54092475D02*
X107833438Y-53997237D01*
X107833438Y-53997237D02*
X107785819Y-53854380D01*
X107785819Y-53854380D02*
X107785819Y-53759142D01*
X107785819Y-53759142D02*
X107833438Y-53616285D01*
X107833438Y-53616285D02*
X107881057Y-53568666D01*
X107785819Y-53235332D02*
X107785819Y-52616285D01*
X107785819Y-52616285D02*
X108166771Y-52949618D01*
X108166771Y-52949618D02*
X108166771Y-52806761D01*
X108166771Y-52806761D02*
X108214390Y-52711523D01*
X108214390Y-52711523D02*
X108262009Y-52663904D01*
X108262009Y-52663904D02*
X108357247Y-52616285D01*
X108357247Y-52616285D02*
X108595342Y-52616285D01*
X108595342Y-52616285D02*
X108690580Y-52663904D01*
X108690580Y-52663904D02*
X108738200Y-52711523D01*
X108738200Y-52711523D02*
X108785819Y-52806761D01*
X108785819Y-52806761D02*
X108785819Y-53092475D01*
X108785819Y-53092475D02*
X108738200Y-53187713D01*
X108738200Y-53187713D02*
X108690580Y-53235332D01*
X104052761Y-79093219D02*
X103719428Y-78617028D01*
X103481333Y-79093219D02*
X103481333Y-78093219D01*
X103481333Y-78093219D02*
X103862285Y-78093219D01*
X103862285Y-78093219D02*
X103957523Y-78140838D01*
X103957523Y-78140838D02*
X104005142Y-78188457D01*
X104005142Y-78188457D02*
X104052761Y-78283695D01*
X104052761Y-78283695D02*
X104052761Y-78426552D01*
X104052761Y-78426552D02*
X104005142Y-78521790D01*
X104005142Y-78521790D02*
X103957523Y-78569409D01*
X103957523Y-78569409D02*
X103862285Y-78617028D01*
X103862285Y-78617028D02*
X103481333Y-78617028D01*
X104338476Y-78093219D02*
X104671809Y-79093219D01*
X104671809Y-79093219D02*
X105005142Y-78093219D01*
X105290857Y-78188457D02*
X105338476Y-78140838D01*
X105338476Y-78140838D02*
X105433714Y-78093219D01*
X105433714Y-78093219D02*
X105671809Y-78093219D01*
X105671809Y-78093219D02*
X105767047Y-78140838D01*
X105767047Y-78140838D02*
X105814666Y-78188457D01*
X105814666Y-78188457D02*
X105862285Y-78283695D01*
X105862285Y-78283695D02*
X105862285Y-78378933D01*
X105862285Y-78378933D02*
X105814666Y-78521790D01*
X105814666Y-78521790D02*
X105243238Y-79093219D01*
X105243238Y-79093219D02*
X105862285Y-79093219D01*
X116557466Y-63056419D02*
X116557466Y-63770704D01*
X116557466Y-63770704D02*
X116509847Y-63913561D01*
X116509847Y-63913561D02*
X116414609Y-64008800D01*
X116414609Y-64008800D02*
X116271752Y-64056419D01*
X116271752Y-64056419D02*
X116176514Y-64056419D01*
X116986038Y-63151657D02*
X117033657Y-63104038D01*
X117033657Y-63104038D02*
X117128895Y-63056419D01*
X117128895Y-63056419D02*
X117366990Y-63056419D01*
X117366990Y-63056419D02*
X117462228Y-63104038D01*
X117462228Y-63104038D02*
X117509847Y-63151657D01*
X117509847Y-63151657D02*
X117557466Y-63246895D01*
X117557466Y-63246895D02*
X117557466Y-63342133D01*
X117557466Y-63342133D02*
X117509847Y-63484990D01*
X117509847Y-63484990D02*
X116938419Y-64056419D01*
X116938419Y-64056419D02*
X117557466Y-64056419D01*
X104628095Y-68304819D02*
X104628095Y-69114342D01*
X104628095Y-69114342D02*
X104675714Y-69209580D01*
X104675714Y-69209580D02*
X104723333Y-69257200D01*
X104723333Y-69257200D02*
X104818571Y-69304819D01*
X104818571Y-69304819D02*
X105009047Y-69304819D01*
X105009047Y-69304819D02*
X105104285Y-69257200D01*
X105104285Y-69257200D02*
X105151904Y-69209580D01*
X105151904Y-69209580D02*
X105199523Y-69114342D01*
X105199523Y-69114342D02*
X105199523Y-68304819D01*
X106104285Y-68304819D02*
X105913809Y-68304819D01*
X105913809Y-68304819D02*
X105818571Y-68352438D01*
X105818571Y-68352438D02*
X105770952Y-68400057D01*
X105770952Y-68400057D02*
X105675714Y-68542914D01*
X105675714Y-68542914D02*
X105628095Y-68733390D01*
X105628095Y-68733390D02*
X105628095Y-69114342D01*
X105628095Y-69114342D02*
X105675714Y-69209580D01*
X105675714Y-69209580D02*
X105723333Y-69257200D01*
X105723333Y-69257200D02*
X105818571Y-69304819D01*
X105818571Y-69304819D02*
X106009047Y-69304819D01*
X106009047Y-69304819D02*
X106104285Y-69257200D01*
X106104285Y-69257200D02*
X106151904Y-69209580D01*
X106151904Y-69209580D02*
X106199523Y-69114342D01*
X106199523Y-69114342D02*
X106199523Y-68876247D01*
X106199523Y-68876247D02*
X106151904Y-68781009D01*
X106151904Y-68781009D02*
X106104285Y-68733390D01*
X106104285Y-68733390D02*
X106009047Y-68685771D01*
X106009047Y-68685771D02*
X105818571Y-68685771D01*
X105818571Y-68685771D02*
X105723333Y-68733390D01*
X105723333Y-68733390D02*
X105675714Y-68781009D01*
X105675714Y-68781009D02*
X105628095Y-68876247D01*
X79589333Y-49000580D02*
X79541714Y-49048200D01*
X79541714Y-49048200D02*
X79398857Y-49095819D01*
X79398857Y-49095819D02*
X79303619Y-49095819D01*
X79303619Y-49095819D02*
X79160762Y-49048200D01*
X79160762Y-49048200D02*
X79065524Y-48952961D01*
X79065524Y-48952961D02*
X79017905Y-48857723D01*
X79017905Y-48857723D02*
X78970286Y-48667247D01*
X78970286Y-48667247D02*
X78970286Y-48524390D01*
X78970286Y-48524390D02*
X79017905Y-48333914D01*
X79017905Y-48333914D02*
X79065524Y-48238676D01*
X79065524Y-48238676D02*
X79160762Y-48143438D01*
X79160762Y-48143438D02*
X79303619Y-48095819D01*
X79303619Y-48095819D02*
X79398857Y-48095819D01*
X79398857Y-48095819D02*
X79541714Y-48143438D01*
X79541714Y-48143438D02*
X79589333Y-48191057D01*
X80494095Y-48095819D02*
X80017905Y-48095819D01*
X80017905Y-48095819D02*
X79970286Y-48572009D01*
X79970286Y-48572009D02*
X80017905Y-48524390D01*
X80017905Y-48524390D02*
X80113143Y-48476771D01*
X80113143Y-48476771D02*
X80351238Y-48476771D01*
X80351238Y-48476771D02*
X80446476Y-48524390D01*
X80446476Y-48524390D02*
X80494095Y-48572009D01*
X80494095Y-48572009D02*
X80541714Y-48667247D01*
X80541714Y-48667247D02*
X80541714Y-48905342D01*
X80541714Y-48905342D02*
X80494095Y-49000580D01*
X80494095Y-49000580D02*
X80446476Y-49048200D01*
X80446476Y-49048200D02*
X80351238Y-49095819D01*
X80351238Y-49095819D02*
X80113143Y-49095819D01*
X80113143Y-49095819D02*
X80017905Y-49048200D01*
X80017905Y-49048200D02*
X79970286Y-49000580D01*
X83566095Y-48019619D02*
X83566095Y-48829142D01*
X83566095Y-48829142D02*
X83613714Y-48924380D01*
X83613714Y-48924380D02*
X83661333Y-48972000D01*
X83661333Y-48972000D02*
X83756571Y-49019619D01*
X83756571Y-49019619D02*
X83947047Y-49019619D01*
X83947047Y-49019619D02*
X84042285Y-48972000D01*
X84042285Y-48972000D02*
X84089904Y-48924380D01*
X84089904Y-48924380D02*
X84137523Y-48829142D01*
X84137523Y-48829142D02*
X84137523Y-48019619D01*
X85042285Y-48352952D02*
X85042285Y-49019619D01*
X84804190Y-47972000D02*
X84566095Y-48686285D01*
X84566095Y-48686285D02*
X85185142Y-48686285D01*
X111719580Y-73092857D02*
X111767200Y-73140476D01*
X111767200Y-73140476D02*
X111814819Y-73283333D01*
X111814819Y-73283333D02*
X111814819Y-73378571D01*
X111814819Y-73378571D02*
X111767200Y-73521428D01*
X111767200Y-73521428D02*
X111671961Y-73616666D01*
X111671961Y-73616666D02*
X111576723Y-73664285D01*
X111576723Y-73664285D02*
X111386247Y-73711904D01*
X111386247Y-73711904D02*
X111243390Y-73711904D01*
X111243390Y-73711904D02*
X111052914Y-73664285D01*
X111052914Y-73664285D02*
X110957676Y-73616666D01*
X110957676Y-73616666D02*
X110862438Y-73521428D01*
X110862438Y-73521428D02*
X110814819Y-73378571D01*
X110814819Y-73378571D02*
X110814819Y-73283333D01*
X110814819Y-73283333D02*
X110862438Y-73140476D01*
X110862438Y-73140476D02*
X110910057Y-73092857D01*
X111814819Y-72140476D02*
X111814819Y-72711904D01*
X111814819Y-72426190D02*
X110814819Y-72426190D01*
X110814819Y-72426190D02*
X110957676Y-72521428D01*
X110957676Y-72521428D02*
X111052914Y-72616666D01*
X111052914Y-72616666D02*
X111100533Y-72711904D01*
X110814819Y-71521428D02*
X110814819Y-71426190D01*
X110814819Y-71426190D02*
X110862438Y-71330952D01*
X110862438Y-71330952D02*
X110910057Y-71283333D01*
X110910057Y-71283333D02*
X111005295Y-71235714D01*
X111005295Y-71235714D02*
X111195771Y-71188095D01*
X111195771Y-71188095D02*
X111433866Y-71188095D01*
X111433866Y-71188095D02*
X111624342Y-71235714D01*
X111624342Y-71235714D02*
X111719580Y-71283333D01*
X111719580Y-71283333D02*
X111767200Y-71330952D01*
X111767200Y-71330952D02*
X111814819Y-71426190D01*
X111814819Y-71426190D02*
X111814819Y-71521428D01*
X111814819Y-71521428D02*
X111767200Y-71616666D01*
X111767200Y-71616666D02*
X111719580Y-71664285D01*
X111719580Y-71664285D02*
X111624342Y-71711904D01*
X111624342Y-71711904D02*
X111433866Y-71759523D01*
X111433866Y-71759523D02*
X111195771Y-71759523D01*
X111195771Y-71759523D02*
X111005295Y-71711904D01*
X111005295Y-71711904D02*
X110910057Y-71664285D01*
X110910057Y-71664285D02*
X110862438Y-71616666D01*
X110862438Y-71616666D02*
X110814819Y-71521428D01*
X86595819Y-60713857D02*
X86119628Y-61047190D01*
X86595819Y-61285285D02*
X85595819Y-61285285D01*
X85595819Y-61285285D02*
X85595819Y-60904333D01*
X85595819Y-60904333D02*
X85643438Y-60809095D01*
X85643438Y-60809095D02*
X85691057Y-60761476D01*
X85691057Y-60761476D02*
X85786295Y-60713857D01*
X85786295Y-60713857D02*
X85929152Y-60713857D01*
X85929152Y-60713857D02*
X86024390Y-60761476D01*
X86024390Y-60761476D02*
X86072009Y-60809095D01*
X86072009Y-60809095D02*
X86119628Y-60904333D01*
X86119628Y-60904333D02*
X86119628Y-61285285D01*
X86595819Y-59761476D02*
X86595819Y-60332904D01*
X86595819Y-60047190D02*
X85595819Y-60047190D01*
X85595819Y-60047190D02*
X85738676Y-60142428D01*
X85738676Y-60142428D02*
X85833914Y-60237666D01*
X85833914Y-60237666D02*
X85881533Y-60332904D01*
X85595819Y-59428142D02*
X85595819Y-58761476D01*
X85595819Y-58761476D02*
X86595819Y-59190047D01*
X32397867Y-88156000D02*
X32540724Y-88203619D01*
X32540724Y-88203619D02*
X32778819Y-88203619D01*
X32778819Y-88203619D02*
X32874057Y-88156000D01*
X32874057Y-88156000D02*
X32921676Y-88108380D01*
X32921676Y-88108380D02*
X32969295Y-88013142D01*
X32969295Y-88013142D02*
X32969295Y-87917904D01*
X32969295Y-87917904D02*
X32921676Y-87822666D01*
X32921676Y-87822666D02*
X32874057Y-87775047D01*
X32874057Y-87775047D02*
X32778819Y-87727428D01*
X32778819Y-87727428D02*
X32588343Y-87679809D01*
X32588343Y-87679809D02*
X32493105Y-87632190D01*
X32493105Y-87632190D02*
X32445486Y-87584571D01*
X32445486Y-87584571D02*
X32397867Y-87489333D01*
X32397867Y-87489333D02*
X32397867Y-87394095D01*
X32397867Y-87394095D02*
X32445486Y-87298857D01*
X32445486Y-87298857D02*
X32493105Y-87251238D01*
X32493105Y-87251238D02*
X32588343Y-87203619D01*
X32588343Y-87203619D02*
X32826438Y-87203619D01*
X32826438Y-87203619D02*
X32969295Y-87251238D01*
X33302629Y-87203619D02*
X33540724Y-88203619D01*
X33540724Y-88203619D02*
X33731200Y-87489333D01*
X33731200Y-87489333D02*
X33921676Y-88203619D01*
X33921676Y-88203619D02*
X34159772Y-87203619D01*
X34493105Y-87298857D02*
X34540724Y-87251238D01*
X34540724Y-87251238D02*
X34635962Y-87203619D01*
X34635962Y-87203619D02*
X34874057Y-87203619D01*
X34874057Y-87203619D02*
X34969295Y-87251238D01*
X34969295Y-87251238D02*
X35016914Y-87298857D01*
X35016914Y-87298857D02*
X35064533Y-87394095D01*
X35064533Y-87394095D02*
X35064533Y-87489333D01*
X35064533Y-87489333D02*
X35016914Y-87632190D01*
X35016914Y-87632190D02*
X34445486Y-88203619D01*
X34445486Y-88203619D02*
X35064533Y-88203619D01*
D12*
%TO.C,C7*%
X89583580Y-59815000D02*
X89302420Y-59815000D01*
X89583580Y-60835000D02*
X89302420Y-60835000D01*
%TO.C,C4*%
X94642000Y-75474580D02*
X94642000Y-75193420D01*
X95662000Y-75474580D02*
X95662000Y-75193420D01*
%TO.C,R2*%
X103007900Y-86241658D02*
X103007900Y-85767142D01*
X104052900Y-86241658D02*
X104052900Y-85767142D01*
%TO.C,R5*%
X101616742Y-52182500D02*
X102091258Y-52182500D01*
X101616742Y-53227500D02*
X102091258Y-53227500D01*
%TO.C,U2*%
X109108000Y-55942000D02*
X109108000Y-53992000D01*
X109108000Y-55942000D02*
X109108000Y-57892000D01*
X114228000Y-55942000D02*
X114228000Y-53992000D01*
X114228000Y-55942000D02*
X114228000Y-57892000D01*
X109203000Y-58642000D02*
X108873000Y-58882000D01*
X108873000Y-58402000D01*
X109203000Y-58642000D01*
G36*
X109203000Y-58642000D02*
G01*
X108873000Y-58882000D01*
X108873000Y-58402000D01*
X109203000Y-58642000D01*
G37*
%TO.C,RV1*%
X105334000Y-43967000D02*
G75*
G02*
X110023713Y-41893047I3159000J-804000D01*
G01*
X110024000Y-47649000D02*
G75*
G02*
X105333886Y-45575267I-1531000J2878000D01*
G01*
X111371000Y-43240000D02*
G75*
G02*
X111370901Y-46302185I-2878000J-1531000D01*
G01*
%TO.C,C8*%
X96160420Y-60323000D02*
X96441580Y-60323000D01*
X96160420Y-61343000D02*
X96441580Y-61343000D01*
%TO.C,R14*%
X91423258Y-47356500D02*
X90948742Y-47356500D01*
X91423258Y-48401500D02*
X90948742Y-48401500D01*
%TO.C,J1*%
X113904400Y-75505400D02*
X115234400Y-75505400D01*
X113904400Y-76835400D02*
X113904400Y-75505400D01*
X116504400Y-75505400D02*
X119104400Y-75505400D01*
X116504400Y-78165400D02*
X116504400Y-75505400D01*
X116504400Y-78165400D02*
X119104400Y-78165400D01*
X119104400Y-78165400D02*
X119104400Y-75505400D01*
%TO.C,R1*%
X111653500Y-50400742D02*
X111653500Y-50875258D01*
X112698500Y-50400742D02*
X112698500Y-50875258D01*
%TO.C,R15*%
X101997742Y-59218300D02*
X102472258Y-59218300D01*
X101997742Y-60263300D02*
X102472258Y-60263300D01*
%TO.C,R9*%
X101616742Y-54722500D02*
X102091258Y-54722500D01*
X101616742Y-55767500D02*
X102091258Y-55767500D01*
%TO.C,R8*%
X101997742Y-57897500D02*
X102472258Y-57897500D01*
X101997742Y-58942500D02*
X102472258Y-58942500D01*
%TO.C,C6*%
X90832000Y-75416580D02*
X90832000Y-75135420D01*
X91852000Y-75416580D02*
X91852000Y-75135420D01*
%TO.C,R16*%
X82570500Y-59833742D02*
X82570500Y-60308258D01*
X83615500Y-59833742D02*
X83615500Y-60308258D01*
%TO.C,R3*%
X91423258Y-49134500D02*
X90948742Y-49134500D01*
X91423258Y-50179500D02*
X90948742Y-50179500D01*
%TO.C,C11*%
X98804000Y-69201420D02*
X98804000Y-69482580D01*
X99824000Y-69201420D02*
X99824000Y-69482580D01*
%TO.C,C1*%
X109253000Y-50497420D02*
X109253000Y-50778580D01*
X110273000Y-50497420D02*
X110273000Y-50778580D01*
%TO.C,R6*%
X101616742Y-53452500D02*
X102091258Y-53452500D01*
X101616742Y-54497500D02*
X102091258Y-54497500D01*
%TO.C,R13*%
X91423258Y-57770500D02*
X90948742Y-57770500D01*
X91423258Y-58815500D02*
X90948742Y-58815500D01*
%TO.C,U3*%
X76743000Y-49423000D02*
X74793000Y-49423000D01*
X76743000Y-49423000D02*
X78693000Y-49423000D01*
X76743000Y-59543000D02*
X74793000Y-59543000D01*
X76743000Y-59543000D02*
X78693000Y-59543000D01*
X74043000Y-49478000D02*
X73803000Y-49148000D01*
X74283000Y-49148000D01*
X74043000Y-49478000D01*
G36*
X74043000Y-49478000D02*
G01*
X73803000Y-49148000D01*
X74283000Y-49148000D01*
X74043000Y-49478000D01*
G37*
%TO.C,C2*%
X113063000Y-50532420D02*
X113063000Y-50813580D01*
X114083000Y-50532420D02*
X114083000Y-50813580D01*
%TO.C,R7*%
X101997742Y-56627500D02*
X102472258Y-56627500D01*
X101997742Y-57672500D02*
X102472258Y-57672500D01*
%TO.C,BZ1*%
X75620000Y-68500000D02*
G75*
G02*
X66380000Y-68500000I-4620000J0D01*
G01*
X66380000Y-68500000D02*
G75*
G02*
X75620000Y-68500000I4620000J0D01*
G01*
%TO.C,R11*%
X91423258Y-53071500D02*
X90948742Y-53071500D01*
X91423258Y-54116500D02*
X90948742Y-54116500D01*
%TO.C,SW1*%
X68788400Y-23278400D02*
X68788400Y-24778400D01*
X70038400Y-27278400D02*
X74538400Y-27278400D01*
X74538400Y-20778400D02*
X70038400Y-20778400D01*
X75788400Y-24778400D02*
X75788400Y-23278400D01*
%TO.C,R4*%
X101870742Y-50404500D02*
X102345258Y-50404500D01*
X101870742Y-51449500D02*
X102345258Y-51449500D01*
%TO.C,SW4*%
X104602400Y-91299600D02*
X104602400Y-92799600D01*
X105852400Y-95299600D02*
X110352400Y-95299600D01*
X110352400Y-88799600D02*
X105852400Y-88799600D01*
X111602400Y-92799600D02*
X111602400Y-91299600D01*
%TO.C,U5*%
X90658000Y-69977000D02*
X90658000Y-68027000D01*
X90658000Y-69977000D02*
X90658000Y-71927000D01*
X95778000Y-69977000D02*
X95778000Y-68027000D01*
X95778000Y-69977000D02*
X95778000Y-71927000D01*
X96013000Y-67517000D02*
X95683000Y-67277000D01*
X96013000Y-67037000D01*
X96013000Y-67517000D01*
G36*
X96013000Y-67517000D02*
G01*
X95683000Y-67277000D01*
X96013000Y-67037000D01*
X96013000Y-67517000D01*
G37*
%TO.C,R10*%
X91423258Y-54341500D02*
X90948742Y-54341500D01*
X91423258Y-55386500D02*
X90948742Y-55386500D01*
%TO.C,C9*%
X96166000Y-70082580D02*
X96166000Y-69801420D01*
X97186000Y-70082580D02*
X97186000Y-69801420D01*
%TO.C,U1*%
X96612000Y-49550000D02*
X94662000Y-49550000D01*
X96612000Y-49550000D02*
X98562000Y-49550000D01*
X96612000Y-59670000D02*
X94662000Y-59670000D01*
X96612000Y-59670000D02*
X98562000Y-59670000D01*
X99552000Y-59945000D02*
X99072000Y-59945000D01*
X99312000Y-59615000D01*
X99552000Y-59945000D01*
G36*
X99552000Y-59945000D02*
G01*
X99072000Y-59945000D01*
X99312000Y-59615000D01*
X99552000Y-59945000D01*
G37*
%TO.C,R12*%
X91423258Y-56373500D02*
X90948742Y-56373500D01*
X91423258Y-57418500D02*
X90948742Y-57418500D01*
%TO.C,Q2*%
X96168000Y-62829000D02*
X95518000Y-62829000D01*
X96168000Y-62829000D02*
X96818000Y-62829000D01*
X96168000Y-65949000D02*
X95518000Y-65949000D01*
X96168000Y-65949000D02*
X96818000Y-65949000D01*
X95005500Y-62879000D02*
X94765500Y-62549000D01*
X95245500Y-62549000D01*
X95005500Y-62879000D01*
G36*
X95005500Y-62879000D02*
G01*
X94765500Y-62549000D01*
X95245500Y-62549000D01*
X95005500Y-62879000D01*
G37*
%TO.C,R20*%
X92089500Y-64115742D02*
X92089500Y-64590258D01*
X93134500Y-64115742D02*
X93134500Y-64590258D01*
%TO.C,R19*%
X92089500Y-75513258D02*
X92089500Y-75038742D01*
X93134500Y-75513258D02*
X93134500Y-75038742D01*
%TO.C,C3*%
X107729000Y-55866420D02*
X107729000Y-56147580D01*
X108749000Y-55866420D02*
X108749000Y-56147580D01*
%TO.C,RV2*%
X105575000Y-82912600D02*
G75*
G02*
X107648733Y-78222486I2878000J1531000D01*
G01*
X109257000Y-78222600D02*
G75*
G02*
X111330953Y-82912313I-804000J-3159000D01*
G01*
X109984000Y-84259600D02*
G75*
G02*
X106921815Y-84259501I-1531000J2878000D01*
G01*
%TO.C,J2*%
X113320200Y-66368400D02*
X113320200Y-65288400D01*
X113320200Y-70588400D02*
X112890200Y-70588400D01*
X113320200Y-71668400D02*
X113320200Y-70588400D01*
X118470200Y-64568400D02*
X115240200Y-64568400D01*
X118470200Y-72388400D02*
X115240200Y-72388400D01*
X122640200Y-64568400D02*
X120690200Y-64568400D01*
X122640200Y-64568400D02*
X122640200Y-72388400D01*
X122640200Y-72388400D02*
X120690200Y-72388400D01*
D10*
%TO.C,U6*%
X102636600Y-64084000D02*
X102636600Y-63509000D01*
X102636600Y-74159000D02*
X102636600Y-73584000D01*
X108386600Y-63509000D02*
X102636600Y-63509000D01*
X108386600Y-64084000D02*
X108386600Y-63509000D01*
X108386600Y-74159000D02*
X102636600Y-74159000D01*
X108386600Y-74159000D02*
X108386600Y-73584000D01*
D12*
X109126600Y-73914000D02*
X108646600Y-73914000D01*
X108886600Y-73584000D01*
X109126600Y-73914000D01*
G36*
X109126600Y-73914000D02*
G01*
X108646600Y-73914000D01*
X108886600Y-73584000D01*
X109126600Y-73914000D01*
G37*
%TO.C,C5*%
X77102580Y-47877000D02*
X76821420Y-47877000D01*
X77102580Y-48897000D02*
X76821420Y-48897000D01*
%TO.C,U4*%
X81930000Y-53848000D02*
X81930000Y-51898000D01*
X81930000Y-53848000D02*
X81930000Y-55798000D01*
X87050000Y-53848000D02*
X87050000Y-51898000D01*
X87050000Y-53848000D02*
X87050000Y-55798000D01*
X82025000Y-56548000D02*
X81695000Y-56788000D01*
X81695000Y-56308000D01*
X82025000Y-56548000D01*
G36*
X82025000Y-56548000D02*
G01*
X81695000Y-56788000D01*
X81695000Y-56308000D01*
X82025000Y-56548000D01*
G37*
%TO.C,C10*%
X110298620Y-74724800D02*
X110579780Y-74724800D01*
X110298620Y-75744800D02*
X110579780Y-75744800D01*
%TO.C,R17*%
X84094500Y-60308258D02*
X84094500Y-59833742D01*
X85139500Y-60308258D02*
X85139500Y-59833742D01*
%TO.C,SW2*%
X30231200Y-91248800D02*
X30231200Y-92748800D01*
X31481200Y-95248800D02*
X35981200Y-95248800D01*
X35981200Y-88748800D02*
X31481200Y-88748800D01*
X37231200Y-92748800D02*
X37231200Y-91248800D01*
%TD*%
M02*
