%TF.GenerationSoftware,KiCad,Pcbnew,9.0.1*%
%TF.CreationDate,2025-07-27T01:52:16-03:00*%
%TF.ProjectId,board,626f6172-642e-46b6-9963-61645f706362,rev?*%
%TF.SameCoordinates,Original*%
%TF.FileFunction,Copper,L1,Top*%
%TF.FilePolarity,Positive*%
%FSLAX46Y46*%
G04 Gerber Fmt 4.6, Leading zero omitted, Abs format (unit mm)*
G04 Created by KiCad (PCBNEW 9.0.1) date 2025-07-27 01:52:16*
%MOMM*%
%LPD*%
G01*
G04 APERTURE LIST*
G04 Aperture macros list*
%AMRoundRect*
0 Rectangle with rounded corners*
0 $1 Rounding radius*
0 $2 $3 $4 $5 $6 $7 $8 $9 X,Y pos of 4 corners*
0 Add a 4 corners polygon primitive as box body*
4,1,4,$2,$3,$4,$5,$6,$7,$8,$9,$2,$3,0*
0 Add four circle primitives for the rounded corners*
1,1,$1+$1,$2,$3*
1,1,$1+$1,$4,$5*
1,1,$1+$1,$6,$7*
1,1,$1+$1,$8,$9*
0 Add four rect primitives between the rounded corners*
20,1,$1+$1,$2,$3,$4,$5,0*
20,1,$1+$1,$4,$5,$6,$7,0*
20,1,$1+$1,$6,$7,$8,$9,0*
20,1,$1+$1,$8,$9,$2,$3,0*%
G04 Aperture macros list end*
%TA.AperFunction,SMDPad,CuDef*%
%ADD10RoundRect,0.100000X-0.100000X0.130000X-0.100000X-0.130000X0.100000X-0.130000X0.100000X0.130000X0*%
%TD*%
%TA.AperFunction,SMDPad,CuDef*%
%ADD11RoundRect,0.100000X-0.162635X0.021213X0.021213X-0.162635X0.162635X-0.021213X-0.021213X0.162635X0*%
%TD*%
%TA.AperFunction,SMDPad,CuDef*%
%ADD12RoundRect,0.225000X0.225000X0.250000X-0.225000X0.250000X-0.225000X-0.250000X0.225000X-0.250000X0*%
%TD*%
%TA.AperFunction,SMDPad,CuDef*%
%ADD13RoundRect,0.225000X0.250000X-0.225000X0.250000X0.225000X-0.250000X0.225000X-0.250000X-0.225000X0*%
%TD*%
%TA.AperFunction,SMDPad,CuDef*%
%ADD14RoundRect,0.200000X0.275000X-0.200000X0.275000X0.200000X-0.275000X0.200000X-0.275000X-0.200000X0*%
%TD*%
%TA.AperFunction,SMDPad,CuDef*%
%ADD15RoundRect,0.200000X-0.200000X-0.275000X0.200000X-0.275000X0.200000X0.275000X-0.200000X0.275000X0*%
%TD*%
%TA.AperFunction,SMDPad,CuDef*%
%ADD16RoundRect,0.150000X0.150000X-0.825000X0.150000X0.825000X-0.150000X0.825000X-0.150000X-0.825000X0*%
%TD*%
%TA.AperFunction,ComponentPad*%
%ADD17C,1.620000*%
%TD*%
%TA.AperFunction,SMDPad,CuDef*%
%ADD18RoundRect,0.225000X-0.225000X-0.250000X0.225000X-0.250000X0.225000X0.250000X-0.225000X0.250000X0*%
%TD*%
%TA.AperFunction,SMDPad,CuDef*%
%ADD19RoundRect,0.200000X0.200000X0.275000X-0.200000X0.275000X-0.200000X-0.275000X0.200000X-0.275000X0*%
%TD*%
%TA.AperFunction,ComponentPad*%
%ADD20R,1.700000X1.700000*%
%TD*%
%TA.AperFunction,ComponentPad*%
%ADD21C,1.700000*%
%TD*%
%TA.AperFunction,SMDPad,CuDef*%
%ADD22RoundRect,0.200000X-0.275000X0.200000X-0.275000X-0.200000X0.275000X-0.200000X0.275000X0.200000X0*%
%TD*%
%TA.AperFunction,SMDPad,CuDef*%
%ADD23RoundRect,0.225000X-0.250000X0.225000X-0.250000X-0.225000X0.250000X-0.225000X0.250000X0.225000X0*%
%TD*%
%TA.AperFunction,SMDPad,CuDef*%
%ADD24RoundRect,0.100000X-0.021213X-0.162635X0.162635X0.021213X0.021213X0.162635X-0.162635X-0.021213X0*%
%TD*%
%TA.AperFunction,SMDPad,CuDef*%
%ADD25RoundRect,0.150000X-0.725000X-0.150000X0.725000X-0.150000X0.725000X0.150000X-0.725000X0.150000X0*%
%TD*%
%TA.AperFunction,ComponentPad*%
%ADD26R,1.600000X1.600000*%
%TD*%
%TA.AperFunction,ComponentPad*%
%ADD27C,1.600000*%
%TD*%
%TA.AperFunction,ComponentPad*%
%ADD28C,2.000000*%
%TD*%
%TA.AperFunction,SMDPad,CuDef*%
%ADD29RoundRect,0.150000X-0.150000X0.825000X-0.150000X-0.825000X0.150000X-0.825000X0.150000X0.825000X0*%
%TD*%
%TA.AperFunction,SMDPad,CuDef*%
%ADD30RoundRect,0.150000X0.725000X0.150000X-0.725000X0.150000X-0.725000X-0.150000X0.725000X-0.150000X0*%
%TD*%
%TA.AperFunction,SMDPad,CuDef*%
%ADD31RoundRect,0.150000X-0.587500X-0.150000X0.587500X-0.150000X0.587500X0.150000X-0.587500X0.150000X0*%
%TD*%
%TA.AperFunction,SMDPad,CuDef*%
%ADD32R,2.000000X0.500000*%
%TD*%
%TA.AperFunction,SMDPad,CuDef*%
%ADD33R,1.700000X2.000000*%
%TD*%
%TA.AperFunction,SMDPad,CuDef*%
%ADD34R,1.750000X0.450000*%
%TD*%
%TA.AperFunction,ViaPad*%
%ADD35C,0.600000*%
%TD*%
%TA.AperFunction,ViaPad*%
%ADD36C,0.700000*%
%TD*%
%TA.AperFunction,Conductor*%
%ADD37C,0.300000*%
%TD*%
%TA.AperFunction,Conductor*%
%ADD38C,0.500000*%
%TD*%
%TA.AperFunction,Conductor*%
%ADD39C,0.200000*%
%TD*%
%TA.AperFunction,Conductor*%
%ADD40C,0.202000*%
%TD*%
G04 APERTURE END LIST*
D10*
%TO.P,C12,2*%
%TO.N,GND*%
X110610000Y-64640000D03*
%TO.P,C12,1*%
%TO.N,5V*%
X110610000Y-64000000D03*
%TD*%
D11*
%TO.P,C13,2*%
%TO.N,GND*%
X112576274Y-62356274D03*
%TO.P,C13,1*%
%TO.N,5V*%
X112123726Y-61903726D03*
%TD*%
%TO.P,C15,2*%
%TO.N,GND*%
X99076274Y-65596274D03*
%TO.P,C15,1*%
%TO.N,5V*%
X98623726Y-65143726D03*
%TD*%
D12*
%TO.P,C7,1*%
%TO.N,5V*%
X90218000Y-60325000D03*
%TO.P,C7,2*%
%TO.N,GND*%
X88668000Y-60325000D03*
%TD*%
D13*
%TO.P,C4,1*%
%TO.N,Net-(U5-DIS)*%
X95152000Y-76109000D03*
%TO.P,C4,2*%
%TO.N,GND*%
X95152000Y-74559000D03*
%TD*%
D14*
%TO.P,R2,1*%
%TO.N,5V*%
X103530400Y-86829400D03*
%TO.P,R2,2*%
%TO.N,RESET*%
X103530400Y-85179400D03*
%TD*%
D15*
%TO.P,R5,1*%
%TO.N,Net-(U1-Q2)*%
X101029000Y-52705000D03*
%TO.P,R5,2*%
%TO.N,Net-(U4-+)*%
X102679000Y-52705000D03*
%TD*%
D16*
%TO.P,U2,1,GND*%
%TO.N,GND*%
X109763000Y-58417000D03*
%TO.P,U2,2,TR*%
%TO.N,Net-(U2-DIS)*%
X111033000Y-58417000D03*
%TO.P,U2,3,Q*%
%TO.N,CLOCK*%
X112303000Y-58417000D03*
%TO.P,U2,4,R*%
%TO.N,Net-(SW1-B)*%
X113573000Y-58417000D03*
%TO.P,U2,5,CV*%
%TO.N,Net-(U2-CV)*%
X113573000Y-53467000D03*
%TO.P,U2,6,THR*%
%TO.N,Net-(U2-THR)*%
X112303000Y-53467000D03*
%TO.P,U2,7,DIS*%
%TO.N,Net-(U2-DIS)*%
X111033000Y-53467000D03*
%TO.P,U2,8,VCC*%
%TO.N,5V*%
X109763000Y-53467000D03*
%TD*%
D17*
%TO.P,RV1,1,1*%
%TO.N,5V*%
X110993000Y-42271000D03*
%TO.P,RV1,2,2*%
X105993000Y-44771000D03*
%TO.P,RV1,3,3*%
%TO.N,Net-(U2-DIS)*%
X110993000Y-47271000D03*
%TD*%
D18*
%TO.P,C8,1*%
%TO.N,5V*%
X95526000Y-60833000D03*
%TO.P,C8,2*%
%TO.N,GND*%
X97076000Y-60833000D03*
%TD*%
D19*
%TO.P,R14,1*%
%TO.N,GND*%
X92011000Y-47879000D03*
%TO.P,R14,2*%
%TO.N,Net-(U4-+)*%
X90361000Y-47879000D03*
%TD*%
D20*
%TO.P,J1,1,Pin_1*%
%TO.N,Net-(J1-Pin_1)*%
X115234400Y-76835400D03*
D21*
%TO.P,J1,2,Pin_2*%
%TO.N,Net-(J1-Pin_2)*%
X117774400Y-76835400D03*
%TD*%
D22*
%TO.P,R1,1*%
%TO.N,Net-(U2-DIS)*%
X112176000Y-49813000D03*
%TO.P,R1,2*%
%TO.N,Net-(U2-THR)*%
X112176000Y-51463000D03*
%TD*%
D15*
%TO.P,R15,1*%
%TO.N,Net-(U1-Q11)*%
X101410000Y-59740800D03*
%TO.P,R15,2*%
%TO.N,Net-(U4-+)*%
X103060000Y-59740800D03*
%TD*%
%TO.P,R9,1*%
%TO.N,Net-(U1-Q6)*%
X101029000Y-55245000D03*
%TO.P,R9,2*%
%TO.N,Net-(U4-+)*%
X102679000Y-55245000D03*
%TD*%
%TO.P,R8,1*%
%TO.N,Net-(U1-Q5)*%
X101410000Y-58420000D03*
%TO.P,R8,2*%
%TO.N,Net-(U4-+)*%
X103060000Y-58420000D03*
%TD*%
D13*
%TO.P,C6,1*%
%TO.N,GND*%
X91342000Y-76051000D03*
%TO.P,C6,2*%
%TO.N,Net-(U5-CV)*%
X91342000Y-74501000D03*
%TD*%
D22*
%TO.P,R16,1*%
%TO.N,Net-(U4--)*%
X83093000Y-59246000D03*
%TO.P,R16,2*%
%TO.N,5V*%
X83093000Y-60896000D03*
%TD*%
D19*
%TO.P,R3,1*%
%TO.N,Net-(U1-Q0)*%
X92011000Y-49657000D03*
%TO.P,R3,2*%
%TO.N,Net-(U4-+)*%
X90361000Y-49657000D03*
%TD*%
D23*
%TO.P,C11,1*%
%TO.N,5V*%
X99314000Y-68567000D03*
%TO.P,C11,2*%
%TO.N,GND*%
X99314000Y-70117000D03*
%TD*%
%TO.P,C1,1*%
%TO.N,Net-(U2-DIS)*%
X109763000Y-49863000D03*
%TO.P,C1,2*%
%TO.N,GND*%
X109763000Y-51413000D03*
%TD*%
D15*
%TO.P,R6,1*%
%TO.N,Net-(U1-Q3)*%
X101029000Y-53975000D03*
%TO.P,R6,2*%
%TO.N,Net-(U4-+)*%
X102679000Y-53975000D03*
%TD*%
D19*
%TO.P,R13,1*%
%TO.N,Net-(U1-Q10)*%
X92011000Y-58293000D03*
%TO.P,R13,2*%
%TO.N,Net-(U4-+)*%
X90361000Y-58293000D03*
%TD*%
D24*
%TO.P,C14,1*%
%TO.N,5V*%
X98673726Y-63426274D03*
%TO.P,C14,2*%
%TO.N,GND*%
X99126274Y-62973726D03*
%TD*%
D25*
%TO.P,U3,1,Q11*%
%TO.N,ALARM*%
X74168000Y-50038000D03*
%TO.P,U3,2,Q5*%
%TO.N,unconnected-(U3-Q5-Pad2)*%
X74168000Y-51308000D03*
%TO.P,U3,3,Q4*%
%TO.N,unconnected-(U3-Q4-Pad3)*%
X74168000Y-52578000D03*
%TO.P,U3,4,Q6*%
%TO.N,unconnected-(U3-Q6-Pad4)*%
X74168000Y-53848000D03*
%TO.P,U3,5,Q3*%
%TO.N,unconnected-(U3-Q3-Pad5)*%
X74168000Y-55118000D03*
%TO.P,U3,6,Q2*%
%TO.N,unconnected-(U3-Q2-Pad6)*%
X74168000Y-56388000D03*
%TO.P,U3,7,Q1*%
%TO.N,unconnected-(U3-Q1-Pad7)*%
X74168000Y-57658000D03*
%TO.P,U3,8,VSS*%
%TO.N,GND*%
X74168000Y-58928000D03*
%TO.P,U3,9,Q0*%
%TO.N,unconnected-(U3-Q0-Pad9)*%
X79318000Y-58928000D03*
%TO.P,U3,10,CLK*%
%TO.N,Net-(U3-CLK)*%
X79318000Y-57658000D03*
%TO.P,U3,11,Reset*%
%TO.N,RESET*%
X79318000Y-56388000D03*
%TO.P,U3,12,Q8*%
%TO.N,unconnected-(U3-Q8-Pad12)*%
X79318000Y-55118000D03*
%TO.P,U3,13,Q7*%
%TO.N,unconnected-(U3-Q7-Pad13)*%
X79318000Y-53848000D03*
%TO.P,U3,14,Q9*%
%TO.N,unconnected-(U3-Q9-Pad14)*%
X79318000Y-52578000D03*
%TO.P,U3,15,Q10*%
%TO.N,unconnected-(U3-Q10-Pad15)*%
X79318000Y-51308000D03*
%TO.P,U3,16,VDD*%
%TO.N,5V*%
X79318000Y-50038000D03*
%TD*%
D23*
%TO.P,C2,1*%
%TO.N,GND*%
X113573000Y-49898000D03*
%TO.P,C2,2*%
%TO.N,Net-(U2-CV)*%
X113573000Y-51448000D03*
%TD*%
D15*
%TO.P,R7,1*%
%TO.N,Net-(U1-Q4)*%
X101410000Y-57150000D03*
%TO.P,R7,2*%
%TO.N,Net-(U4-+)*%
X103060000Y-57150000D03*
%TD*%
D26*
%TO.P,BZ1,1,+*%
%TO.N,5V*%
X69000000Y-68500000D03*
D27*
%TO.P,BZ1,2,-*%
%TO.N,Net-(BZ1--)*%
X73000000Y-68500000D03*
%TD*%
D19*
%TO.P,R11,1*%
%TO.N,Net-(U1-Q8)*%
X92011000Y-53594000D03*
%TO.P,R11,2*%
%TO.N,Net-(U4-+)*%
X90361000Y-53594000D03*
%TD*%
D28*
%TO.P,SW1,1,A*%
%TO.N,5V*%
X69038400Y-21778400D03*
X75538400Y-21778400D03*
%TO.P,SW1,2,B*%
%TO.N,Net-(SW1-B)*%
X69038400Y-26278400D03*
X75538400Y-26278400D03*
%TD*%
D15*
%TO.P,R4,1*%
%TO.N,Net-(U1-Q1)*%
X101283000Y-50927000D03*
%TO.P,R4,2*%
%TO.N,Net-(U4-+)*%
X102933000Y-50927000D03*
%TD*%
D28*
%TO.P,SW4,1,A*%
%TO.N,RESET*%
X111352400Y-94299600D03*
X104852400Y-94299600D03*
%TO.P,SW4,2,B*%
%TO.N,GND*%
X111352400Y-89799600D03*
X104852400Y-89799600D03*
%TD*%
D29*
%TO.P,U5,1,GND*%
%TO.N,GND*%
X95123000Y-67502000D03*
%TO.P,U5,2,TR*%
%TO.N,Net-(U5-DIS)*%
X93853000Y-67502000D03*
%TO.P,U5,3,Q*%
%TO.N,Net-(U5-Q)*%
X92583000Y-67502000D03*
%TO.P,U5,4,R*%
%TO.N,ALARM*%
X91313000Y-67502000D03*
%TO.P,U5,5,CV*%
%TO.N,Net-(U5-CV)*%
X91313000Y-72452000D03*
%TO.P,U5,6,THR*%
%TO.N,Net-(U5-THR)*%
X92583000Y-72452000D03*
%TO.P,U5,7,DIS*%
%TO.N,Net-(U5-DIS)*%
X93853000Y-72452000D03*
%TO.P,U5,8,VCC*%
%TO.N,5V*%
X95123000Y-72452000D03*
%TD*%
D19*
%TO.P,R10,1*%
%TO.N,Net-(U1-Q7)*%
X92011000Y-54864000D03*
%TO.P,R10,2*%
%TO.N,Net-(U4-+)*%
X90361000Y-54864000D03*
%TD*%
D13*
%TO.P,C9,1*%
%TO.N,5V*%
X96676000Y-70717000D03*
%TO.P,C9,2*%
%TO.N,GND*%
X96676000Y-69167000D03*
%TD*%
D30*
%TO.P,U1,1,Q11*%
%TO.N,Net-(U1-Q11)*%
X99187000Y-59055000D03*
%TO.P,U1,2,Q5*%
%TO.N,Net-(U1-Q5)*%
X99187000Y-57785000D03*
%TO.P,U1,3,Q4*%
%TO.N,Net-(U1-Q4)*%
X99187000Y-56515000D03*
%TO.P,U1,4,Q6*%
%TO.N,Net-(U1-Q6)*%
X99187000Y-55245000D03*
%TO.P,U1,5,Q3*%
%TO.N,Net-(U1-Q3)*%
X99187000Y-53975000D03*
%TO.P,U1,6,Q2*%
%TO.N,Net-(U1-Q2)*%
X99187000Y-52705000D03*
%TO.P,U1,7,Q1*%
%TO.N,Net-(U1-Q1)*%
X99187000Y-51435000D03*
%TO.P,U1,8,VSS*%
%TO.N,GND*%
X99187000Y-50165000D03*
%TO.P,U1,9,Q0*%
%TO.N,Net-(U1-Q0)*%
X94037000Y-50165000D03*
%TO.P,U1,10,CLK*%
%TO.N,CLOCK*%
X94037000Y-51435000D03*
%TO.P,U1,11,Reset*%
%TO.N,RESET*%
X94037000Y-52705000D03*
%TO.P,U1,12,Q8*%
%TO.N,Net-(U1-Q8)*%
X94037000Y-53975000D03*
%TO.P,U1,13,Q7*%
%TO.N,Net-(U1-Q7)*%
X94037000Y-55245000D03*
%TO.P,U1,14,Q9*%
%TO.N,Net-(U1-Q9)*%
X94037000Y-56515000D03*
%TO.P,U1,15,Q10*%
%TO.N,Net-(U1-Q10)*%
X94037000Y-57785000D03*
%TO.P,U1,16,VDD*%
%TO.N,5V*%
X94037000Y-59055000D03*
%TD*%
D19*
%TO.P,R12,1*%
%TO.N,Net-(U1-Q9)*%
X92011000Y-56896000D03*
%TO.P,R12,2*%
%TO.N,Net-(U4-+)*%
X90361000Y-56896000D03*
%TD*%
D31*
%TO.P,Q2,1,B*%
%TO.N,Net-(Q2-B)*%
X95230500Y-63439000D03*
%TO.P,Q2,2,E*%
%TO.N,GND*%
X95230500Y-65339000D03*
%TO.P,Q2,3,C*%
%TO.N,Net-(BZ1--)*%
X97105500Y-64389000D03*
%TD*%
D22*
%TO.P,R20,1*%
%TO.N,Net-(Q2-B)*%
X92612000Y-63528000D03*
%TO.P,R20,2*%
%TO.N,Net-(U5-Q)*%
X92612000Y-65178000D03*
%TD*%
D14*
%TO.P,R19,1*%
%TO.N,Net-(U5-DIS)*%
X92612000Y-76101000D03*
%TO.P,R19,2*%
%TO.N,Net-(U5-THR)*%
X92612000Y-74451000D03*
%TD*%
D23*
%TO.P,C3,1*%
%TO.N,5V*%
X108239000Y-55232000D03*
%TO.P,C3,2*%
%TO.N,GND*%
X108239000Y-56782000D03*
%TD*%
D17*
%TO.P,RV2,1,1*%
%TO.N,5V*%
X110953000Y-83881600D03*
%TO.P,RV2,2,2*%
X108453000Y-78881600D03*
%TO.P,RV2,3,3*%
%TO.N,Net-(U5-DIS)*%
X105953000Y-83881600D03*
%TD*%
D32*
%TO.P,J2,1,VBUS*%
%TO.N,5V*%
X114030200Y-70078400D03*
%TO.P,J2,2,D-*%
%TO.N,DT-*%
X114030200Y-69278400D03*
%TO.P,J2,3,D+*%
%TO.N,DT+*%
X114030200Y-68478400D03*
%TO.P,J2,4,GND*%
%TO.N,GND*%
X114030200Y-67678400D03*
%TO.P,J2,5,Shield*%
X114030200Y-66878400D03*
D33*
%TO.P,J2,6*%
%TO.N,N/C*%
X114130200Y-72928400D03*
X119580200Y-72928400D03*
X114130200Y-64028400D03*
X119580200Y-64028400D03*
%TD*%
D34*
%TO.P,U6,1,TXD*%
%TO.N,Net-(J1-Pin_1)*%
X109111600Y-73059000D03*
%TO.P,U6,2,DTR*%
%TO.N,unconnected-(U6-DTR-Pad2)*%
X109111600Y-72409000D03*
%TO.P,U6,3,RTS*%
%TO.N,unconnected-(U6-RTS-Pad3)*%
X109111600Y-71759000D03*
%TO.P,U6,4,VCCIO*%
%TO.N,5V*%
X109111600Y-71109000D03*
%TO.P,U6,5,RXD*%
%TO.N,Net-(J1-Pin_2)*%
X109111600Y-70459000D03*
%TO.P,U6,6,RI*%
%TO.N,unconnected-(U6-RI-Pad6)*%
X109111600Y-69809000D03*
%TO.P,U6,7,GND*%
%TO.N,GND*%
X109111600Y-69159000D03*
%TO.P,U6,8*%
%TO.N,N/C*%
X109111600Y-68509000D03*
%TO.P,U6,9,DCR*%
%TO.N,unconnected-(U6-DCR-Pad9)*%
X109111600Y-67859000D03*
%TO.P,U6,10,DCD*%
%TO.N,unconnected-(U6-DCD-Pad10)*%
X109111600Y-67209000D03*
%TO.P,U6,11,CTS*%
%TO.N,unconnected-(U6-CTS-Pad11)*%
X109111600Y-66559000D03*
%TO.P,U6,12,CBUS4*%
%TO.N,unconnected-(U6-CBUS4-Pad12)*%
X109111600Y-65909000D03*
%TO.P,U6,13,CBUS2*%
%TO.N,unconnected-(U6-CBUS2-Pad13)*%
X109111600Y-65259000D03*
%TO.P,U6,14,CBUS3*%
%TO.N,unconnected-(U6-CBUS3-Pad14)*%
X109111600Y-64609000D03*
%TO.P,U6,15,USBD+*%
%TO.N,DT+*%
X101911600Y-64609000D03*
%TO.P,U6,16,USBD-*%
%TO.N,DT-*%
X101911600Y-65259000D03*
%TO.P,U6,17,3V3OUT*%
%TO.N,unconnected-(U6-3V3OUT-Pad17)*%
X101911600Y-65909000D03*
%TO.P,U6,18,GND*%
%TO.N,GND*%
X101911600Y-66559000D03*
%TO.P,U6,19,~{RESET}*%
%TO.N,ALARM*%
X101911600Y-67209000D03*
%TO.P,U6,20,VCC*%
%TO.N,5V*%
X101911600Y-67859000D03*
%TO.P,U6,21,GND*%
%TO.N,GND*%
X101911600Y-68509000D03*
%TO.P,U6,22,CBUS1*%
%TO.N,unconnected-(U6-CBUS1-Pad22)*%
X101911600Y-69159000D03*
%TO.P,U6,23,CBUS0*%
%TO.N,unconnected-(U6-CBUS0-Pad23)*%
X101911600Y-69809000D03*
%TO.P,U6,24*%
%TO.N,N/C*%
X101911600Y-70459000D03*
%TO.P,U6,25,AGND*%
%TO.N,GND*%
X101911600Y-71109000D03*
%TO.P,U6,26,TEST*%
X101911600Y-71759000D03*
%TO.P,U6,27,OSCI*%
%TO.N,unconnected-(U6-OSCI-Pad27)*%
X101911600Y-72409000D03*
%TO.P,U6,28,OSCO*%
%TO.N,unconnected-(U6-OSCO-Pad28)*%
X101911600Y-73059000D03*
%TD*%
D12*
%TO.P,C5,1*%
%TO.N,5V*%
X77737000Y-48387000D03*
%TO.P,C5,2*%
%TO.N,GND*%
X76187000Y-48387000D03*
%TD*%
D16*
%TO.P,U4,1,NULL*%
%TO.N,unconnected-(U4-NULL-Pad1)*%
X82585000Y-56323000D03*
%TO.P,U4,2,-*%
%TO.N,Net-(U4--)*%
X83855000Y-56323000D03*
%TO.P,U4,3,+*%
%TO.N,Net-(U4-+)*%
X85125000Y-56323000D03*
%TO.P,U4,4,V-*%
%TO.N,GND*%
X86395000Y-56323000D03*
%TO.P,U4,5,NULL*%
%TO.N,unconnected-(U4-NULL-Pad5)*%
X86395000Y-51373000D03*
%TO.P,U4,6*%
%TO.N,Net-(U3-CLK)*%
X85125000Y-51373000D03*
%TO.P,U4,7,V+*%
%TO.N,5V*%
X83855000Y-51373000D03*
%TO.P,U4,8,NC*%
%TO.N,unconnected-(U4-NC-Pad8)*%
X82585000Y-51373000D03*
%TD*%
D18*
%TO.P,C10,1*%
%TO.N,5V*%
X109664200Y-75234800D03*
%TO.P,C10,2*%
%TO.N,GND*%
X111214200Y-75234800D03*
%TD*%
D14*
%TO.P,R17,1*%
%TO.N,GND*%
X84617000Y-60896000D03*
%TO.P,R17,2*%
%TO.N,Net-(U4--)*%
X84617000Y-59246000D03*
%TD*%
D28*
%TO.P,SW2,1,A*%
%TO.N,5V*%
X30481200Y-89748800D03*
X36981200Y-89748800D03*
%TO.P,SW2,2,B*%
%TO.N,Net-(SW1-B)*%
X30481200Y-94248800D03*
X36981200Y-94248800D03*
%TD*%
D35*
%TO.N,Net-(BZ1--)*%
X97020000Y-66710000D03*
%TO.N,GND*%
X112594649Y-63019698D03*
%TO.N,DT+*%
X99532778Y-63856419D03*
%TO.N,Net-(SW1-B)*%
X114300000Y-60553600D03*
X69900800Y-30480000D03*
X74625200Y-30480000D03*
X32918400Y-87376000D03*
X34645600Y-87376000D03*
%TO.N,5V*%
X36322000Y-86106000D03*
X96621600Y-73456800D03*
X108204000Y-52628800D03*
X110871000Y-72161400D03*
X98910006Y-64274341D03*
X99070000Y-67410000D03*
X103682800Y-80924400D03*
X110605393Y-63434607D03*
X73609200Y-63398400D03*
X94030800Y-60858400D03*
X108254800Y-54000400D03*
D36*
X111353600Y-69748400D03*
D35*
X30988000Y-86207600D03*
X96672400Y-71831200D03*
X71272400Y-29057600D03*
X79044800Y-48412400D03*
X81584800Y-60909200D03*
X80670400Y-48717200D03*
X108051600Y-75234800D03*
X93014800Y-60096400D03*
X91795600Y-60655200D03*
X83362800Y-49834800D03*
X73660000Y-29057600D03*
X103530400Y-88087200D03*
X111514254Y-62151436D03*
X103225600Y-46075600D03*
%TO.N,GND*%
X93878400Y-65328800D03*
D36*
X112442800Y-66520000D03*
D35*
X86004400Y-60909200D03*
X96672400Y-67767200D03*
X108254800Y-59842400D03*
X108458000Y-51409600D03*
X100380800Y-72136000D03*
X101396800Y-49072800D03*
X74523600Y-48412400D03*
X100126800Y-71526400D03*
X87274400Y-60350400D03*
X100448520Y-66458480D03*
X110439200Y-87376000D03*
X96164400Y-66497200D03*
X91338400Y-77470000D03*
X96520000Y-74777600D03*
X111224999Y-64565223D03*
X113588800Y-48209200D03*
X100430000Y-69320000D03*
X94132400Y-48412400D03*
X98755200Y-60858400D03*
X110794800Y-68834000D03*
X99756734Y-63140635D03*
X105968800Y-87325200D03*
X113030000Y-75234800D03*
X73507600Y-60248800D03*
X99724449Y-65443502D03*
X108254800Y-58013600D03*
X87884000Y-56337200D03*
X99314000Y-71475600D03*
%TO.N,CLOCK*%
X112318800Y-60401200D03*
X91490800Y-51104800D03*
%TO.N,Net-(U5-DIS)*%
X93878400Y-78486000D03*
X104495600Y-82905600D03*
%TO.N,ALARM*%
X72999600Y-49022000D03*
X90779600Y-65379600D03*
X99216092Y-66458465D03*
%TO.N,DT+*%
X111761207Y-62964075D03*
%TO.N,Net-(J1-Pin_2)*%
X111810800Y-71729600D03*
X116840000Y-74269600D03*
%TO.N,DT-*%
X111575000Y-63840000D03*
X99532778Y-64706419D03*
%TO.N,Net-(J1-Pin_1)*%
X111506000Y-73050400D03*
X115849400Y-74396600D03*
%TO.N,Net-(BZ1--)*%
X74676000Y-64160400D03*
%TO.N,RESET*%
X80568800Y-55676800D03*
X109118400Y-87884000D03*
X98196400Y-74523600D03*
X97907000Y-65213000D03*
X107746800Y-87884000D03*
X103530400Y-83769200D03*
X92354400Y-52171600D03*
%TD*%
D37*
%TO.N,5V*%
X98910006Y-64274341D02*
X98673726Y-64038061D01*
X98623726Y-64560621D02*
X98623726Y-65143726D01*
X98910006Y-64274341D02*
X98623726Y-64560621D01*
X98673726Y-64038061D02*
X98673726Y-63426274D01*
%TO.N,Net-(BZ1--)*%
X97020000Y-64474500D02*
X97105500Y-64389000D01*
X97020000Y-66710000D02*
X97020000Y-64474500D01*
%TO.N,5V*%
X99110000Y-67460000D02*
X99314000Y-67664000D01*
X99110000Y-67450000D02*
X99110000Y-67460000D01*
X99070000Y-67410000D02*
X99110000Y-67450000D01*
X99314000Y-67664000D02*
X99314000Y-68567000D01*
X110605393Y-63739742D02*
X110610000Y-63744349D01*
X110605393Y-63434607D02*
X110605393Y-63739742D01*
X110610000Y-63744349D02*
X110610000Y-64000000D01*
%TO.N,GND*%
X111150222Y-64640000D02*
X111224999Y-64565223D01*
X110610000Y-64640000D02*
X111150222Y-64640000D01*
X112576274Y-63001323D02*
X112594649Y-63019698D01*
X112576274Y-62356274D02*
X112576274Y-63001323D01*
%TO.N,5V*%
X111761964Y-61903726D02*
X111514254Y-62151436D01*
X112123726Y-61903726D02*
X111761964Y-61903726D01*
%TO.N,GND*%
X99076274Y-65596274D02*
X99571677Y-65596274D01*
X99571677Y-65596274D02*
X99724449Y-65443502D01*
X99589825Y-62973726D02*
X99756734Y-63140635D01*
X99126274Y-62973726D02*
X99589825Y-62973726D01*
%TO.N,Net-(U2-DIS)*%
X111033000Y-58417000D02*
X111033000Y-53467000D01*
X109763000Y-49241000D02*
X110398000Y-48606000D01*
X112303000Y-49813000D02*
X112303000Y-49114000D01*
X112303000Y-49114000D02*
X111795000Y-48606000D01*
X111033000Y-48606000D02*
X111033000Y-47630000D01*
X111033000Y-48606000D02*
X110398000Y-48606000D01*
X109763000Y-49863000D02*
X109763000Y-49241000D01*
X111795000Y-48606000D02*
X111033000Y-48606000D01*
X111033000Y-47441000D02*
X110993000Y-47401000D01*
X111033000Y-53467000D02*
X111033000Y-48606000D01*
%TO.N,Net-(U2-THR)*%
X112303000Y-53467000D02*
X112303000Y-51463000D01*
%TO.N,Net-(SW1-B)*%
X75538400Y-26278400D02*
X75538400Y-29566800D01*
X30481200Y-94248800D02*
X32918400Y-91811600D01*
X32918400Y-91811600D02*
X32918400Y-87376000D01*
X34645600Y-91913200D02*
X34645600Y-87376000D01*
X113573000Y-58417000D02*
X113573000Y-59826600D01*
X113573000Y-59826600D02*
X114300000Y-60553600D01*
X75538400Y-29566800D02*
X74625200Y-30480000D01*
X69038400Y-29617600D02*
X69900800Y-30480000D01*
X36981200Y-94248800D02*
X34645600Y-91913200D01*
X69038400Y-26278400D02*
X69038400Y-29617600D01*
%TO.N,5V*%
X108453000Y-81381600D02*
X108453000Y-78881600D01*
X109042200Y-53467000D02*
X109763000Y-53467000D01*
X101911600Y-67859000D02*
X100022000Y-67859000D01*
X94056200Y-60833000D02*
X94030800Y-60858400D01*
X96676000Y-71827600D02*
X96672400Y-71831200D01*
X105993000Y-44771000D02*
X104688400Y-46075600D01*
X108493000Y-42271000D02*
X105993000Y-44771000D01*
X110871000Y-71693400D02*
X110871000Y-72161400D01*
X95123000Y-72452000D02*
X95616800Y-72452000D01*
X73660000Y-23656800D02*
X73660000Y-29057600D01*
X109111600Y-71109000D02*
X110286600Y-71109000D01*
D38*
X111353600Y-69748400D02*
X111683600Y-70078400D01*
D37*
X110286600Y-71109000D02*
X110871000Y-71693400D01*
X69000000Y-68500000D02*
X69000000Y-68007600D01*
X104444800Y-80924400D02*
X103682800Y-80924400D01*
X36981200Y-89748800D02*
X36981200Y-86765200D01*
X79318000Y-50038000D02*
X79349600Y-50038000D01*
D38*
X111683600Y-70078400D02*
X114030200Y-70078400D01*
D37*
X79349600Y-50038000D02*
X80670400Y-48717200D01*
X91465400Y-60325000D02*
X91795600Y-60655200D01*
X79019400Y-48387000D02*
X79044800Y-48412400D01*
X90218000Y-60325000D02*
X91465400Y-60325000D01*
X69000000Y-68007600D02*
X73609200Y-63398400D01*
X108239000Y-54016200D02*
X108254800Y-54000400D01*
X83093000Y-60896000D02*
X81598000Y-60896000D01*
X94037000Y-59055000D02*
X94037000Y-59074200D01*
X108239000Y-55232000D02*
X108239000Y-54016200D01*
X83855000Y-51373000D02*
X83855000Y-50327000D01*
X95616800Y-72452000D02*
X96621600Y-73456800D01*
X100022000Y-67859000D02*
X99314000Y-68567000D01*
X71272400Y-24012400D02*
X71272400Y-29057600D01*
X94037000Y-59074200D02*
X93014800Y-60096400D01*
X103886000Y-46075600D02*
X103225600Y-46075600D01*
X110993000Y-42271000D02*
X108493000Y-42271000D01*
X110953000Y-83881600D02*
X108453000Y-81381600D01*
X36981200Y-86765200D02*
X36322000Y-86106000D01*
X103530400Y-86829400D02*
X103530400Y-88087200D01*
X109664200Y-75234800D02*
X108051600Y-75234800D01*
X106410200Y-80924400D02*
X104444800Y-80924400D01*
X108453000Y-78881600D02*
X106410200Y-80924400D01*
X75538400Y-21778400D02*
X73660000Y-23656800D01*
X83855000Y-50327000D02*
X83362800Y-49834800D01*
X96676000Y-70717000D02*
X96676000Y-71827600D01*
X95526000Y-60833000D02*
X94056200Y-60833000D01*
X104688400Y-46075600D02*
X103886000Y-46075600D01*
X30481200Y-89748800D02*
X30481200Y-86714400D01*
X30481200Y-86714400D02*
X30988000Y-86207600D01*
X109042200Y-53467000D02*
X108204000Y-52628800D01*
X77737000Y-48387000D02*
X79019400Y-48387000D01*
X69038400Y-21778400D02*
X71272400Y-24012400D01*
X81598000Y-60896000D02*
X81584800Y-60909200D01*
%TO.N,Net-(U2-CV)*%
X113573000Y-53467000D02*
X113573000Y-51448000D01*
%TO.N,GND*%
X108461400Y-51413000D02*
X108458000Y-51409600D01*
X100990400Y-49072800D02*
X101396800Y-49072800D01*
X101911600Y-71759000D02*
X100757800Y-71759000D01*
X111214200Y-75234800D02*
X113030000Y-75234800D01*
X93888600Y-65339000D02*
X93878400Y-65328800D01*
X100391800Y-71109000D02*
X101911600Y-71109000D01*
X100736600Y-68509000D02*
X101911600Y-68509000D01*
X93599000Y-47879000D02*
X94132400Y-48412400D01*
X113573000Y-49898000D02*
X113573000Y-48225000D01*
X99187000Y-50165000D02*
X100279200Y-49072800D01*
X98729800Y-60833000D02*
X98755200Y-60858400D01*
X92011000Y-47879000D02*
X93599000Y-47879000D01*
X100448520Y-66458480D02*
X100786290Y-66458480D01*
X100886810Y-66559000D02*
X101911600Y-66559000D01*
X111352400Y-88289200D02*
X110439200Y-87376000D01*
D38*
X112340000Y-67178800D02*
X112839600Y-67678400D01*
D37*
X100430000Y-69320000D02*
X100430000Y-68815600D01*
X88668000Y-60325000D02*
X87299800Y-60325000D01*
X76187000Y-48387000D02*
X74549000Y-48387000D01*
D38*
X112442800Y-66520000D02*
X112340000Y-66622800D01*
D37*
X96301400Y-74559000D02*
X96520000Y-74777600D01*
X87299800Y-60325000D02*
X87274400Y-60350400D01*
X111352400Y-89799600D02*
X111352400Y-88289200D01*
X87869800Y-56323000D02*
X87884000Y-56337200D01*
D38*
X112340000Y-66622800D02*
X112340000Y-67178800D01*
D37*
X86395000Y-56323000D02*
X87869800Y-56323000D01*
X96676000Y-67770800D02*
X96672400Y-67767200D01*
X100279200Y-49072800D02*
X100990400Y-49072800D01*
X100126800Y-71374000D02*
X100391800Y-71109000D01*
X100430000Y-68815600D02*
X100736600Y-68509000D01*
X74168000Y-59588400D02*
X73507600Y-60248800D01*
X95159600Y-67502000D02*
X96164400Y-66497200D01*
X100786290Y-66458480D02*
X100886810Y-66559000D01*
X99314000Y-70117000D02*
X99314000Y-71475600D01*
X109111600Y-69159000D02*
X110469800Y-69159000D01*
X91342000Y-76051000D02*
X91342000Y-77466400D01*
X109763000Y-51413000D02*
X108461400Y-51413000D01*
X74168000Y-58928000D02*
X74168000Y-59588400D01*
D38*
X112801200Y-66878400D02*
X114030200Y-66878400D01*
D37*
X100757800Y-71759000D02*
X100380800Y-72136000D01*
X96676000Y-69167000D02*
X96676000Y-67770800D01*
X74549000Y-48387000D02*
X74523600Y-48412400D01*
X97076000Y-60833000D02*
X98729800Y-60833000D01*
X104852400Y-88441600D02*
X105968800Y-87325200D01*
X100126800Y-71526400D02*
X100126800Y-71374000D01*
X91342000Y-77466400D02*
X91338400Y-77470000D01*
X85991200Y-60896000D02*
X86004400Y-60909200D01*
X104852400Y-89799600D02*
X104852400Y-88441600D01*
X95123000Y-67502000D02*
X95159600Y-67502000D01*
X84617000Y-60896000D02*
X85991200Y-60896000D01*
X109680200Y-58417000D02*
X108254800Y-59842400D01*
X110469800Y-69159000D02*
X110794800Y-68834000D01*
X95230500Y-65339000D02*
X93888600Y-65339000D01*
D38*
X112442800Y-66520000D02*
X112801200Y-66878400D01*
D37*
X95152000Y-74559000D02*
X96301400Y-74559000D01*
X113573000Y-48225000D02*
X113588800Y-48209200D01*
X108239000Y-56782000D02*
X108239000Y-57997800D01*
X109763000Y-58417000D02*
X109680200Y-58417000D01*
X108239000Y-57997800D02*
X108254800Y-58013600D01*
D38*
X112839600Y-67678400D02*
X114030200Y-67678400D01*
D37*
%TO.N,CLOCK*%
X92989400Y-51435000D02*
X92710000Y-51155600D01*
X92659200Y-51104800D02*
X91490800Y-51104800D01*
X112303000Y-58417000D02*
X112303000Y-60385400D01*
X94037000Y-51435000D02*
X92989400Y-51435000D01*
X92710000Y-51155600D02*
X92659200Y-51104800D01*
X112303000Y-60385400D02*
X112318800Y-60401200D01*
%TO.N,Net-(U5-CV)*%
X91313000Y-74472000D02*
X91342000Y-74501000D01*
X91313000Y-72452000D02*
X91313000Y-74472000D01*
%TO.N,Net-(U5-DIS)*%
X93853000Y-72452000D02*
X93853000Y-67502000D01*
X94517000Y-77493000D02*
X93853000Y-77493000D01*
X104495600Y-82905600D02*
X104977000Y-82905600D01*
X92612000Y-76101000D02*
X92612000Y-76858000D01*
X93853000Y-78460600D02*
X93878400Y-78486000D01*
X95152000Y-76109000D02*
X95152000Y-76858000D01*
X92612000Y-76858000D02*
X93247000Y-77493000D01*
X104977000Y-82905600D02*
X105953000Y-83881600D01*
X93853000Y-72452000D02*
X93853000Y-77493000D01*
X93247000Y-77493000D02*
X93853000Y-77493000D01*
X95152000Y-76858000D02*
X94517000Y-77493000D01*
X93853000Y-77493000D02*
X93853000Y-78460600D01*
%TO.N,Net-(U5-Q)*%
X92583000Y-65207000D02*
X92612000Y-65178000D01*
X92583000Y-67502000D02*
X92583000Y-65207000D01*
%TO.N,ALARM*%
X74168000Y-50038000D02*
X74015600Y-50038000D01*
X91313000Y-65913000D02*
X90779600Y-65379600D01*
X91313000Y-67502000D02*
X91313000Y-65913000D01*
X101869600Y-67167000D02*
X101911600Y-67209000D01*
X99216092Y-66458465D02*
X99529265Y-66458465D01*
X74015600Y-50038000D02*
X72999600Y-49022000D01*
X100237800Y-67167000D02*
X101869600Y-67167000D01*
X99529265Y-66458465D02*
X100237800Y-67167000D01*
%TO.N,Net-(U5-THR)*%
X92583000Y-74422000D02*
X92612000Y-74451000D01*
X92583000Y-72452000D02*
X92583000Y-74422000D01*
D39*
%TO.N,DT+*%
X112225001Y-65163197D02*
X112225001Y-63427869D01*
X111440000Y-67394730D02*
X111440000Y-65948198D01*
D40*
X101261600Y-64609000D02*
X101911600Y-64609000D01*
D39*
X113110200Y-68648400D02*
X112693670Y-68648400D01*
X112693670Y-68648400D02*
X111440000Y-67394730D01*
X114030200Y-68478400D02*
X113280200Y-68478400D01*
X111440000Y-65948198D02*
X112225001Y-65163197D01*
X113280200Y-68478400D02*
X113110200Y-68648400D01*
X112225001Y-63427869D02*
X111761207Y-62964075D01*
D37*
%TO.N,Net-(J1-Pin_2)*%
X116840000Y-74269600D02*
X117774400Y-75204000D01*
X111556800Y-71475600D02*
X111810800Y-71729600D01*
X117774400Y-75204000D02*
X117774400Y-76835400D01*
X109111600Y-70459000D02*
X110540200Y-70459000D01*
X110540200Y-70459000D02*
X111556800Y-71475600D01*
D39*
%TO.N,DT-*%
X110980000Y-67585270D02*
X110980000Y-65771802D01*
X100728943Y-64979000D02*
X101008943Y-65259000D01*
X113110200Y-69108400D02*
X112503130Y-69108400D01*
X101008943Y-65259000D02*
X101911600Y-65259000D01*
X99746381Y-64706419D02*
X100018962Y-64979000D01*
X113280200Y-69278400D02*
X113110200Y-69108400D01*
X110980000Y-65771802D02*
X111774999Y-64976803D01*
X100018962Y-64979000D02*
X100728943Y-64979000D01*
X111774999Y-64039999D02*
X111575000Y-63840000D01*
X99532778Y-64706419D02*
X99746381Y-64706419D01*
X111774999Y-64976803D02*
X111774999Y-64039999D01*
X114030200Y-69278400D02*
X113280200Y-69278400D01*
X112503130Y-69108400D02*
X110980000Y-67585270D01*
D37*
%TO.N,Net-(J1-Pin_1)*%
X115265200Y-76804600D02*
X115234400Y-76835400D01*
X109111600Y-73059000D02*
X111497400Y-73059000D01*
X115849400Y-74396600D02*
X115265200Y-74980800D01*
X111497400Y-73059000D02*
X111506000Y-73050400D01*
X115265200Y-74980800D02*
X115265200Y-76804600D01*
%TO.N,Net-(BZ1--)*%
X73000000Y-65836400D02*
X74676000Y-64160400D01*
X73000000Y-68500000D02*
X73000000Y-65836400D01*
%TO.N,RESET*%
X98196400Y-71221600D02*
X98196400Y-74523600D01*
X92887800Y-52705000D02*
X92354400Y-52171600D01*
X107746800Y-91405200D02*
X107746800Y-87884000D01*
X94037000Y-52705000D02*
X92887800Y-52705000D01*
X98194000Y-71219200D02*
X98196400Y-71221600D01*
X79857600Y-56388000D02*
X80568800Y-55676800D01*
X111352400Y-94299600D02*
X109118400Y-92065600D01*
X103530400Y-85179400D02*
X103530400Y-83769200D01*
X97907000Y-65213000D02*
X98194000Y-65500000D01*
X109118400Y-92065600D02*
X109118400Y-87884000D01*
X79318000Y-56388000D02*
X79857600Y-56388000D01*
X98194000Y-65500000D02*
X98194000Y-71219200D01*
X104852400Y-94299600D02*
X107746800Y-91405200D01*
%TO.N,Net-(U1-Q0)*%
X92583000Y-49657000D02*
X93091000Y-50165000D01*
X93091000Y-50165000D02*
X94037000Y-50165000D01*
X92011000Y-49657000D02*
X92583000Y-49657000D01*
%TO.N,Net-(U4-+)*%
X102679000Y-55245000D02*
X104013000Y-55245000D01*
X104013000Y-52705000D02*
X104013000Y-54102000D01*
X85125000Y-56323000D02*
X85125000Y-57658000D01*
X89789000Y-47879000D02*
X90361000Y-47879000D01*
X88773000Y-58166000D02*
X89281000Y-57658000D01*
X102679000Y-52705000D02*
X104013000Y-52705000D01*
X104013000Y-57150000D02*
X104013000Y-58547000D01*
X103060000Y-58420000D02*
X103886000Y-58420000D01*
X85125000Y-57658000D02*
X85633000Y-58166000D01*
X89281000Y-56896000D02*
X90361000Y-56896000D01*
X89916000Y-58293000D02*
X89281000Y-57658000D01*
X103060000Y-57150000D02*
X104013000Y-57150000D01*
X90361000Y-49657000D02*
X89281000Y-49657000D01*
X90361000Y-58293000D02*
X89916000Y-58293000D01*
X103886000Y-58420000D02*
X104013000Y-58547000D01*
X89281000Y-49657000D02*
X89281000Y-48387000D01*
X89281000Y-48387000D02*
X89789000Y-47879000D01*
X89281000Y-54864000D02*
X89281000Y-53594000D01*
X103708200Y-59740800D02*
X103060000Y-59740800D01*
X104013000Y-51435000D02*
X104013000Y-52705000D01*
X104013000Y-58547000D02*
X104013000Y-59436000D01*
X90361000Y-54864000D02*
X89281000Y-54864000D01*
X89281000Y-57658000D02*
X89281000Y-56896000D01*
X104013000Y-54102000D02*
X104013000Y-55245000D01*
X85633000Y-58166000D02*
X88773000Y-58166000D01*
X104013000Y-55245000D02*
X104013000Y-57150000D01*
X104013000Y-59436000D02*
X103708200Y-59740800D01*
X89281000Y-56896000D02*
X89281000Y-54864000D01*
X89281000Y-53594000D02*
X89281000Y-49657000D01*
X103886000Y-53975000D02*
X104013000Y-54102000D01*
X102933000Y-50927000D02*
X103505000Y-50927000D01*
X90361000Y-53594000D02*
X89281000Y-53594000D01*
X103505000Y-50927000D02*
X104013000Y-51435000D01*
X102679000Y-53975000D02*
X103886000Y-53975000D01*
%TO.N,Net-(U1-Q1)*%
X100203000Y-51435000D02*
X100711000Y-50927000D01*
X99187000Y-51435000D02*
X100203000Y-51435000D01*
X100711000Y-50927000D02*
X101283000Y-50927000D01*
%TO.N,Net-(U1-Q2)*%
X99187000Y-52705000D02*
X101029000Y-52705000D01*
%TO.N,Net-(U1-Q3)*%
X99187000Y-53975000D02*
X101029000Y-53975000D01*
%TO.N,Net-(U1-Q4)*%
X101410000Y-57150000D02*
X100838000Y-57150000D01*
X100203000Y-56515000D02*
X99187000Y-56515000D01*
X100838000Y-57150000D02*
X100203000Y-56515000D01*
%TO.N,Net-(U1-Q5)*%
X100965000Y-58420000D02*
X100330000Y-57785000D01*
X101410000Y-58420000D02*
X100965000Y-58420000D01*
X100330000Y-57785000D02*
X99187000Y-57785000D01*
%TO.N,Net-(U1-Q6)*%
X99187000Y-55245000D02*
X101029000Y-55245000D01*
%TO.N,Net-(U1-Q7)*%
X92011000Y-54864000D02*
X92456000Y-54864000D01*
X92837000Y-55245000D02*
X94037000Y-55245000D01*
X92456000Y-54864000D02*
X92837000Y-55245000D01*
%TO.N,Net-(U1-Q8)*%
X92456000Y-53594000D02*
X92837000Y-53975000D01*
X92837000Y-53975000D02*
X94037000Y-53975000D01*
X92011000Y-53594000D02*
X92456000Y-53594000D01*
%TO.N,Net-(U1-Q9)*%
X92964000Y-56515000D02*
X94037000Y-56515000D01*
X92583000Y-56896000D02*
X92964000Y-56515000D01*
X92011000Y-56896000D02*
X92583000Y-56896000D01*
%TO.N,Net-(U1-Q10)*%
X92011000Y-58293000D02*
X92583000Y-58293000D01*
X92583000Y-58293000D02*
X93091000Y-57785000D01*
X93091000Y-57785000D02*
X94037000Y-57785000D01*
%TO.N,Net-(U1-Q11)*%
X100203000Y-59055000D02*
X99187000Y-59055000D01*
X100888800Y-59740800D02*
X100203000Y-59055000D01*
X101410000Y-59740800D02*
X100888800Y-59740800D01*
%TO.N,Net-(U4--)*%
X83093000Y-58293000D02*
X83093000Y-59246000D01*
X83855000Y-56323000D02*
X83855000Y-57531000D01*
X83855000Y-57531000D02*
X83093000Y-58293000D01*
X83855000Y-57531000D02*
X84617000Y-58293000D01*
X84617000Y-58293000D02*
X84617000Y-59246000D01*
%TO.N,Net-(U3-CLK)*%
X84236000Y-49022000D02*
X82331000Y-49022000D01*
X85125000Y-49911000D02*
X84236000Y-49022000D01*
X80426000Y-57658000D02*
X79318000Y-57658000D01*
X82331000Y-49022000D02*
X81315000Y-50038000D01*
X81315000Y-50038000D02*
X81315000Y-56769000D01*
X85125000Y-51373000D02*
X85125000Y-49911000D01*
X81315000Y-56769000D02*
X80426000Y-57658000D01*
%TO.N,Net-(Q2-B)*%
X92612000Y-63528000D02*
X95141500Y-63528000D01*
X95141500Y-63528000D02*
X95230500Y-63439000D01*
D39*
%TO.N,DT+*%
X100995311Y-64609000D02*
X101911600Y-64609000D01*
X100205379Y-64529020D02*
X100915331Y-64529020D01*
X99532778Y-63856419D02*
X100205379Y-64529020D01*
X100915331Y-64529020D02*
X100995311Y-64609000D01*
%TD*%
M02*
