%TF.GenerationSoftware,KiCad,Pcbnew,9.0.1*%
%TF.CreationDate,2025-07-27T01:52:11-03:00*%
%TF.ProjectId,board,626f6172-642e-46b6-9963-61645f706362,rev?*%
%TF.SameCoordinates,Original*%
%TF.FileFunction,Plated,1,4,PTH,Drill*%
%TF.FilePolarity,Positive*%
%FSLAX46Y46*%
G04 Gerber Fmt 4.6, Leading zero omitted, Abs format (unit mm)*
G04 Created by KiCad (PCBNEW 9.0.1) date 2025-07-27 01:52:11*
%MOMM*%
%LPD*%
G01*
G04 APERTURE LIST*
%TA.AperFunction,ViaDrill*%
%ADD10C,0.300000*%
%TD*%
%TA.AperFunction,ViaDrill*%
%ADD11C,0.500000*%
%TD*%
%TA.AperFunction,ComponentDrill*%
%ADD12C,0.900000*%
%TD*%
%TA.AperFunction,ComponentDrill*%
%ADD13C,1.000000*%
%TD*%
%TA.AperFunction,ComponentDrill*%
%ADD14C,1.100000*%
%TD*%
G04 APERTURE END LIST*
D10*
X30988000Y-86207600D03*
X32918400Y-87376000D03*
X34645600Y-87376000D03*
X36322000Y-86106000D03*
X69900800Y-30480000D03*
X71272400Y-29057600D03*
X72999600Y-49022000D03*
X73507600Y-60248800D03*
X73609200Y-63398400D03*
X73660000Y-29057600D03*
X74523600Y-48412400D03*
X74625200Y-30480000D03*
X74676000Y-64160400D03*
X79044800Y-48412400D03*
X80568800Y-55676800D03*
X80670400Y-48717200D03*
X81584800Y-60909200D03*
X83362800Y-49834800D03*
X86004400Y-60909200D03*
X87274400Y-60350400D03*
X87884000Y-56337200D03*
X90779600Y-65379600D03*
X91338400Y-77470000D03*
X91490800Y-51104800D03*
X91795600Y-60655200D03*
X92354400Y-52171600D03*
X93014800Y-60096400D03*
X93878400Y-65328800D03*
X93878400Y-78486000D03*
X94030800Y-60858400D03*
X94132400Y-48412400D03*
X96164400Y-66497200D03*
X96520000Y-74777600D03*
X96621600Y-73456800D03*
X96672400Y-67767200D03*
X96672400Y-71831200D03*
X97020000Y-66710000D03*
X97907000Y-65213000D03*
X98196400Y-74523600D03*
X98755200Y-60858400D03*
X98910006Y-64274341D03*
X99070000Y-67410000D03*
X99216092Y-66458465D03*
X99314000Y-71475600D03*
X99532778Y-63856419D03*
X99532778Y-64706419D03*
X99724449Y-65443502D03*
X99756734Y-63140635D03*
X100126800Y-71526400D03*
X100380800Y-72136000D03*
X100430000Y-69320000D03*
X100448520Y-66458480D03*
X101396800Y-49072800D03*
X103225600Y-46075600D03*
X103530400Y-83769200D03*
X103530400Y-88087200D03*
X103682800Y-80924400D03*
X104495600Y-82905600D03*
X105968800Y-87325200D03*
X107746800Y-87884000D03*
X108051600Y-75234800D03*
X108204000Y-52628800D03*
X108254800Y-54000400D03*
X108254800Y-58013600D03*
X108254800Y-59842400D03*
X108458000Y-51409600D03*
X109118400Y-87884000D03*
X110439200Y-87376000D03*
X110605393Y-63434607D03*
X110794800Y-68834000D03*
X110871000Y-72161400D03*
X111224999Y-64565223D03*
X111506000Y-73050400D03*
X111514254Y-62151436D03*
X111575000Y-63840000D03*
X111761207Y-62964075D03*
X111810800Y-71729600D03*
X112318800Y-60401200D03*
X112594649Y-63019698D03*
X113030000Y-75234800D03*
X113588800Y-48209200D03*
X114300000Y-60553600D03*
X115849400Y-74396600D03*
X116840000Y-74269600D03*
D11*
X111353600Y-69748400D03*
X112442800Y-66520000D03*
D12*
%TO.C,BZ1*%
X69000000Y-68500000D03*
X73000000Y-68500000D03*
%TO.C,RV2*%
X105953000Y-83881600D03*
%TO.C,RV1*%
X105993000Y-44771000D03*
%TO.C,RV2*%
X108453000Y-78881600D03*
X110953000Y-83881600D03*
%TO.C,RV1*%
X110993000Y-42271000D03*
X110993000Y-47271000D03*
D13*
%TO.C,J1*%
X115234400Y-76835400D03*
X117774400Y-76835400D03*
D14*
%TO.C,SW2*%
X30481200Y-89748800D03*
X30481200Y-94248800D03*
X36981200Y-89748800D03*
X36981200Y-94248800D03*
%TO.C,SW1*%
X69038400Y-21778400D03*
X69038400Y-26278400D03*
X75538400Y-21778400D03*
X75538400Y-26278400D03*
%TO.C,SW4*%
X104852400Y-89799600D03*
X104852400Y-94299600D03*
X111352400Y-89799600D03*
X111352400Y-94299600D03*
M02*
