%TF.GenerationSoftware,KiCad,Pcbnew,9.0.1*%
%TF.CreationDate,2025-05-14T21:44:32-03:00*%
%TF.ProjectId,queremate_pd_safe,71756572-656d-4617-9465-5f70645f7361,rev?*%
%TF.SameCoordinates,Original*%
%TF.FileFunction,Drillmap*%
%TF.FilePolarity,Positive*%
%FSLAX45Y45*%
G04 Gerber Fmt 4.5, Leading zero omitted, Abs format (unit mm)*
G04 Created by KiCad (PCBNEW 9.0.1) date 2025-05-14 21:44:32*
%MOMM*%
%LPD*%
G01*
G04 APERTURE LIST*
%ADD10C,0.050000*%
%ADD11C,0.200000*%
%ADD12C,0.100000*%
G04 APERTURE END LIST*
D10*
X12086600Y-6858000D02*
G75*
G02*
X2086600Y-6858000I-5000000J0D01*
G01*
X2086600Y-6858000D02*
G75*
G02*
X12086600Y-6858000I5000000J0D01*
G01*
D11*
D12*
X11623020Y-6577840D02*
X11723020Y-6677840D01*
X11723020Y-6577840D02*
X11623020Y-6677840D01*
X11623020Y-7017840D02*
X11723020Y-7117840D01*
X11723020Y-7017840D02*
X11623020Y-7117840D01*
D11*
X2344877Y-12171984D02*
X2344877Y-11971984D01*
X2344877Y-11971984D02*
X2392496Y-11971984D01*
X2392496Y-11971984D02*
X2421067Y-11981508D01*
X2421067Y-11981508D02*
X2440115Y-12000555D01*
X2440115Y-12000555D02*
X2449639Y-12019603D01*
X2449639Y-12019603D02*
X2459163Y-12057698D01*
X2459163Y-12057698D02*
X2459163Y-12086269D01*
X2459163Y-12086269D02*
X2449639Y-12124365D01*
X2449639Y-12124365D02*
X2440115Y-12143412D01*
X2440115Y-12143412D02*
X2421067Y-12162460D01*
X2421067Y-12162460D02*
X2392496Y-12171984D01*
X2392496Y-12171984D02*
X2344877Y-12171984D01*
X2544877Y-12171984D02*
X2544877Y-12038650D01*
X2544877Y-12076746D02*
X2554401Y-12057698D01*
X2554401Y-12057698D02*
X2563924Y-12048174D01*
X2563924Y-12048174D02*
X2582972Y-12038650D01*
X2582972Y-12038650D02*
X2602020Y-12038650D01*
X2668686Y-12171984D02*
X2668686Y-12038650D01*
X2668686Y-11971984D02*
X2659163Y-11981508D01*
X2659163Y-11981508D02*
X2668686Y-11991031D01*
X2668686Y-11991031D02*
X2678210Y-11981508D01*
X2678210Y-11981508D02*
X2668686Y-11971984D01*
X2668686Y-11971984D02*
X2668686Y-11991031D01*
X2792496Y-12171984D02*
X2773448Y-12162460D01*
X2773448Y-12162460D02*
X2763924Y-12143412D01*
X2763924Y-12143412D02*
X2763924Y-11971984D01*
X2897258Y-12171984D02*
X2878210Y-12162460D01*
X2878210Y-12162460D02*
X2868686Y-12143412D01*
X2868686Y-12143412D02*
X2868686Y-11971984D01*
X3125829Y-12171984D02*
X3125829Y-11971984D01*
X3125829Y-11971984D02*
X3192496Y-12114841D01*
X3192496Y-12114841D02*
X3259162Y-11971984D01*
X3259162Y-11971984D02*
X3259162Y-12171984D01*
X3440115Y-12171984D02*
X3440115Y-12067222D01*
X3440115Y-12067222D02*
X3430591Y-12048174D01*
X3430591Y-12048174D02*
X3411543Y-12038650D01*
X3411543Y-12038650D02*
X3373448Y-12038650D01*
X3373448Y-12038650D02*
X3354401Y-12048174D01*
X3440115Y-12162460D02*
X3421067Y-12171984D01*
X3421067Y-12171984D02*
X3373448Y-12171984D01*
X3373448Y-12171984D02*
X3354401Y-12162460D01*
X3354401Y-12162460D02*
X3344877Y-12143412D01*
X3344877Y-12143412D02*
X3344877Y-12124365D01*
X3344877Y-12124365D02*
X3354401Y-12105317D01*
X3354401Y-12105317D02*
X3373448Y-12095793D01*
X3373448Y-12095793D02*
X3421067Y-12095793D01*
X3421067Y-12095793D02*
X3440115Y-12086269D01*
X3535353Y-12038650D02*
X3535353Y-12238650D01*
X3535353Y-12048174D02*
X3554401Y-12038650D01*
X3554401Y-12038650D02*
X3592496Y-12038650D01*
X3592496Y-12038650D02*
X3611543Y-12048174D01*
X3611543Y-12048174D02*
X3621067Y-12057698D01*
X3621067Y-12057698D02*
X3630591Y-12076746D01*
X3630591Y-12076746D02*
X3630591Y-12133888D01*
X3630591Y-12133888D02*
X3621067Y-12152936D01*
X3621067Y-12152936D02*
X3611543Y-12162460D01*
X3611543Y-12162460D02*
X3592496Y-12171984D01*
X3592496Y-12171984D02*
X3554401Y-12171984D01*
X3554401Y-12171984D02*
X3535353Y-12162460D01*
X3716305Y-12152936D02*
X3725829Y-12162460D01*
X3725829Y-12162460D02*
X3716305Y-12171984D01*
X3716305Y-12171984D02*
X3706782Y-12162460D01*
X3706782Y-12162460D02*
X3716305Y-12152936D01*
X3716305Y-12152936D02*
X3716305Y-12171984D01*
X3716305Y-12048174D02*
X3725829Y-12057698D01*
X3725829Y-12057698D02*
X3716305Y-12067222D01*
X3716305Y-12067222D02*
X3706782Y-12057698D01*
X3706782Y-12057698D02*
X3716305Y-12048174D01*
X3716305Y-12048174D02*
X3716305Y-12067222D01*
D12*
X1984100Y-12450500D02*
X2084100Y-12550500D01*
X2084100Y-12450500D02*
X1984100Y-12550500D01*
D11*
X2449639Y-12591984D02*
X2335353Y-12591984D01*
X2392496Y-12591984D02*
X2392496Y-12391984D01*
X2392496Y-12391984D02*
X2373448Y-12420555D01*
X2373448Y-12420555D02*
X2354401Y-12439603D01*
X2354401Y-12439603D02*
X2335353Y-12449127D01*
X2535353Y-12572936D02*
X2544877Y-12582460D01*
X2544877Y-12582460D02*
X2535353Y-12591984D01*
X2535353Y-12591984D02*
X2525829Y-12582460D01*
X2525829Y-12582460D02*
X2535353Y-12572936D01*
X2535353Y-12572936D02*
X2535353Y-12591984D01*
X2668686Y-12391984D02*
X2687734Y-12391984D01*
X2687734Y-12391984D02*
X2706782Y-12401508D01*
X2706782Y-12401508D02*
X2716305Y-12411031D01*
X2716305Y-12411031D02*
X2725829Y-12430079D01*
X2725829Y-12430079D02*
X2735353Y-12468174D01*
X2735353Y-12468174D02*
X2735353Y-12515793D01*
X2735353Y-12515793D02*
X2725829Y-12553888D01*
X2725829Y-12553888D02*
X2716305Y-12572936D01*
X2716305Y-12572936D02*
X2706782Y-12582460D01*
X2706782Y-12582460D02*
X2687734Y-12591984D01*
X2687734Y-12591984D02*
X2668686Y-12591984D01*
X2668686Y-12591984D02*
X2649639Y-12582460D01*
X2649639Y-12582460D02*
X2640115Y-12572936D01*
X2640115Y-12572936D02*
X2630591Y-12553888D01*
X2630591Y-12553888D02*
X2621067Y-12515793D01*
X2621067Y-12515793D02*
X2621067Y-12468174D01*
X2621067Y-12468174D02*
X2630591Y-12430079D01*
X2630591Y-12430079D02*
X2640115Y-12411031D01*
X2640115Y-12411031D02*
X2649639Y-12401508D01*
X2649639Y-12401508D02*
X2668686Y-12391984D01*
X2859162Y-12391984D02*
X2878210Y-12391984D01*
X2878210Y-12391984D02*
X2897258Y-12401508D01*
X2897258Y-12401508D02*
X2906782Y-12411031D01*
X2906782Y-12411031D02*
X2916305Y-12430079D01*
X2916305Y-12430079D02*
X2925829Y-12468174D01*
X2925829Y-12468174D02*
X2925829Y-12515793D01*
X2925829Y-12515793D02*
X2916305Y-12553888D01*
X2916305Y-12553888D02*
X2906782Y-12572936D01*
X2906782Y-12572936D02*
X2897258Y-12582460D01*
X2897258Y-12582460D02*
X2878210Y-12591984D01*
X2878210Y-12591984D02*
X2859162Y-12591984D01*
X2859162Y-12591984D02*
X2840115Y-12582460D01*
X2840115Y-12582460D02*
X2830591Y-12572936D01*
X2830591Y-12572936D02*
X2821067Y-12553888D01*
X2821067Y-12553888D02*
X2811543Y-12515793D01*
X2811543Y-12515793D02*
X2811543Y-12468174D01*
X2811543Y-12468174D02*
X2821067Y-12430079D01*
X2821067Y-12430079D02*
X2830591Y-12411031D01*
X2830591Y-12411031D02*
X2840115Y-12401508D01*
X2840115Y-12401508D02*
X2859162Y-12391984D01*
X3049639Y-12391984D02*
X3068686Y-12391984D01*
X3068686Y-12391984D02*
X3087734Y-12401508D01*
X3087734Y-12401508D02*
X3097258Y-12411031D01*
X3097258Y-12411031D02*
X3106782Y-12430079D01*
X3106782Y-12430079D02*
X3116305Y-12468174D01*
X3116305Y-12468174D02*
X3116305Y-12515793D01*
X3116305Y-12515793D02*
X3106782Y-12553888D01*
X3106782Y-12553888D02*
X3097258Y-12572936D01*
X3097258Y-12572936D02*
X3087734Y-12582460D01*
X3087734Y-12582460D02*
X3068686Y-12591984D01*
X3068686Y-12591984D02*
X3049639Y-12591984D01*
X3049639Y-12591984D02*
X3030591Y-12582460D01*
X3030591Y-12582460D02*
X3021067Y-12572936D01*
X3021067Y-12572936D02*
X3011543Y-12553888D01*
X3011543Y-12553888D02*
X3002020Y-12515793D01*
X3002020Y-12515793D02*
X3002020Y-12468174D01*
X3002020Y-12468174D02*
X3011543Y-12430079D01*
X3011543Y-12430079D02*
X3021067Y-12411031D01*
X3021067Y-12411031D02*
X3030591Y-12401508D01*
X3030591Y-12401508D02*
X3049639Y-12391984D01*
X3202020Y-12591984D02*
X3202020Y-12458650D01*
X3202020Y-12477698D02*
X3211543Y-12468174D01*
X3211543Y-12468174D02*
X3230591Y-12458650D01*
X3230591Y-12458650D02*
X3259163Y-12458650D01*
X3259163Y-12458650D02*
X3278210Y-12468174D01*
X3278210Y-12468174D02*
X3287734Y-12487222D01*
X3287734Y-12487222D02*
X3287734Y-12591984D01*
X3287734Y-12487222D02*
X3297258Y-12468174D01*
X3297258Y-12468174D02*
X3316305Y-12458650D01*
X3316305Y-12458650D02*
X3344877Y-12458650D01*
X3344877Y-12458650D02*
X3363924Y-12468174D01*
X3363924Y-12468174D02*
X3373448Y-12487222D01*
X3373448Y-12487222D02*
X3373448Y-12591984D01*
X3468686Y-12591984D02*
X3468686Y-12458650D01*
X3468686Y-12477698D02*
X3478210Y-12468174D01*
X3478210Y-12468174D02*
X3497258Y-12458650D01*
X3497258Y-12458650D02*
X3525829Y-12458650D01*
X3525829Y-12458650D02*
X3544877Y-12468174D01*
X3544877Y-12468174D02*
X3554401Y-12487222D01*
X3554401Y-12487222D02*
X3554401Y-12591984D01*
X3554401Y-12487222D02*
X3563924Y-12468174D01*
X3563924Y-12468174D02*
X3582972Y-12458650D01*
X3582972Y-12458650D02*
X3611543Y-12458650D01*
X3611543Y-12458650D02*
X3630591Y-12468174D01*
X3630591Y-12468174D02*
X3640115Y-12487222D01*
X3640115Y-12487222D02*
X3640115Y-12591984D01*
X4030591Y-12382460D02*
X3859163Y-12639603D01*
X4287734Y-12391984D02*
X4306782Y-12391984D01*
X4306782Y-12391984D02*
X4325829Y-12401508D01*
X4325829Y-12401508D02*
X4335353Y-12411031D01*
X4335353Y-12411031D02*
X4344877Y-12430079D01*
X4344877Y-12430079D02*
X4354401Y-12468174D01*
X4354401Y-12468174D02*
X4354401Y-12515793D01*
X4354401Y-12515793D02*
X4344877Y-12553888D01*
X4344877Y-12553888D02*
X4335353Y-12572936D01*
X4335353Y-12572936D02*
X4325829Y-12582460D01*
X4325829Y-12582460D02*
X4306782Y-12591984D01*
X4306782Y-12591984D02*
X4287734Y-12591984D01*
X4287734Y-12591984D02*
X4268687Y-12582460D01*
X4268687Y-12582460D02*
X4259163Y-12572936D01*
X4259163Y-12572936D02*
X4249639Y-12553888D01*
X4249639Y-12553888D02*
X4240115Y-12515793D01*
X4240115Y-12515793D02*
X4240115Y-12468174D01*
X4240115Y-12468174D02*
X4249639Y-12430079D01*
X4249639Y-12430079D02*
X4259163Y-12411031D01*
X4259163Y-12411031D02*
X4268687Y-12401508D01*
X4268687Y-12401508D02*
X4287734Y-12391984D01*
X4440115Y-12572936D02*
X4449639Y-12582460D01*
X4449639Y-12582460D02*
X4440115Y-12591984D01*
X4440115Y-12591984D02*
X4430591Y-12582460D01*
X4430591Y-12582460D02*
X4440115Y-12572936D01*
X4440115Y-12572936D02*
X4440115Y-12591984D01*
X4573448Y-12391984D02*
X4592496Y-12391984D01*
X4592496Y-12391984D02*
X4611544Y-12401508D01*
X4611544Y-12401508D02*
X4621068Y-12411031D01*
X4621068Y-12411031D02*
X4630591Y-12430079D01*
X4630591Y-12430079D02*
X4640115Y-12468174D01*
X4640115Y-12468174D02*
X4640115Y-12515793D01*
X4640115Y-12515793D02*
X4630591Y-12553888D01*
X4630591Y-12553888D02*
X4621068Y-12572936D01*
X4621068Y-12572936D02*
X4611544Y-12582460D01*
X4611544Y-12582460D02*
X4592496Y-12591984D01*
X4592496Y-12591984D02*
X4573448Y-12591984D01*
X4573448Y-12591984D02*
X4554401Y-12582460D01*
X4554401Y-12582460D02*
X4544877Y-12572936D01*
X4544877Y-12572936D02*
X4535353Y-12553888D01*
X4535353Y-12553888D02*
X4525829Y-12515793D01*
X4525829Y-12515793D02*
X4525829Y-12468174D01*
X4525829Y-12468174D02*
X4535353Y-12430079D01*
X4535353Y-12430079D02*
X4544877Y-12411031D01*
X4544877Y-12411031D02*
X4554401Y-12401508D01*
X4554401Y-12401508D02*
X4573448Y-12391984D01*
X4706782Y-12391984D02*
X4830591Y-12391984D01*
X4830591Y-12391984D02*
X4763925Y-12468174D01*
X4763925Y-12468174D02*
X4792496Y-12468174D01*
X4792496Y-12468174D02*
X4811544Y-12477698D01*
X4811544Y-12477698D02*
X4821068Y-12487222D01*
X4821068Y-12487222D02*
X4830591Y-12506269D01*
X4830591Y-12506269D02*
X4830591Y-12553888D01*
X4830591Y-12553888D02*
X4821068Y-12572936D01*
X4821068Y-12572936D02*
X4811544Y-12582460D01*
X4811544Y-12582460D02*
X4792496Y-12591984D01*
X4792496Y-12591984D02*
X4735353Y-12591984D01*
X4735353Y-12591984D02*
X4716306Y-12582460D01*
X4716306Y-12582460D02*
X4706782Y-12572936D01*
X4925829Y-12591984D02*
X4963925Y-12591984D01*
X4963925Y-12591984D02*
X4982972Y-12582460D01*
X4982972Y-12582460D02*
X4992496Y-12572936D01*
X4992496Y-12572936D02*
X5011544Y-12544365D01*
X5011544Y-12544365D02*
X5021068Y-12506269D01*
X5021068Y-12506269D02*
X5021068Y-12430079D01*
X5021068Y-12430079D02*
X5011544Y-12411031D01*
X5011544Y-12411031D02*
X5002020Y-12401508D01*
X5002020Y-12401508D02*
X4982972Y-12391984D01*
X4982972Y-12391984D02*
X4944877Y-12391984D01*
X4944877Y-12391984D02*
X4925829Y-12401508D01*
X4925829Y-12401508D02*
X4916306Y-12411031D01*
X4916306Y-12411031D02*
X4906782Y-12430079D01*
X4906782Y-12430079D02*
X4906782Y-12477698D01*
X4906782Y-12477698D02*
X4916306Y-12496746D01*
X4916306Y-12496746D02*
X4925829Y-12506269D01*
X4925829Y-12506269D02*
X4944877Y-12515793D01*
X4944877Y-12515793D02*
X4982972Y-12515793D01*
X4982972Y-12515793D02*
X5002020Y-12506269D01*
X5002020Y-12506269D02*
X5011544Y-12496746D01*
X5011544Y-12496746D02*
X5021068Y-12477698D01*
X5192496Y-12458650D02*
X5192496Y-12591984D01*
X5144877Y-12382460D02*
X5097258Y-12525317D01*
X5097258Y-12525317D02*
X5221068Y-12525317D01*
X5287734Y-12391984D02*
X5287734Y-12430079D01*
X5363925Y-12391984D02*
X5363925Y-12430079D01*
X5659163Y-12668174D02*
X5649639Y-12658650D01*
X5649639Y-12658650D02*
X5630591Y-12630079D01*
X5630591Y-12630079D02*
X5621068Y-12611031D01*
X5621068Y-12611031D02*
X5611544Y-12582460D01*
X5611544Y-12582460D02*
X5602020Y-12534841D01*
X5602020Y-12534841D02*
X5602020Y-12496746D01*
X5602020Y-12496746D02*
X5611544Y-12449127D01*
X5611544Y-12449127D02*
X5621068Y-12420555D01*
X5621068Y-12420555D02*
X5630591Y-12401508D01*
X5630591Y-12401508D02*
X5649639Y-12372936D01*
X5649639Y-12372936D02*
X5659163Y-12363412D01*
X5725829Y-12411031D02*
X5735353Y-12401508D01*
X5735353Y-12401508D02*
X5754401Y-12391984D01*
X5754401Y-12391984D02*
X5802020Y-12391984D01*
X5802020Y-12391984D02*
X5821068Y-12401508D01*
X5821068Y-12401508D02*
X5830591Y-12411031D01*
X5830591Y-12411031D02*
X5840115Y-12430079D01*
X5840115Y-12430079D02*
X5840115Y-12449127D01*
X5840115Y-12449127D02*
X5830591Y-12477698D01*
X5830591Y-12477698D02*
X5716306Y-12591984D01*
X5716306Y-12591984D02*
X5840115Y-12591984D01*
X6078210Y-12591984D02*
X6078210Y-12391984D01*
X6163925Y-12591984D02*
X6163925Y-12487222D01*
X6163925Y-12487222D02*
X6154401Y-12468174D01*
X6154401Y-12468174D02*
X6135353Y-12458650D01*
X6135353Y-12458650D02*
X6106782Y-12458650D01*
X6106782Y-12458650D02*
X6087734Y-12468174D01*
X6087734Y-12468174D02*
X6078210Y-12477698D01*
X6287734Y-12591984D02*
X6268687Y-12582460D01*
X6268687Y-12582460D02*
X6259163Y-12572936D01*
X6259163Y-12572936D02*
X6249639Y-12553888D01*
X6249639Y-12553888D02*
X6249639Y-12496746D01*
X6249639Y-12496746D02*
X6259163Y-12477698D01*
X6259163Y-12477698D02*
X6268687Y-12468174D01*
X6268687Y-12468174D02*
X6287734Y-12458650D01*
X6287734Y-12458650D02*
X6316306Y-12458650D01*
X6316306Y-12458650D02*
X6335353Y-12468174D01*
X6335353Y-12468174D02*
X6344877Y-12477698D01*
X6344877Y-12477698D02*
X6354401Y-12496746D01*
X6354401Y-12496746D02*
X6354401Y-12553888D01*
X6354401Y-12553888D02*
X6344877Y-12572936D01*
X6344877Y-12572936D02*
X6335353Y-12582460D01*
X6335353Y-12582460D02*
X6316306Y-12591984D01*
X6316306Y-12591984D02*
X6287734Y-12591984D01*
X6468687Y-12591984D02*
X6449639Y-12582460D01*
X6449639Y-12582460D02*
X6440115Y-12563412D01*
X6440115Y-12563412D02*
X6440115Y-12391984D01*
X6621068Y-12582460D02*
X6602020Y-12591984D01*
X6602020Y-12591984D02*
X6563925Y-12591984D01*
X6563925Y-12591984D02*
X6544877Y-12582460D01*
X6544877Y-12582460D02*
X6535353Y-12563412D01*
X6535353Y-12563412D02*
X6535353Y-12487222D01*
X6535353Y-12487222D02*
X6544877Y-12468174D01*
X6544877Y-12468174D02*
X6563925Y-12458650D01*
X6563925Y-12458650D02*
X6602020Y-12458650D01*
X6602020Y-12458650D02*
X6621068Y-12468174D01*
X6621068Y-12468174D02*
X6630591Y-12487222D01*
X6630591Y-12487222D02*
X6630591Y-12506269D01*
X6630591Y-12506269D02*
X6535353Y-12525317D01*
X6706782Y-12582460D02*
X6725830Y-12591984D01*
X6725830Y-12591984D02*
X6763925Y-12591984D01*
X6763925Y-12591984D02*
X6782972Y-12582460D01*
X6782972Y-12582460D02*
X6792496Y-12563412D01*
X6792496Y-12563412D02*
X6792496Y-12553888D01*
X6792496Y-12553888D02*
X6782972Y-12534841D01*
X6782972Y-12534841D02*
X6763925Y-12525317D01*
X6763925Y-12525317D02*
X6735353Y-12525317D01*
X6735353Y-12525317D02*
X6716306Y-12515793D01*
X6716306Y-12515793D02*
X6706782Y-12496746D01*
X6706782Y-12496746D02*
X6706782Y-12487222D01*
X6706782Y-12487222D02*
X6716306Y-12468174D01*
X6716306Y-12468174D02*
X6735353Y-12458650D01*
X6735353Y-12458650D02*
X6763925Y-12458650D01*
X6763925Y-12458650D02*
X6782972Y-12468174D01*
X6859163Y-12668174D02*
X6868687Y-12658650D01*
X6868687Y-12658650D02*
X6887734Y-12630079D01*
X6887734Y-12630079D02*
X6897258Y-12611031D01*
X6897258Y-12611031D02*
X6906782Y-12582460D01*
X6906782Y-12582460D02*
X6916306Y-12534841D01*
X6916306Y-12534841D02*
X6916306Y-12496746D01*
X6916306Y-12496746D02*
X6906782Y-12449127D01*
X6906782Y-12449127D02*
X6897258Y-12420555D01*
X6897258Y-12420555D02*
X6887734Y-12401508D01*
X6887734Y-12401508D02*
X6868687Y-12372936D01*
X6868687Y-12372936D02*
X6859163Y-12363412D01*
X7221068Y-12668174D02*
X7211544Y-12658650D01*
X7211544Y-12658650D02*
X7192496Y-12630079D01*
X7192496Y-12630079D02*
X7182972Y-12611031D01*
X7182972Y-12611031D02*
X7173449Y-12582460D01*
X7173449Y-12582460D02*
X7163925Y-12534841D01*
X7163925Y-12534841D02*
X7163925Y-12496746D01*
X7163925Y-12496746D02*
X7173449Y-12449127D01*
X7173449Y-12449127D02*
X7182972Y-12420555D01*
X7182972Y-12420555D02*
X7192496Y-12401508D01*
X7192496Y-12401508D02*
X7211544Y-12372936D01*
X7211544Y-12372936D02*
X7221068Y-12363412D01*
X7297258Y-12458650D02*
X7297258Y-12591984D01*
X7297258Y-12477698D02*
X7306782Y-12468174D01*
X7306782Y-12468174D02*
X7325830Y-12458650D01*
X7325830Y-12458650D02*
X7354401Y-12458650D01*
X7354401Y-12458650D02*
X7373449Y-12468174D01*
X7373449Y-12468174D02*
X7382972Y-12487222D01*
X7382972Y-12487222D02*
X7382972Y-12591984D01*
X7506782Y-12591984D02*
X7487734Y-12582460D01*
X7487734Y-12582460D02*
X7478211Y-12572936D01*
X7478211Y-12572936D02*
X7468687Y-12553888D01*
X7468687Y-12553888D02*
X7468687Y-12496746D01*
X7468687Y-12496746D02*
X7478211Y-12477698D01*
X7478211Y-12477698D02*
X7487734Y-12468174D01*
X7487734Y-12468174D02*
X7506782Y-12458650D01*
X7506782Y-12458650D02*
X7535353Y-12458650D01*
X7535353Y-12458650D02*
X7554401Y-12468174D01*
X7554401Y-12468174D02*
X7563925Y-12477698D01*
X7563925Y-12477698D02*
X7573449Y-12496746D01*
X7573449Y-12496746D02*
X7573449Y-12553888D01*
X7573449Y-12553888D02*
X7563925Y-12572936D01*
X7563925Y-12572936D02*
X7554401Y-12582460D01*
X7554401Y-12582460D02*
X7535353Y-12591984D01*
X7535353Y-12591984D02*
X7506782Y-12591984D01*
X7630592Y-12458650D02*
X7706782Y-12458650D01*
X7659163Y-12391984D02*
X7659163Y-12563412D01*
X7659163Y-12563412D02*
X7668687Y-12582460D01*
X7668687Y-12582460D02*
X7687734Y-12591984D01*
X7687734Y-12591984D02*
X7706782Y-12591984D01*
X7925830Y-12458650D02*
X7925830Y-12658650D01*
X7925830Y-12468174D02*
X7944877Y-12458650D01*
X7944877Y-12458650D02*
X7982973Y-12458650D01*
X7982973Y-12458650D02*
X8002020Y-12468174D01*
X8002020Y-12468174D02*
X8011544Y-12477698D01*
X8011544Y-12477698D02*
X8021068Y-12496746D01*
X8021068Y-12496746D02*
X8021068Y-12553888D01*
X8021068Y-12553888D02*
X8011544Y-12572936D01*
X8011544Y-12572936D02*
X8002020Y-12582460D01*
X8002020Y-12582460D02*
X7982973Y-12591984D01*
X7982973Y-12591984D02*
X7944877Y-12591984D01*
X7944877Y-12591984D02*
X7925830Y-12582460D01*
X8135353Y-12591984D02*
X8116306Y-12582460D01*
X8116306Y-12582460D02*
X8106782Y-12563412D01*
X8106782Y-12563412D02*
X8106782Y-12391984D01*
X8297258Y-12591984D02*
X8297258Y-12487222D01*
X8297258Y-12487222D02*
X8287734Y-12468174D01*
X8287734Y-12468174D02*
X8268687Y-12458650D01*
X8268687Y-12458650D02*
X8230592Y-12458650D01*
X8230592Y-12458650D02*
X8211544Y-12468174D01*
X8297258Y-12582460D02*
X8278211Y-12591984D01*
X8278211Y-12591984D02*
X8230592Y-12591984D01*
X8230592Y-12591984D02*
X8211544Y-12582460D01*
X8211544Y-12582460D02*
X8202020Y-12563412D01*
X8202020Y-12563412D02*
X8202020Y-12544365D01*
X8202020Y-12544365D02*
X8211544Y-12525317D01*
X8211544Y-12525317D02*
X8230592Y-12515793D01*
X8230592Y-12515793D02*
X8278211Y-12515793D01*
X8278211Y-12515793D02*
X8297258Y-12506269D01*
X8363925Y-12458650D02*
X8440115Y-12458650D01*
X8392496Y-12391984D02*
X8392496Y-12563412D01*
X8392496Y-12563412D02*
X8402020Y-12582460D01*
X8402020Y-12582460D02*
X8421068Y-12591984D01*
X8421068Y-12591984D02*
X8440115Y-12591984D01*
X8582973Y-12582460D02*
X8563925Y-12591984D01*
X8563925Y-12591984D02*
X8525830Y-12591984D01*
X8525830Y-12591984D02*
X8506782Y-12582460D01*
X8506782Y-12582460D02*
X8497258Y-12563412D01*
X8497258Y-12563412D02*
X8497258Y-12487222D01*
X8497258Y-12487222D02*
X8506782Y-12468174D01*
X8506782Y-12468174D02*
X8525830Y-12458650D01*
X8525830Y-12458650D02*
X8563925Y-12458650D01*
X8563925Y-12458650D02*
X8582973Y-12468174D01*
X8582973Y-12468174D02*
X8592496Y-12487222D01*
X8592496Y-12487222D02*
X8592496Y-12506269D01*
X8592496Y-12506269D02*
X8497258Y-12525317D01*
X8763925Y-12591984D02*
X8763925Y-12391984D01*
X8763925Y-12582460D02*
X8744877Y-12591984D01*
X8744877Y-12591984D02*
X8706782Y-12591984D01*
X8706782Y-12591984D02*
X8687735Y-12582460D01*
X8687735Y-12582460D02*
X8678211Y-12572936D01*
X8678211Y-12572936D02*
X8668687Y-12553888D01*
X8668687Y-12553888D02*
X8668687Y-12496746D01*
X8668687Y-12496746D02*
X8678211Y-12477698D01*
X8678211Y-12477698D02*
X8687735Y-12468174D01*
X8687735Y-12468174D02*
X8706782Y-12458650D01*
X8706782Y-12458650D02*
X8744877Y-12458650D01*
X8744877Y-12458650D02*
X8763925Y-12468174D01*
X8840116Y-12668174D02*
X8849639Y-12658650D01*
X8849639Y-12658650D02*
X8868687Y-12630079D01*
X8868687Y-12630079D02*
X8878211Y-12611031D01*
X8878211Y-12611031D02*
X8887735Y-12582460D01*
X8887735Y-12582460D02*
X8897258Y-12534841D01*
X8897258Y-12534841D02*
X8897258Y-12496746D01*
X8897258Y-12496746D02*
X8887735Y-12449127D01*
X8887735Y-12449127D02*
X8878211Y-12420555D01*
X8878211Y-12420555D02*
X8868687Y-12401508D01*
X8868687Y-12401508D02*
X8849639Y-12372936D01*
X8849639Y-12372936D02*
X8840116Y-12363412D01*
M02*
